<?xml version="1.0" encoding="utf-8"?>
<!-- Generator: Adobe Illustrator 19.2.1, SVG Export Plug-In . SVG Version: 6.00 Build 0)  -->
<svg version="1.1" id="Layer_1" xmlns="http://www.w3.org/2000/svg" xmlns:xlink="http://www.w3.org/1999/xlink" x="0px" y="0px"
	 viewBox="0 0 851 315" style="enable-background:new 0 0 851 315;" xml:space="preserve">
<style type="text/css">
	.st0{opacity:0.5;}
	.st1{fill:none;stroke:#606060;stroke-width:2;stroke-miterlimit:10;}
	.st2{fill:none;stroke:#606060;stroke-miterlimit:10;}
	.st3{opacity:0.2;}
	.st4{fill:none;stroke:#D01E4A;stroke-width:2;stroke-miterlimit:10;}
	.st5{fill:none;stroke:#D01E4A;stroke-miterlimit:10;}
	.st6{opacity:0.4;}
	.st7{opacity:0.5;fill:none;stroke:#5DC4C1;stroke-width:2;stroke-miterlimit:10;enable-background:new    ;}
	.st8{opacity:0.3;fill:none;stroke:#5DC4C1;stroke-width:2;stroke-miterlimit:10;enable-background:new    ;}
	.st9{opacity:0.5;fill:none;stroke:#5DC4C1;stroke-miterlimit:10;enable-background:new    ;}
	.st10{fill:#A0D9DA;}
	.st11{clip-path:url(#SVGID_2_);fill:#777A7A;}
	.st12{fill:#C0BFBF;stroke:#C0BFBF;stroke-width:9.375000e-002;stroke-miterlimit:10;}
	.st13{fill:#FFFFFF;stroke:#FFFFFF;stroke-width:9.375000e-002;stroke-miterlimit:10;}
	.st14{fill:#A2A2A1;stroke:#A2A2A1;stroke-width:9.375000e-002;stroke-miterlimit:10;}
	.st15{fill:#7A7A7A;stroke:#7A7A7A;stroke-width:9.375000e-002;stroke-miterlimit:10;}
	.st16{fill:#404040;stroke:#404040;stroke-width:9.375000e-002;stroke-miterlimit:10;}
	.st17{fill:#050505;stroke:#050505;stroke-width:9.375000e-002;stroke-miterlimit:10;}
	.st18{fill:#ED1C24;}
	.st19{fill:#FFFFFF;}
	.st20{fill:#B82025;stroke:#F9FAFD;stroke-width:2;stroke-miterlimit:10;}
	.st21{fill:#ED1C24;stroke:#FDFDFE;stroke-width:2;stroke-miterlimit:10;}
</style>
<path d="M513,243.7c-5.4,5.3-11.8,7.9-19.2,7.9h-22.3V197h22.3c7.5,0,13.8,2.7,19.2,8c5.3,5.3,8,11.8,8,19.2
	C521.1,231.8,518.4,238.2,513,243.7z M504.2,224.4c0-2.7-0.9-5.1-2.9-7.2c-1.8-2.1-4.4-3.2-7.5-3.2h-5.4v20.7h1.7
	c3.9,0.1,7.8,0.2,11-3.1C503.3,229.5,504.2,226.9,504.2,224.4z"/>
<g class="st0">
	<line class="st1" x1="350.5" y1="338.1" x2="311.9" y2="444.6"/>
	<line class="st1" x1="372.4" y1="270.6" x2="317.9" y2="393.6"/>
	<line class="st1" x1="342.9" y1="283.5" x2="277.9" y2="377.1"/>
	<line class="st1" x1="322.3" y1="293" x2="234" y2="401.7"/>
	<line class="st1" x1="310.2" y1="294.2" x2="227.4" y2="389.6"/>
	<line class="st1" x1="349.7" y1="262.1" x2="268" y2="369.7"/>
	<line class="st1" x1="363.4" y1="270.2" x2="282.3" y2="418.6"/>
	<line class="st1" x1="357.5" y1="266.3" x2="264.7" y2="409"/>
	<g class="st0">
		<line class="st2" x1="319.4" y1="253.1" x2="233" y2="329"/>
		<line class="st1" x1="328.8" y1="237.2" x2="194.3" y2="343.5"/>
		<line class="st2" x1="327.9" y1="239.8" x2="225.8" y2="328.3"/>
		<line class="st1" x1="309.6" y1="275.1" x2="232.4" y2="349.8"/>
		<line class="st1" x1="337.4" y1="242.1" x2="215.6" y2="354.1"/>
		<line class="st1" x1="340.1" y1="249.8" x2="243.4" y2="348.1"/>
		<line class="st1" x1="342" y1="217.5" x2="147.6" y2="300.9"/>
		<line class="st2" x1="306.9" y1="225.5" x2="145.5" y2="288.1"/>
		<line class="st2" x1="313.8" y1="219" x2="154.2" y2="278.3"/>
		<line class="st2" x1="288.9" y1="223.6" x2="135.4" y2="279.2"/>
		<line class="st1" x1="315.2" y1="224.2" x2="190.9" y2="277.2"/>
		<line class="st2" x1="323.6" y1="238.1" x2="185.4" y2="336.6"/>
		<line class="st2" x1="298" y1="247.5" x2="163.9" y2="325.6"/>
		<line class="st1" x1="319.9" y1="231.8" x2="168.5" y2="309.7"/>
		<line class="st1" x1="263.3" y1="257.1" x2="149.9" y2="312.9"/>
		<line class="st1" x1="320.9" y1="235.1" x2="205.9" y2="309.7"/>
	</g>
</g>
<g class="st3">
	<line class="st4" x1="305.3" y1="136.2" x2="121.3" y2="84.2"/>
	<line class="st5" x1="284.2" y1="122.8" x2="152.2" y2="76.1"/>
	<line class="st5" x1="324.8" y1="133.4" x2="165.2" y2="74.3"/>
	<line class="st5" x1="268" y1="108.7" x2="18.3" y2="11.2"/>
	<line class="st4" x1="322.5" y1="138.3" x2="193.8" y2="97.4"/>
	<line class="st4" x1="308.5" y1="156.9" x2="141.4" y2="130.3"/>
	<line class="st4" x1="323.6" y1="150.1" x2="142.8" y2="110.8"/>
	<line class="st4" x1="321.1" y1="147.1" x2="155.5" y2="107.5"/>
	<line class="st5" x1="319.4" y1="144" x2="140.3" y2="96.1"/>
	<line class="st4" x1="308.4" y1="150.2" x2="175.7" y2="125"/>
	<line class="st5" x1="319.3" y1="114.9" x2="176.3" y2="16.4"/>
	<line class="st5" x1="297.5" y1="92.9" x2="186.1" y2="8"/>
	<line class="st5" x1="332.9" y1="115.4" x2="199.1" y2="10.2"/>
	<line class="st5" x1="286.4" y1="74.5" x2="188.5" y2="-5.4"/>
	<line class="st5" x1="329.2" y1="119.3" x2="219.2" y2="41"/>
	<line class="st5" x1="321.5" y1="133.3" x2="99.3" y2="26.2"/>
	<line class="st5" x1="322" y1="129.5" x2="166.6" y2="38.2"/>
	<line class="st5" x1="325.2" y1="127.3" x2="179.7" y2="38.8"/>
	<line class="st5" x1="324.6" y1="122.9" x2="167.3" y2="24.7"/>
	<line class="st4" x1="322" y1="131.7" x2="203.4" y2="67"/>
</g>
<g class="st6">
	<line class="st1" x1="326.1" y1="102.8" x2="240.3" y2="32"/>
	<line class="st2" x1="336.8" y1="105.5" x2="251" y2="31.4"/>
	<line class="st2" x1="345.7" y1="104.2" x2="226.3" y2="-14.8"/>
	<line class="st1" x1="341.7" y1="107.8" x2="239.3" y2="9.2"/>
	<line class="st1" x1="364.3" y1="87.5" x2="292.9" y2="-27.2"/>
	<line class="st1" x1="357.6" y1="91.3" x2="279.8" y2="-20.2"/>
	<line class="st1" x1="346.9" y1="98.1" x2="256.9" y2="8.8"/>
	<line class="st1" x1="322.9" y1="70.1" x2="260.3" y2="0.1"/>
	<line class="st1" x1="354.9" y1="94.8" x2="276.9" y2="-0.5"/>
</g>
<line class="st7" x1="277.6" y1="193.8" x2="27.3" y2="243.2"/>
<line class="st7" x1="318.4" y1="186.1" x2="132.1" y2="209.7"/>
<line class="st7" x1="299.5" y1="199.3" x2="50.3" y2="257.2"/>
<line class="st8" x1="323.6" y1="203.4" x2="165.3" y2="263"/>
<line class="st8" x1="282.7" y1="212.3" x2="33.3" y2="292.2"/>
<line class="st7" x1="321.6" y1="196.6" x2="158.2" y2="244.3"/>
<line class="st8" x1="322.7" y1="201.9" x2="195" y2="245.8"/>
<line class="st7" x1="274.3" y1="161.2" x2="30.4" y2="128.7"/>
<line class="st9" x1="288.9" y1="170.5" x2="43.8" y2="149.4"/>
<line class="st7" x1="316.2" y1="163.2" x2="147.8" y2="138.2"/>
<line class="st9" x1="314.9" y1="168.5" x2="180.5" y2="155"/>
<line class="st7" x1="315.2" y1="184.5" x2="146.2" y2="192.7"/>
<line class="st9" x1="315.4" y1="177.4" x2="145.2" y2="172.7"/>
<line class="st7" x1="314.7" y1="182.8" x2="179.7" y2="185.4"/>
<g class="st0">
	<line class="st1" x1="502.1" y1="20.6" x2="557" y2="-73.5"/>
	<line class="st1" x1="495.5" y1="49.7" x2="566" y2="-65"/>
	<line class="st1" x1="505" y1="48.8" x2="579" y2="-64"/>
	<line class="st1" x1="473.2" y1="82.6" x2="537.7" y2="-30.2"/>
	<line class="st1" x1="486.4" y1="45.1" x2="548.3" y2="-81.4"/>
	<g class="st0">
		<line class="st2" x1="528.5" y1="55" x2="611" y2="-34.4"/>
		<line class="st1" x1="525.4" y1="73.5" x2="625.4" y2="-16.2"/>
		<line class="st1" x1="501.6" y1="98.1" x2="632.9" y2="-12.5"/>
		<line class="st1" x1="495.7" y1="95.8" x2="586.3" y2="2.7"/>
		<line class="st1" x1="508.9" y1="64.1" x2="591.2" y2="-43.3"/>
		<line class="st2" x1="516.3" y1="62.8" x2="594.9" y2="-31.9"/>
		<line class="st2" x1="543" y1="89.5" x2="661.5" y2="14.8"/>
		<line class="st1" x1="546.5" y1="96.8" x2="664.5" y2="32.2"/>
		<line class="st1" x1="512.8" y1="119.2" x2="657.5" y2="42.7"/>
		<line class="st1" x1="567" y1="94.3" x2="675.4" y2="39.5"/>
		<line class="st1" x1="510.8" y1="114.4" x2="622.7" y2="48.4"/>
		<line class="st2" x1="536" y1="81.5" x2="645.7" y2="3.3"/>
		<line class="st2" x1="505.4" y1="107.7" x2="640" y2="14.5"/>
		<line class="st2" x1="556.2" y1="76.5" x2="657.3" y2="9.2"/>
		<line class="st2" x1="502.8" y1="103.2" x2="606" y2="24.3"/>
	</g>
</g>
<g class="st3">
	<line class="st5" x1="559.2" y1="200.7" x2="706.5" y2="229.7"/>
	<line class="st5" x1="564.8" y1="209.1" x2="701" y2="241.4"/>
	<line class="st5" x1="523.3" y1="202.9" x2="688.3" y2="244.6"/>
	<line class="st5" x1="582.4" y1="221.4" x2="704.3" y2="254.5"/>
	<line class="st4" x1="525" y1="197.8" x2="657.4" y2="224.7"/>
	<line class="st4" x1="529.9" y1="177.5" x2="749" y2="188.4"/>
	<line class="st4" x1="567.5" y1="190.1" x2="823.4" y2="213.1"/>
	<line class="st4" x1="525.5" y1="188.9" x2="694.4" y2="210.6"/>
	<line class="st5" x1="556.9" y1="196.3" x2="711.4" y2="218.5"/>
	<line class="st4" x1="526.7" y1="183.6" x2="794.4" y2="199.6"/>
	<line class="st5" x1="551" y1="229.1" x2="662.7" y2="287.5"/>
	<line class="st5" x1="554.8" y1="240.3" x2="674.5" y2="312.8"/>
	<line class="st5" x1="515.9" y1="221.6" x2="665.4" y2="311.6"/>
	<line class="st5" x1="567.8" y1="257.4" x2="673.7" y2="326.3"/>
	<line class="st5" x1="520.4" y1="217.4" x2="638.2" y2="283.5"/>
	<line class="st5" x1="526.5" y1="202.6" x2="684.7" y2="262.7"/>
	<line class="st5" x1="563.2" y1="223" x2="690.8" y2="280.7"/>
	<line class="st5" x1="523.5" y1="209" x2="677.7" y2="281.4"/>
	<line class="st5" x1="552" y1="226.5" x2="701.9" y2="302.5"/>
	<line class="st4" x1="526.3" y1="204.3" x2="651" y2="256"/>
</g>
<g class="st6">
	<line class="st1" x1="547.7" y1="262.6" x2="634.8" y2="327.5"/>
	<line class="st1" x1="513.5" y1="243.6" x2="623.5" y2="337.1"/>
	<line class="st1" x1="521.5" y1="288.8" x2="588.3" y2="374.8"/>
	<line class="st1" x1="492.9" y1="258.8" x2="588.3" y2="391.5"/>
	<line class="st1" x1="497.9" y1="270.1" x2="562.5" y2="372.5"/>
	<line class="st1" x1="497.6" y1="256.1" x2="585.3" y2="361.2"/>
	<line class="st1" x1="504.8" y1="247.2" x2="600.3" y2="349.5"/>
	<line class="st1" x1="521.5" y1="272.7" x2="597.9" y2="366.7"/>
	<line class="st1" x1="509" y1="244.2" x2="598.9" y2="327.5"/>
	<g class="st0">
		<line class="st1" x1="486.9" y1="288.8" x2="549.3" y2="409"/>
		<line class="st1" x1="485.6" y1="304.4" x2="536.4" y2="428.6"/>
		<line class="st1" x1="467.2" y1="268.6" x2="526.8" y2="420.5"/>
		<line class="st1" x1="472.2" y1="267.1" x2="525" y2="385.3"/>
		<line class="st1" x1="485.3" y1="259.3" x2="572.8" y2="395.8"/>
		<line class="st1" x1="501.9" y1="295.8" x2="567.2" y2="413.1"/>
		<line class="st1" x1="479.4" y1="262.5" x2="556.7" y2="406.2"/>
		<line class="st1" x1="484.2" y1="260.4" x2="550.8" y2="371.5"/>
		<line class="st1" x1="464.5" y1="271.7" x2="495.6" y2="356.1"/>
	</g>
</g>
<line class="st9" x1="532.3" y1="146.1" x2="719.5" y2="101.5"/>
<line class="st9" x1="522.5" y1="144" x2="653" y2="109.1"/>
<line class="st9" x1="555.3" y1="127.4" x2="674.9" y2="87.5"/>
<line class="st8" x1="517" y1="133.2" x2="668" y2="57"/>
<line class="st8" x1="556.7" y1="119.9" x2="685.4" y2="64.7"/>
<line class="st7" x1="519.7" y1="139.7" x2="677" y2="74.8"/>
<line class="st8" x1="518" y1="134.6" x2="640.4" y2="77.2"/>
<line class="st7" x1="528.7" y1="172.3" x2="698.8" y2="179.2"/>
<line class="st7" x1="529.4" y1="166.9" x2="664.4" y2="166"/>
<line class="st7" x1="529.8" y1="161.9" x2="761" y2="151.9"/>
<line class="st9" x1="527.4" y1="151.1" x2="738" y2="106.1"/>
<line class="st7" x1="528" y1="158.1" x2="844.4" y2="130.9"/>
<line class="st7" x1="528" y1="152.7" x2="662" y2="135.7"/>
<path class="st10" d="M504.9,114.6l79.6-52.5c-1.6-2.2-3.2-4.4-4.9-6.5c-25.8,18.6-51.5,37.1-77.3,55.7
	C503.3,112.4,504.1,113.5,504.9,114.6z"/>
<path class="st10" d="M492.1,100c24-23.6,48-47.1,71.9-70.7c-2.2-2.1-4.4-4.1-6.8-6.2c-22.8,24.6-45.7,49.2-68.5,73.8
	C489.9,97.9,491,99,492.1,100z"/>
<path class="st10" d="M543,78c-1.4-1.7-2.8-3.3-4.2-5c-13.5,11.1-27,22.2-40.5,33.3c1,1.1,1.9,2.2,2.8,3.3C515,99.1,529,88.5,543,78
	z"/>
<path class="st10" d="M556,273.2c1.3-1.7,2.5-3.4,3.7-5.1c-19.2-13.5-38.4-27.1-57.6-40.6c-0.7,1-1.4,2-2.2,3
	C518.7,244.7,537.4,258.9,556,273.2z"/>
<path class="st10" d="M555.3,54.5c-1.8-1.9-3.6-3.8-5.4-5.6c-18.7,17.6-37.4,35.1-56.1,52.7c1.1,1,2.1,2.1,3.1,3.2
	C516.3,88,535.8,71.2,555.3,54.5z"/>
<path class="st10" d="M502.2,279.1c1.3-1,2.6-2.1,3.9-3.2c-7.5-9.3-15-18.7-22.5-28c-0.9,0.8-1.9,1.6-2.9,2.3
	C487.9,259.9,495.1,269.5,502.2,279.1z"/>
<path class="st10" d="M526.5,17.3c-1.2-0.8-2.3-1.5-3.5-2.3c-14.9,23.9-29.7,47.9-44.6,71.8l-0.9,1.3c0,0,0,0,0.1,0v0.1
	c0.7,0.4,1.3,0.9,2,1.3c0.6,0.5,1.3,0.9,1.9,1.4c0,0,0,0,0.1-0.1c0,0,0,0,0.1,0l0.9-1.3c17.1-22.4,34.3-44.7,51.4-67.1
	c-1.1-0.8-2.2-1.6-3.3-2.5l0,0c-0.7-0.5-1.4-0.9-2.1-1.4C527.8,18.2,527.2,17.7,526.5,17.3L526.5,17.3z"/>
<path class="st10" d="M511.6,211.5c26.6,12.1,53.2,24.3,79.8,36.4c1-2.1,2-4.2,2.9-6.3c-27-11.1-54.1-22.3-81.1-33.4
	C512.5,209.2,512,210.3,511.6,211.5z"/>
<path class="st10" d="M492.4,297.2c-7.4-13.2-14.8-26.4-22.3-39.6c-1.1,0.6-2.1,1.3-3.2,1.9c6.9,13.5,13.9,26.9,20.8,40.4
	C489.3,299.1,490.9,298.2,492.4,297.2z"/>
<path class="st10" d="M471.7,256.7c14.4,24.5,28.8,49,43.1,73.5c1.9-1.2,3.8-2.5,5.7-3.7c-15.3-23.9-30.5-47.9-45.7-71.8
	C473.8,255.4,472.7,256,471.7,256.7z"/>
<path class="st10" d="M465.3,260.4c-1.1,0.6-2.2,1.1-3.3,1.7c7.4,16.5,14.7,33,22.1,49.4c1.7-0.8,3.4-1.7,5.1-2.6
	C481.2,292.8,473.3,276.6,465.3,260.4z"/>
<path class="st10" d="M527,50.2c-1.9-1.6-3.9-3.2-5.9-4.8c-12.6,15.7-25.2,31.3-37.8,47c1.3,1,2.5,2,3.7,3
	C500.4,80.4,513.7,65.3,527,50.2z"/>
<path class="st10" d="M521.8,163.1c19.1-1.3,38.2-2.6,57.3-3.9c-0.1-1.9-0.2-3.9-0.4-5.8c-19.1,2-38.1,4-57.2,6
	C521.7,160.7,521.7,161.9,521.8,163.1z"/>
<path class="st10" d="M519.5,146.5c24.2-5.8,48.4-11.5,72.5-17.3c-0.5-2.1-1-4.2-1.6-6.3c-23.9,6.7-47.9,13.3-71.8,20
	C518.9,144.1,519.2,145.3,519.5,146.5z"/>
<path class="st10" d="M496.6,234.8c11.1,9.5,22.1,18.9,33.2,28.4c1.1-1.4,2.3-2.7,3.4-4.1c-11.4-9-22.8-18.1-34.2-27.1
	C498.2,232.9,497.4,233.8,496.6,234.8z"/>
<path class="st10" d="M492.9,239l19.2,18.4c1.1-1.1,2.1-2.3,3.1-3.5c-6.6-5.9-13.3-11.8-19.9-17.7
	C494.6,237.1,493.8,238.1,492.9,239z"/>
<path class="st10" d="M521.4,157.6l100.1-12.4c-0.3-2.5-0.6-4.9-0.9-7.4c-33.2,5.4-66.4,10.7-99.6,16.1
	C521,155.1,521.2,156.4,521.4,157.6z"/>
<path class="st10" d="M489,243c13.5,14.5,27.1,28.9,40.6,43.4c1.4-1.4,2.8-2.8,4.2-4.2c-14-13.9-28.1-27.9-42.1-41.8
	C490.8,241.2,489.9,242.1,489,243z"/>
<path class="st10" d="M508.3,119.7c24.5-14.1,49.1-28.2,73.6-42.3c-1.3-2.1-2.7-4.2-4.1-6.3c-23.9,15.1-47.8,30.1-71.7,45.2
	C506.9,117.4,507.6,118.6,508.3,119.7z"/>
<path class="st10" d="M518,141.1c16.7-5,33.5-10,50.2-15c-0.6-1.8-1.2-3.7-1.8-5.5l-49.6,16.9C517.2,138.6,517.5,139.8,518,141.1z"
	/>
<path class="st10" d="M569.8,95.8c-1-1.9-2.1-3.8-3.2-5.7c-19.1,10.5-38.2,20.9-57.2,31.4c0.7,1.2,1.3,2.3,2,3.5
	C530.8,115.2,550.3,105.5,569.8,95.8z"/>
<path class="st10" d="M489.9,266.2c-3.5-4.9-7.1-9.8-10.6-14.8c-1,0.7-2,1.5-3,2.2c3.4,5.1,6.7,10.1,10.1,15.2
	C487.5,267.9,488.7,267.1,489.9,266.2z"/>
<path class="st10" d="M557.5,145.4c-0.3-1.7-0.6-3.4-1-5c-12.2,2.7-24.4,5.3-36.6,8c0.3,1.2,0.5,2.5,0.7,3.7
	C532.9,149.8,545.2,147.6,557.5,145.4z"/>
<path class="st10" d="M586.8,99.1c-1-2.1-2-4.2-3-6.3c-23.9,11.3-47.7,22.6-71.6,34c0.6,1.2,1.2,2.4,1.7,3.5
	C538.2,119.9,562.5,109.5,586.8,99.1z"/>
<path class="st10" d="M516.2,135.6c28.6-10.3,57.2-20.7,85.7-31c-0.9-2.3-1.8-4.6-2.7-6.8c-28.2,11.4-56.3,22.8-84.4,34.2
	C515.2,133.2,515.7,134.4,516.2,135.6z"/>
<path class="st10" d="M485,246.7l44.8,53.5c1.6-1.4,3.1-2.8,4.6-4.2c-15.6-17.3-31.1-34.5-46.7-51.8
	C486.8,245.1,485.9,245.9,485,246.7z"/>
<path class="st10" d="M568.5,168.1c0-1.8,0-3.6,0-5.4c-15.6,0.8-31.1,1.6-46.7,2.3c0,1.2,0,2.5,0,3.7
	C537.4,168.5,553,168.3,568.5,168.1z"/>
<path class="st10" d="M509.1,216.4c12.1,6.3,24.2,12.7,36.2,19c0.8-1.5,1.6-3.1,2.4-4.6c-12.3-5.9-24.6-11.8-36.9-17.7
	C510.2,214.2,509.7,215.3,509.1,216.4z"/>
<path class="st10" d="M519,190.6c29,6.1,58,12.1,87,18.2c0.5-2.3,1.1-4.5,1.5-6.8c-29.2-5-58.5-10-87.7-15
	C519.5,188.2,519.4,189.4,519,190.6z"/>
<path class="st10" d="M395.8,324.2c3-18.2,5.9-36.3,8.9-54.5c-1.3-0.3-2.7-0.6-4-0.9c-3.7,18-7.4,36-11,54
	C391.7,323.3,393.8,323.8,395.8,324.2z"/>
<path class="st10" d="M363.7,327l22.9-62.8c-1.4-0.6-2.7-1.1-4.1-1.8c-8.5,20.5-17,41.1-25.6,61.6
	C359.2,325.1,361.5,326.1,363.7,327z"/>
<path class="st10" d="M381.6,304.4c3.7-12.6,7.4-25.3,11.1-37.9c-1.3-0.5-2.7-0.9-4-1.5c-4.2,12.5-8.5,24.9-12.7,37.4
	C377.8,303.1,379.7,303.7,381.6,304.4z"/>
<path class="st10" d="M406.7,270c-4.3,30.2-8.6,60.4-12.9,90.6c2.5,0.4,5,0.8,7.5,1.1c3.1-30.4,6.2-60.8,9.3-91.2
	C409.3,270.5,408,270.2,406.7,270z"/>
<path class="st10" d="M370.3,255.9c-16.9,28.8-33.9,57.6-50.8,86.4c2.7,1.7,5.4,3.3,8.2,4.8l46.7-88.8
	C373,257.6,371.7,256.8,370.3,255.9z"/>
<path class="st10" d="M513.8,206.4c22.9,8.9,45.8,17.9,68.7,26.9c0.8-2,1.6-4,2.4-6c-23.3-8.1-46.5-16.2-69.7-24.3
	C514.8,204.1,514.3,205.2,513.8,206.4z"/>
<path class="st10" d="M414.7,313.8c0.6-14.2,1.2-28.4,1.8-42.6c-1.3-0.1-2.6-0.2-3.9-0.3c-1.2,14.1-2.3,28.3-3.5,42.4
	C411,313.5,412.8,313.6,414.7,313.8z"/>
<path class="st10" d="M517.5,195.9c15.7,4.2,31.3,8.4,47,12.6c0.5-1.8,1-3.5,1.5-5.3c-15.8-3.6-31.7-7.2-47.5-10.9
	C518.3,193.6,518,194.8,517.5,195.9z"/>
<path class="st10" d="M376.4,259.4c-11.6,23.4-23.3,46.9-34.9,70.3c2.4,1.3,4.9,2.5,7.3,3.7c10.6-24,21.2-48,31.7-71.9
	C379.2,260.8,377.8,260.1,376.4,259.4z"/>
<path class="st10" d="M515.9,201.2c19.5,6.4,39,12.8,58.5,19.2c0.7-1.9,1.3-3.8,1.9-5.7c-19.8-5.7-39.5-11.4-59.3-17
	C516.7,198.9,516.3,200,515.9,201.2z"/>
<path class="st10" d="M387.7,293c1.7,0.5,3.4,1,5.1,1.5c2-8.7,3.9-17.5,5.9-26.2c-1.3-0.4-2.7-0.7-4-1.2
	C392.3,275.7,390,284.4,387.7,293z"/>
<path class="st10" d="M418.4,271.3c-0.6,25.5-1.2,51-1.8,76.5c2.3,0.1,4.5,0.1,6.8,0.1l-1.1-76.6C421,271.4,419.7,271.4,418.4,271.3
	z"/>
<path class="st10" d="M431.8,323.8c-1.3-17.5-2.5-35.1-3.7-52.6c-1.3,0.1-2.5,0.1-3.8,0.2c0.6,17.6,1.2,35.1,1.8,52.7
	C427.9,324,429.9,323.9,431.8,323.8z"/>
<path class="st10" d="M521.5,174.2c25.1,1,50.1,2.1,75.2,3.1c0.2-2.1,0.3-4.3,0.3-6.4c-25.1-0.1-50.2-0.2-75.3-0.4
	C521.8,171.8,521.7,173,521.5,174.2z"/>
<path class="st10" d="M441.1,269.4c6.5,31.7,12.9,63.4,19.4,95.1c2.4-0.5,4.8-1.1,7.1-1.7c-7.6-31.4-15.2-62.9-22.9-94.3
	C443.5,268.8,442.3,269.1,441.1,269.4z"/>
<path class="st10" d="M451.8,266.3c7.9,24.6,15.8,49.2,23.7,73.8c2.1-0.7,4.1-1.5,6.1-2.3c-8.8-24.3-17.6-48.5-26.4-72.8
	C454.1,265.5,453,265.9,451.8,266.3z"/>
<path class="st10" d="M584.8,195c0.4-2,0.7-4,1-6c-21.7-2.5-43.3-5-65-7.5c-0.2,1.2-0.4,2.4-0.6,3.6L584.8,195z"/>
<path class="st10" d="M446.5,268c7.4,28.3,14.8,56.5,22.2,84.8c2.2-0.6,4.4-1.3,6.6-2c-8.4-27.9-16.8-55.9-25.3-83.8
	C448.9,267.3,447.7,267.7,446.5,268z"/>
<path class="st10" d="M429.9,271c2,22.1,4,44.2,6,66.3c2.1-0.2,4.2-0.4,6.2-0.7l-8.4-66.1C432.4,270.8,431.2,270.9,429.9,271z"/>
<path class="st10" d="M590.8,276.2c-28.5-17.8-57-35.6-85.5-53.4c-0.7,1-1.3,2.1-2,3.1c27.8,18.9,55.6,37.7,83.5,56.6
	C588,280.4,589.5,278.3,590.8,276.2z"/>
<path class="st10" d="M506.3,221.2c14,8.4,28.1,16.8,42.1,25.2c1-1.6,1.9-3.2,2.8-4.8c-14.3-7.9-28.7-15.8-43-23.6
	C507.6,219.1,506.9,220.2,506.3,221.2z"/>
<path class="st10" d="M457,264.4c8,21,16.1,41.9,24.1,62.9c1.9-0.8,3.8-1.6,5.6-2.5c-8.8-20.6-17.6-41.3-26.4-61.9
	C459.2,263.4,458.1,263.9,457,264.4z"/>
<path class="st10" d="M453.9,349.2l-14.7-79.5c-1.2,0.2-2.5,0.5-3.7,0.6l11.7,80C449.5,350,451.7,349.6,453.9,349.2z"/>
<path class="st10" d="M561.2,183.6c0.2-1.7,0.4-3.4,0.6-5.1l-40.3-2.4c-0.1,1.2-0.2,2.4-0.4,3.7C534.5,181,547.8,182.3,561.2,183.6z
	"/>
<path class="st10" d="M280.7,150.9c-0.3,1.8-0.6,3.5-0.9,5.3c15.1,1.7,30.1,3.5,45.2,5.2c0.2-1.2,0.4-2.4,0.6-3.6
	C310.6,155.5,295.6,153.2,280.7,150.9z"/>
<path class="st10" d="M289.6,250.7c1.1,1.8,2.3,3.5,3.5,5.3c15.6-9.8,31.1-19.6,46.7-29.4c-0.8-1.1-1.5-2.3-2.2-3.4
	C321.5,232.4,305.6,241.6,289.6,250.7z"/>
<path class="st10" d="M317,261.6c10.2-8.4,20.3-16.7,30.5-25.1c-1-1.1-1.9-2.2-2.8-3.3c-10.5,7.9-21,15.9-31.6,23.8
	C314.4,258.6,315.7,260.1,317,261.6z"/>
<path class="st10" d="M318.5,243.1c1,1.4,2.1,2.8,3.2,4.2c7.3-5.2,14.5-10.5,21.8-15.7c-0.9-1.1-1.7-2.2-2.5-3.3
	C333.4,233.2,325.9,238.2,318.5,243.1z"/>
<path class="st10" d="M339.9,295.9c0.7,0.4,1.3,0.9,2,1.3c8.5-13.7,17-27.4,25.5-41.1l0.9-1.3c0,0,0,0-0.1,0v-0.1
	c-0.7-0.4-1.3-0.9-2-1.3c-0.7-0.5-1.3-0.9-1.9-1.4c0,0,0,0-0.1,0.1c0,0,0,0-0.1,0l-0.9,1.3c-9.8,12.8-19.6,25.6-29.4,38.4
	c0.6,0.5,1.3,0.9,1.9,1.4v0.1c0.7,0.5,1.4,0.9,2.1,1.4C338.5,295,339.2,295.5,339.9,295.9L339.9,295.9z"/>
<path class="st10" d="M303.4,287c17.4-16.4,33.4-31.3,48.6-45.7c-1.1-1-2.1-2.1-3.1-3.2l-50.7,43.6C300,283.5,301.7,285.3,303.4,287
	z"/>
<path class="st10" d="M326.3,196.4c-21.6,5.1-43.2,10.3-64.8,15.5c0.5,2,1,4,1.6,6.1c21.4-5.9,42.8-11.9,64.2-17.9
	C326.9,198.8,326.6,197.6,326.3,196.4z"/>
<path class="st10" d="M292.7,229.4c0.8,1.7,1.6,3.4,2.4,5c12.8-6.1,25.6-12.2,38.5-18.2c-0.6-1.2-1.2-2.4-1.7-3.5
	C318.8,218.3,305.7,223.9,292.7,229.4z"/>
<path class="st10" d="M327.8,201.9c-16.8,5-33.7,10.1-50.5,15.1c0.6,1.8,1.2,3.7,1.8,5.5c16.6-5.7,33.3-11.3,49.9-17
	C328.5,204.3,328.1,203.1,327.8,201.9z"/>
<path class="st10" d="M295.8,130.5c-0.6,1.6-1.1,3.2-1.6,4.8c11.5,3.3,23,6.6,34.6,9.9c0.4-1.2,0.8-2.3,1.2-3.5
	C318.5,138,307.1,134.3,295.8,130.5z"/>
<path class="st10" d="M327.2,150.5c0.3-1.2,0.6-2.4,1-3.6c-5.9-1.6-11.7-3.1-17.6-4.7c-0.4,1.4-0.8,2.8-1.2,4.2
	C315.4,147.8,321.3,149.2,327.2,150.5z"/>
<path class="st10" d="M245.7,205.2c0.4,2.2,0.8,4.4,1.3,6.6l78.9-17.3c-0.3-1.2-0.5-2.5-0.7-3.7L245.7,205.2z"/>
<path class="st10" d="M342.5,117c-19.5-13.2-38.9-26.4-58.4-39.6c-1.2,1.7-2.3,3.5-3.5,5.3c19.9,12.5,39.9,24.9,59.8,37.4
	C341.1,119.1,341.8,118,342.5,117z"/>
<path class="st10" d="M362.2,95c0.9-0.8,1.9-1.6,2.9-2.3c-12.3-16.5-24.6-32.9-36.9-49.4c-1.6,1.2-3.1,2.5-4.6,3.8
	C336.5,63,349.3,79,362.2,95z"/>
<path class="st10" d="M339.5,121.7c-12.5-7.5-24.9-14.9-37.4-22.4c-0.9,1.5-1.8,3.1-2.7,4.6c12.7,7,25.5,14,38.2,21
	C338.2,123.8,338.9,122.8,339.5,121.7z"/>
<path class="st10" d="M336.7,126.5c-7.9-4.1-15.7-8.3-23.6-12.4c-0.7,1.4-1.5,2.8-2.2,4.2l24,11.5
	C335.6,128.7,336.1,127.6,336.7,126.5z"/>
<path class="st10" d="M334.2,131.5c-18-8.2-36-16.4-54-24.6c-0.9,1.8-1.7,3.6-2.5,5.4c18.3,7.5,36.6,15.1,54.9,22.6
	C333.1,133.7,333.7,132.6,334.2,131.5z"/>
<path class="st10" d="M331.9,136.5c-21.6-8.5-43.3-16.9-64.9-25.4c-0.8,1.9-1.6,3.9-2.3,5.8c22,7.6,43.9,15.3,65.9,23
	C331,138.8,331.4,137.7,331.9,136.5z"/>
<path class="st10" d="M356.7,100c-20-21.4-40-42.7-59.9-64.1c-1.7,1.6-3.3,3.3-4.9,4.9l62.2,61.8C355,101.7,355.9,100.8,356.7,100z"
	/>
<path class="st10" d="M360.8,96.2c-15.8-18.9-31.6-37.8-47.4-56.7c-1.6,1.4-3.2,2.9-4.8,4.3c16.5,18.3,32.9,36.5,49.4,54.8
	C359,97.9,359.9,97,360.8,96.2z"/>
<path class="st10" d="M326.7,152.3c-27.8-5.8-55.5-11.6-83.3-17.4c-0.5,2.2-1,4.4-1.5,6.7c28,4.8,56,9.6,84,14.4
	C326.2,154.7,326.4,153.5,326.7,152.3z"/>
<path class="st10" d="M352.9,104c-9.9-9.4-19.7-18.9-29.6-28.3c-1.2,1.3-2.3,2.6-3.5,3.9c10.2,9.1,20.4,18.1,30.6,27.2
	C351.2,105.8,352,104.9,352.9,104z"/>
<path class="st10" d="M349.2,108.1c-12.4-10.6-24.9-21.3-37.3-31.9c-1.2,1.4-2.3,2.9-3.5,4.3c12.8,10.2,25.6,20.3,38.5,30.5
	C347.6,110.1,348.4,109.1,349.2,108.1z"/>
<path class="st10" d="M265.6,51.4c-1.5,2-3,4-4.4,6c27.5,19.4,54.9,38.7,82.4,58.1c0.7-1,1.4-2,2.2-3
	C319,92.1,292.3,71.7,265.6,51.4z"/>
<path class="st10" d="M353.7,242.9c-18.7,18.4-37.4,36.7-56.1,55.1c1.9,1.9,3.9,3.7,6,5.5c17.8-19.2,35.6-38.4,53.4-57.5
	C355.9,245,354.7,244,353.7,242.9z"/>
<path class="st10" d="M362.7,46.3c5.9,12.1,11.9,24.1,17.8,36.2c1.1-0.6,2.2-1.1,3.3-1.7c-5.5-12.3-11-24.6-16.5-36.8
	C365.7,44.8,364.2,45.5,362.7,46.3z"/>
<path class="st10" d="M358.8,247.5l-66.5,75.1c2.4,2,4.8,4,7.3,6c21-26,41.9-52,62.9-78C361.2,249.5,360,248.5,358.8,247.5z"/>
<path class="st10" d="M329.6,207.3l-72.1,26c0.8,2.1,1.6,4.2,2.5,6.3c23.7-9.6,47.3-19.2,71-28.7
	C330.6,209.7,330.1,208.5,329.6,207.3z"/>
<path class="st10" d="M324.7,163.2c-17.9-1.7-35.9-3.5-53.8-5.2c-0.2,1.9-0.5,3.8-0.6,5.6c18,1.1,36,2.1,54.1,3.2
	C324.4,165.6,324.5,164.4,324.7,163.2z"/>
<path class="st10" d="M324.1,168.7c-22.4-0.9-44.8-1.9-67.2-2.8c-0.1,2-0.3,4.1-0.3,6.1c22.5,0.1,44.9,0.2,67.4,0.3
	C324,171.2,324.1,169.9,324.1,168.7z"/>
<path class="st10" d="M323.9,174.2c-25.8,0.3-51.6,0.7-77.4,1c0,2.2,0,4.4,0,6.5c25.8-1.3,51.6-2.6,77.4-3.9
	C323.9,176.7,323.9,175.5,323.9,174.2z"/>
<path class="st10" d="M324,179.8c-29.1,2-58.2,4-87.4,6c0.1,2.3,0.3,4.6,0.5,6.9c29-3.1,58.1-6.1,87.1-9.2
	C324.1,182.3,324.1,181,324,179.8z"/>
<path class="st10" d="M324.4,185.3c-32.1,4-64.2,8-96.3,11.9c0.3,2.4,0.6,4.8,0.9,7.2c31.9-5.2,63.9-10.3,95.8-15.5
	C324.7,187.8,324.6,186.6,324.4,185.3z"/>
<path class="st10" d="M334.5,218c-27.3,13.6-54.7,27.3-82,40.9c1.2,2.2,2.4,4.4,3.7,6.6c26.7-14.7,53.5-29.4,80.2-44
	C335.7,220.3,335.1,219.1,334.5,218z"/>
<path class="st10" d="M432.7-7.5c-1.1,26.4-2.3,52.8-3.4,79.2c1.3,0.1,2.6,0.2,3.9,0.3c2.2-26.3,4.3-52.6,6.5-79
	C437.3-7.1,435-7.3,432.7-7.5z"/>
<path class="st10" d="M441.8,7.3c-2.2,21.7-4.4,43.3-6.6,65c1.3,0.2,2.6,0.4,4,0.6c3.1-21.5,6.1-43.1,9.2-64.6
	C446.1,7.9,443.9,7.6,441.8,7.3z"/>
<path class="st10" d="M399.7,36.4c2.3,12.3,4.5,24.6,6.8,36.8c1.2-0.2,2.5-0.4,3.7-0.6c-1.8-12.4-3.6-24.7-5.4-37.1
	C403.1,35.7,401.4,36,399.7,36.4z"/>
<path class="st10" d="M453.1,76.5c1.3,0.5,2.7,0.9,4,1.5c5.6-16.6,11.2-33.1,16.9-49.7c-2.1-0.8-4.1-1.5-6.2-2.2
	C463,42.8,458,59.7,453.1,76.5z"/>
<path class="st10" d="M485.6,6.3c-8.8,24.2-17.6,48.3-26.4,72.5c1.4,0.6,2.7,1.1,4.1,1.8c9.8-23.7,19.7-47.4,29.5-71.1
	C490.3,8.3,487.9,7.3,485.6,6.3z"/>
<path class="st10" d="M343.6,28.3c10.7,19,21.4,38,32,57c1.1-0.6,2.1-1.3,3.2-1.9c-10-19.4-20-38.8-30-58.2
	C347.1,26.2,345.4,27.3,343.6,28.3z"/>
<path class="st10" d="M402.6-1.7c3.1,24.7,6.3,49.3,9.4,74c1.2-0.2,2.5-0.3,3.8-0.4c-2.2-24.8-4.5-49.5-6.7-74.3
	C407-2.2,404.8-2,402.6-1.7z"/>
<path class="st10" d="M379.7,32.1c-1.7,0.6-3.4,1.2-5.1,1.9c5.3,14.6,10.6,29.3,15.9,43.9c1.1-0.5,2.3-0.9,3.5-1.3
	C389.2,61.8,384.5,46.9,379.7,32.1z"/>
<path class="st10" d="M414,19.5c1.2,17.4,2.5,34.8,3.7,52.2c1.3-0.1,2.5-0.1,3.8-0.2l-1.7-52.3C417.9,19.3,415.9,19.4,414,19.5z"/>
<path class="st10" d="M388.8,78.6c-9-23.4-18-46.9-26.9-70.3c-2,0.8-4,1.7-5.9,2.6l29.5,69.2C386.5,79.5,387.7,79,388.8,78.6z"/>
<path class="st10" d="M366.5,91.5c1-0.8,2-1.5,3-2.2c-9-13.5-18-27.1-26.9-40.6c-1.5,1.1-3,2.1-4.4,3.3
	C347.6,65.2,357.1,78.3,366.5,91.5z"/>
<path class="st10" d="M395.7,76c1.2-0.4,2.4-0.7,3.5-1.1c-4.9-18.5-9.7-37.1-14.6-55.6c-1.9,0.5-3.7,1.1-5.6,1.7
	C384.7,39.3,390.2,57.7,395.7,76z"/>
<path class="st10" d="M471.4,84.6c1.4,0.8,2.7,1.5,4.1,2.4c10.2-17.3,20.4-34.7,30.6-52c-2.2-1.3-4.4-2.6-6.5-3.8
	C490.1,49,480.8,66.8,471.4,84.6z"/>
<path class="st10" d="M404.7,73.6c-6.7-33-13.4-65.9-20.1-98.8c-2.4,0.5-4.8,1.1-7.2,1.7c7.9,32.7,15.8,65.3,23.7,98
	C402.3,74.1,403.5,73.8,404.7,73.6z"/>
<path class="st10" d="M374.1,86.2l-45-76.8c-2,1.2-3.9,2.5-5.8,3.8c15.9,25,31.8,50,47.8,75C372,87.6,373.1,86.9,374.1,86.2z"/>
<path class="st10" d="M469.3,83.5c14.9-30.1,29.9-60.1,44.8-90.2c-2.7-1.4-5.5-2.8-8.2-4.1c-13.6,30.8-27.1,61.5-40.7,92.3
	C466.6,82.1,468,82.8,469.3,83.5z"/>
<path class="st10" d="M451.1,75.8c8.3-30.6,16.5-61.3,24.8-92c-2.6-0.8-5.2-1.6-7.8-2.3l-21,93.1C448.4,75,449.8,75.4,451.1,75.8z"
	/>
<path class="st10" d="M445.1,74.2c5.6-27.7,11.3-55.4,17-83.1c-2.5-0.6-4.9-1.1-7.3-1.6c-4.5,27.9-9.1,55.9-13.6,83.8
	C442.4,73.5,443.8,73.8,445.1,74.2z"/>
<path class="st10" d="M427.3,71.6c0.7-30.4,1.4-60.7,2.2-91.1c-2.5-0.1-4.9-0.2-7.3-0.2c0.4,30.4,0.9,60.8,1.3,91.2
	C424.8,71.5,426,71.6,427.3,71.6z"/>
<g>
	<g>
		<defs>
			<circle id="SVGID_1_" cx="423.9" cy="172.7" r="100.2"/>
		</defs>
		<clipPath id="SVGID_2_">
			<use xlink:href="#SVGID_1_"  style="overflow:visible;"/>
		</clipPath>
		<path class="st11" d="M340.4,144.7L261.7,113c-0.8,2.3-1.6,4.5-2.3,6.9c26.6,9.5,53.2,18.9,79.9,28.4
			C339.6,147,340,145.8,340.4,144.7z M336.2,161.4c-29.4-5.6-58.8-11.3-88.1-16.9c-0.4,2.7-0.8,5.3-1.1,8.1
			c29.6,4.3,59.1,8.6,88.7,12.8C335.8,164.1,336,162.7,336.2,161.4z M294.3,135.3c-0.5,1.8-1,3.7-1.5,5.6c15,4.3,29.9,8.5,44.9,12.8
			c0.3-1.2,0.6-2.5,1-3.7C323.9,145.1,309.1,140.2,294.3,135.3z M430.6,26.9c-1.9-0.1-3.8-0.1-5.6-0.1c-0.2,20.9-0.4,41.8-0.6,62.8
			c1.1,0,2.2,0,3.3,0.1C428.6,68.7,429.6,47.8,430.6,26.9z M270.9,138.2c-0.5,2.2-1,4.5-1.4,6.8c22.3,4.8,44.7,9.6,67,14.4
			c0.2-1.3,0.5-2.6,0.8-3.9C315.1,149.8,293,144,270.9,138.2z M462.2,63.4c-1.4-0.4-2.9-0.8-4.3-1.2c-3,10.2-6.1,20.4-9.1,30.7
			c1.1,0.3,2.1,0.6,3.2,0.9C455.4,83.6,458.8,73.5,462.2,63.4z M258.2,178.2c0,1.2,0.1,2.5,0.1,3.7c25-1.2,50.1-2.5,75.1-3.7h1.5
			c0,0,0,0,0-0.1h0.1c0-0.7,0-1.4-0.1-2.1c0-0.7,0-1.4,0.1-2.1h-0.1c0,0,0,0,0-0.1h-1.5c-25-1.2-50.1-2.5-75.1-3.7
			c0,1.2-0.1,2.5-0.1,3.7l0,0c0,0.7,0,1.5,0,2.2C258.2,176.7,258.2,177.4,258.2,178.2L258.2,178.2z M407.9,90.8
			c-4.6-25.6-9.2-51.2-13.7-76.8c-2,0.3-4.1,0.7-6.1,1.1c5.5,25.4,11.1,50.9,16.6,76.3C405.7,91.1,406.8,90.9,407.9,90.8z
			 M480.4,61.4c-5.9,12.1-11.8,24.2-17.7,36.3c1,0.4,2,0.9,3,1.4c6.3-11.9,12.7-23.8,19.1-35.7C483.3,62.8,481.9,62.1,480.4,61.4z
			 M461.2,97.1c10.7-22.9,21.3-45.9,32-68.8c-1.9-0.8-3.7-1.6-5.6-2.3c-9.8,23.3-19.6,46.5-29.4,69.8
			C459.2,96.3,460.2,96.7,461.2,97.1z M467.2,99.9c1,0.5,1.9,1,2.9,1.6c8.3-13.7,16.7-27.5,25-41.2c-1.5-0.8-2.9-1.6-4.4-2.4
			C482.8,71.9,475,85.9,467.2,99.9z M282,161c-0.2,2.2-0.4,4.5-0.5,6.7c17.9,1.3,35.7,2.6,53.6,3.9c0.1-1.4,0.2-2.8,0.3-4.2
			C317.6,165.3,299.8,163.2,282,161z M367.4,107.8c-10.6-13.3-21.3-26.7-31.9-40c-1.4,1-2.7,2.1-4.1,3.2
			c11.2,12.9,22.3,25.9,33.4,38.8C365.6,109.1,366.5,108.4,367.4,107.8z M356.4,117.9c-16.5-14.8-32.9-29.6-49.4-44.3
			c-1.3,1.4-2.6,2.9-3.8,4.4c17,14.2,34,28.3,51,42.5C354.9,119.5,355.6,118.7,356.4,117.9z M432.6,90c1.3-12.9,2.7-25.8,4-38.6
			c-1.6-0.1-3.2-0.3-4.7-0.4c-0.8,12.9-1.7,25.8-2.5,38.7C430.4,89.8,431.5,89.9,432.6,90z M437.5,90.5l3.7-23.4
			c-1.4-0.2-2.8-0.4-4.1-0.5c-1,7.8-1.9,15.7-2.9,23.5C435.3,90.2,436.4,90.4,437.5,90.5z M363.5,110.9l-59.7-67
			c-1.7,1.4-3.3,2.9-4.9,4.4c20.7,21.6,41.4,43.2,62.2,64.8C361.9,112.3,362.7,111.6,363.5,110.9z M442.4,91.3
			c3.7-17.2,7.5-34.5,11.2-51.7c-1.7-0.3-3.4-0.6-5.2-0.9c-3.1,17.3-6.2,34.7-9.3,52C440.2,90.9,441.3,91.1,442.4,91.3z
			 M342.4,139.6c-22.8-10.8-45.5-21.6-68.3-32.5c-0.9,2-1.7,4.1-2.5,6.2c23.1,9.9,46.3,19.7,69.4,29.6
			C341.5,141.8,341.9,140.7,342.4,139.6z M353.1,121.7c-12.1-9.7-24.2-19.4-36.4-29.2c-1.1,1.3-2.1,2.7-3.1,4.1l37.4,27.8
			C351.7,123.5,352.4,122.6,353.1,121.7z M293.8,106.7c-0.9,1.7-1.7,3.5-2.6,5.3c17.3,8.7,34.6,17.3,52,26c0.5-1.1,1-2.2,1.6-3.2
			C327.7,125.4,310.7,116,293.8,106.7z M459,79c-1.8,5.1-3.6,10.2-5.4,15.2c1,0.3,2.1,0.7,3.1,1.1c2-5,4-10,6-15
			C461.4,79.8,460.2,79.4,459,79z M336.3,90.6c-1.1,1.1-2.2,2.1-3.2,3.3c8.1,7.6,16.3,15.2,24.4,22.7c0.8-0.8,1.5-1.6,2.3-2.4
			C352,106.4,344.2,98.5,336.3,90.6z M287.5,92.6c-1.1,1.8-2.1,3.6-3.1,5.4c20.4,11.7,40.7,23.5,61.1,35.2c0.6-1,1.1-2,1.7-3
			C327.4,117.6,307.4,105.1,287.5,92.6z M350.1,125.8c-22-15.7-44-31.4-66.1-47.1c-1.2,1.8-2.4,3.6-3.6,5.5
			c22.6,14.8,45.2,29.7,67.8,44.5C348.8,127.7,349.4,126.8,350.1,125.8z M447.2,92.4l16.5-59.8c-1.8-0.5-3.6-0.9-5.4-1.3
			c-4.8,20.1-9.5,40.2-14.3,60.4C445.1,91.9,446.1,92.2,447.2,92.4z M347.3,71c-1.3,0.9-2.6,1.8-3.9,2.8c8.4,11,16.9,22,25.3,33
			c0.9-0.6,1.8-1.3,2.7-1.9C363.4,93.6,355.3,82.3,347.3,71z M412.8,90.1c-1.5-12.1-2.9-24.1-4.4-36.2c-1.5,0.2-3.1,0.4-4.6,0.6
			c1.9,12,3.8,24,5.7,36C410.6,90.4,411.7,90.2,412.8,90.1z M388.9,95.9c-10.3-24.3-20.5-48.6-30.8-73c-1.9,0.7-3.8,1.5-5.7,2.3
			c11.1,23.9,22.3,47.9,33.4,71.8C386.8,96.7,387.8,96.3,388.9,95.9z M549,118.5c-14.8,7-29.6,14.1-44.4,21.1
			c0.5,1.1,0.9,2.2,1.4,3.4c15-6.4,30.1-12.8,45.1-19.3C550.5,121.9,549.8,120.2,549,118.5z M567.3,140.5l-57.5,15.1
			c0.3,1.3,0.5,2.6,0.8,3.9c19.4-4.2,38.7-8.3,58.1-12.5C568.2,144.8,567.8,142.7,567.3,140.5z M541.7,138.9
			c-11.1,3.7-22.3,7.4-33.4,11.1c0.3,1.2,0.7,2.4,1,3.7c11.3-3.2,22.5-6.4,33.8-9.6C542.7,142.4,542.2,140.6,541.7,138.9z
			 M503.9,138c24.3-12.1,48.6-24.3,72.8-36.4c-0.9-2.1-1.9-4.1-3-6.1c-23.8,13.1-47.6,26.2-71.4,39.3
			C502.9,135.8,503.4,136.9,503.9,138z M512,171.7c29.7-2.2,59.3-4.3,88.9-6.5c-0.2-2.8-0.4-5.6-0.6-8.4l-88.6,10.7
			C511.8,168.9,511.9,170.3,512,171.7z M403,91.7c-5-21.3-10.1-42.6-15.1-63.9c-1.9,0.4-3.7,0.8-5.6,1.3
			c5.8,21.1,11.7,42.2,17.5,63.4C400.9,92.2,402,91.9,403,91.7z M531.9,110c-10.7,6.7-21.4,13.5-32.1,20.2c0.6,1,1.2,2,1.7,3
			c10.9-6.3,21.9-12.6,32.8-18.9C533.5,112.8,532.7,111.4,531.9,110z M393.5,94.2c-4.9-13.6-9.7-27.2-14.6-40.8
			c-1.6,0.5-3.1,1-4.6,1.6c5.4,13.4,10.7,26.8,16.1,40.3C391.4,94.9,392.5,94.6,393.5,94.2z M511.4,165.4c23.1-3.3,46.1-6.7,69.2-10
			c-0.3-2.4-0.6-4.8-1-7.2c-22.9,4.4-45.8,8.8-68.7,13.2C511.1,162.7,511.3,164.1,511.4,165.4z M398.2,92.8
			c-5.2-17.5-10.4-35-15.6-52.5c-1.7,0.5-3.4,0.9-5.1,1.5c5.8,17.3,11.7,34.7,17.5,52C396.1,93.4,397.2,93.1,398.2,92.8z
			 M530.3,140.2c-0.5-1.5-1-3-1.5-4.5c-7.4,3-14.8,6-22.2,8.9c0.4,1.2,0.8,2.3,1.2,3.5C515.3,145.6,522.8,142.9,530.3,140.2z
			 M498.9,128.7c19-12.5,38-24.9,57-37.4c-1.1-1.7-2.2-3.4-3.3-5l-55.5,39.6C497.6,126.8,498.2,127.7,498.9,128.7z M530.5,92.4
			c-12.2,9.8-24.4,19.6-36.6,29.4c0.7,0.9,1.4,1.8,2.1,2.7c12.6-9.3,25.1-18.6,37.7-28C532.6,95.1,531.6,93.7,530.5,92.4z
			 M375.6,102.3c-11.9-18.9-23.8-37.7-35.8-56.6c-1.6,1-3.3,2-4.9,3c12.6,18.4,25.2,36.9,37.9,55.3
			C373.7,103.4,374.6,102.8,375.6,102.3z M486,113.1c19.9-20.8,39.9-41.6,59.8-62.3c-1.6-1.5-3.2-2.9-4.8-4.3
			c-19.2,21.4-38.3,42.9-57.5,64.4C484.4,111.6,485.2,112.3,486,113.1z M478.3,106.8c14-18.2,28-36.5,42-54.7
			c-1.6-1.1-3.2-2.3-4.8-3.3c-13.3,18.7-26.6,37.4-39.9,56.2C476.6,105.5,477.5,106.1,478.3,106.8z M358.8,45.5
			c-1.7,0.7-3.3,1.5-4.9,2.3c9.1,17.1,18.3,34.2,27.4,51.4c1-0.5,2-0.9,3-1.4L358.8,45.5z M482.2,109.8
			c16.9-19.7,33.9-39.4,50.8-59.2c-1.6-1.3-3.2-2.6-4.8-3.8c-16.2,20.3-32.4,40.6-48.6,60.9C480.5,108.4,481.4,109.1,482.2,109.8z
			 M492.9,120.4c15.2-12.6,30.4-25.3,45.5-37.9c-1.2-1.4-2.4-2.8-3.6-4.2l-44.1,39.6C491.4,118.7,492.1,119.5,492.9,120.4z M415.2,0
			c1.4,29.9,2.8,59.8,4.2,89.6c1.1,0,2.2-0.1,3.3-0.1c-0.3-29.9-0.6-59.8-0.8-89.7C419.6-0.2,417.4-0.1,415.2,0z M417.7,89.7
			c-0.9-14.5-1.9-29.1-2.8-43.6c-1.6,0.1-3.3,0.2-4.9,0.4c1.5,14.5,3,29,4.5,43.5C415.5,89.9,416.6,89.8,417.7,89.7z M474.3,104
			c11.3-16.5,22.6-33,33.9-49.5c-1.5-1-3.1-1.9-4.7-2.9c-10.7,16.9-21.3,33.8-32,50.6C472.4,102.8,473.4,103.4,474.3,104z
			 M537.9,63.3l-50.7,50.9c0.8,0.8,1.6,1.6,2.3,2.4L542,67.5C540.8,66.1,539.4,64.7,537.9,63.3z M362.4,68.5c-1.4,0.7-2.7,1.4-4,2.2
			l18.6,30.7c1-0.5,1.9-1.1,2.9-1.6C374,89.4,368.2,79,362.4,68.5z M480.4,290.5c1.5-0.6,2.9-1.3,4.3-2
			c-6.4-11.9-12.7-23.8-19.1-35.7c-1,0.5-2,0.9-3,1.4C468.6,266.3,474.5,278.4,480.4,290.5z M549,233.4c0.7-1.7,1.5-3.4,2.1-5.2
			c-15-6.4-30.1-12.8-45.1-19.3c-0.4,1.1-0.9,2.3-1.4,3.4C519.4,219.3,534.2,226.4,549,233.4z M543.1,207.8
			c-11.3-3.2-22.5-6.4-33.8-9.6c-0.3,1.2-0.6,2.5-1,3.7c11.1,3.7,22.3,7.4,33.4,11.1C542.2,211.3,542.7,209.6,543.1,207.8z
			 M528.8,216.2c0.5-1.5,1-3,1.5-4.5c-7.5-2.7-15-5.3-22.5-8c-0.4,1.2-0.8,2.4-1.2,3.5C514,210.2,521.4,213.2,528.8,216.2z
			 M556.7,173.7c0-0.7,0-1.4-0.1-2.1c-14.3,0.7-28.7,1.4-43,2.1h-1.5c0,0,0,0,0,0.1H512c0,0.7,0,1.4,0.1,2.1c0,0.7,0,1.4-0.1,2.1
			h0.1c0,0,0,0,0,0.1h1.5c14.3,0.7,28.7,1.4,43,2.1c0-0.7,0-1.4,0.1-2.1h0.1c0-0.7,0-1.5,0-2.2C556.7,175.2,556.7,174.5,556.7,173.7
			L556.7,173.7z M568.6,204.9c-20.8-4.5-39.8-8.6-58.1-12.5c-0.2,1.3-0.5,2.6-0.8,3.9l57.5,15.1
			C567.8,209.2,568.2,207.1,568.6,204.9z M490.7,234.1c14.7,13.2,29.4,26.4,44.1,39.6c1.2-1.4,2.5-2.8,3.6-4.2
			c-15.2-12.6-30.4-25.3-45.5-37.9C492.1,232.4,491.4,233.2,490.7,234.1z M531.9,241.9c0.8-1.4,1.7-2.9,2.5-4.3
			c-10.9-6.3-21.9-12.6-32.8-18.9c-0.6,1-1.1,2-1.7,3C510.5,228.5,521.2,235.2,531.9,241.9z M493.9,230.2
			c12.2,9.8,24.4,19.6,36.6,29.4c1.1-1.3,2.1-2.7,3.1-4.1c-12.6-9.3-25.1-18.6-37.7-27.9C495.3,228.4,494.6,229.3,493.9,230.2z
			 M457.9,289.7c1.4-0.4,2.9-0.8,4.3-1.2c-3.4-10.1-6.8-20.2-10.2-30.3c-1,0.3-2.1,0.6-3.2,0.9C451.8,269.3,454.9,279.5,457.9,289.7
			z M456.6,256.6c-1,0.4-2.1,0.7-3.1,1.1c1.8,5.1,3.6,10.2,5.4,15.2c1.2-0.4,2.5-0.8,3.7-1.3C460.6,266.6,458.6,261.6,456.6,256.6z
			 M537.9,288.6c1.4-1.4,2.8-2.8,4.2-4.3l-52.6-49.1c-0.8,0.8-1.5,1.6-2.3,2.4L537.9,288.6z M424.3,262.4
			c0.2,20.9,0.4,41.8,0.6,62.8c1.9,0,3.8-0.1,5.6-0.1c-1-20.9-1.9-41.8-2.9-62.7C426.5,262.3,425.4,262.4,424.3,262.4z M398.2,259.1
			c-1.1-0.3-2.1-0.6-3.2-0.9c-5.8,17.3-11.7,34.7-17.5,52c1.7,0.5,3.4,1,5.1,1.5C387.9,294.1,393,276.6,398.2,259.1z M429.3,262.2
			c0.8,12.9,1.7,25.8,2.5,38.7c1.6-0.1,3.2-0.2,4.7-0.4c-1.3-12.9-2.6-25.8-4-38.6C431.5,262.1,430.4,262.1,429.3,262.2z
			 M434.2,261.8c1,7.8,1.9,15.7,2.9,23.5c1.4-0.2,2.8-0.3,4.1-0.5l-3.7-23.4C436.4,261.5,435.3,261.7,434.2,261.8z M439.1,261.1
			c3.1,17.3,6.2,34.7,9.3,52c1.7-0.3,3.5-0.6,5.2-0.9c-3.7-17.2-7.5-34.5-11.2-51.7C441.3,260.8,440.2,261,439.1,261.1z M444,260.2
			c4.8,20.1,9.5,40.2,14.3,60.4c1.8-0.4,3.6-0.8,5.4-1.3c-5.5-19.9-11-39.9-16.5-59.8C446.1,259.8,445.1,260,444,260.2z
			 M404.7,260.6c-5.5,25.4-11.1,50.9-16.6,76.3c2,0.4,4.1,0.8,6.1,1.1l13.7-76.8C406.8,261,405.7,260.8,404.7,260.6z M399.8,259.5
			c-5.8,21.1-11.7,42.2-17.5,63.4c1.9,0.5,3.7,0.9,5.6,1.3c5-21.3,10.1-42.6,15.1-63.9C402,260,400.9,259.8,399.8,259.5z M458.2,256
			c9.8,23.3,19.6,46.5,29.4,69.8c1.9-0.7,3.8-1.5,5.6-2.3c-10.7-22.9-21.3-45.8-32-68.8C460.2,255.2,459.2,255.7,458.2,256z
			 M409.5,261.4c-1.9,12-3.8,24-5.7,36c1.5,0.2,3.1,0.4,4.6,0.6c1.5-12,2.9-24.1,4.4-36.2C411.7,261.7,410.6,261.5,409.5,261.4z
			 M414.5,262c-1.5,14.5-3,29-4.5,43.5c1.6,0.2,3.3,0.3,4.9,0.4c1-14.5,1.9-29.1,2.8-43.6C416.6,262.1,415.5,262.1,414.5,262z
			 M415.2,351.9c2.2,0.1,4.4,0.2,6.6,0.2c0.3-29.9,0.6-59.8,0.8-89.7c-1.1,0-2.2,0-3.3-0.1C418,292.2,416.6,322,415.2,351.9z
			 M510.9,190.5c22.9,4.4,45.8,8.8,68.7,13.2c0.4-2.4,0.7-4.8,1-7.2c-23.1-3.3-46.1-6.7-69.2-10
			C511.3,187.8,511.1,189.2,510.9,190.5z M362.4,283.4c5.8-10.4,11.6-20.9,17.5-31.3c-1-0.5-1.9-1-2.9-1.6
			c-6.2,10.2-12.4,20.5-18.6,30.7C359.7,281.9,361,282.7,362.4,283.4z M511.6,184.4l88.6,10.7c0.3-2.8,0.5-5.6,0.6-8.4
			c-29.6-2.2-59.3-4.4-88.9-6.5C511.9,181.6,511.8,183,511.6,184.4z M497,226.1l55.5,39.6c1.1-1.6,2.3-3.3,3.3-5
			c-19-12.5-38-24.9-57-37.4C498.2,224.2,497.6,225.2,497,226.1z M467.2,252c7.8,14,15.6,28,23.4,42c1.5-0.8,3-1.6,4.4-2.4
			c-8.3-13.7-16.7-27.5-25-41.2C469.1,251,468.1,251.5,467.2,252z M471.5,249.6c10.7,16.9,21.3,33.8,32,50.6
			c1.6-0.9,3.1-1.9,4.7-2.9c-11.3-16.5-22.6-33-33.9-49.5C473.4,248.5,472.4,249.1,471.5,249.6z M475.6,247
			c13.3,18.7,26.6,37.4,39.9,56.2c1.6-1.1,3.2-2.2,4.8-3.3c-14-18.2-28-36.5-42-54.7C477.5,245.8,476.6,246.4,475.6,247z
			 M479.7,244.1c16.2,20.3,32.4,40.6,48.6,60.9c1.6-1.2,3.2-2.5,4.8-3.8c-16.9-19.7-33.9-39.4-50.8-59.2
			C481.4,242.8,480.5,243.5,479.7,244.1z M483.5,241c19.2,21.5,38.3,43,57.5,64.4c1.6-1.4,3.2-2.9,4.8-4.3
			c-19.9-20.8-39.9-41.5-59.8-62.3C485.2,239.6,484.4,240.3,483.5,241z M502.3,217.2c23.8,13.1,47.6,26.2,71.4,39.3c1-2,2-4,3-6.1
			c-24.3-12.1-48.6-24.3-72.8-36.4C503.4,215,502.9,216.1,502.3,217.2z M287.5,259.3c19.9-12.5,39.8-25.1,59.7-37.6
			c-0.6-1-1.2-2-1.7-3c-20.4,11.7-40.7,23.5-61.1,35.2C285.4,255.8,286.5,257.6,287.5,259.3z M293.8,245.2c17-9.4,34-18.7,51-28.1
			c-0.5-1.1-1.1-2.1-1.6-3.2c-17.3,8.7-34.6,17.3-52,26C292,241.7,292.9,243.5,293.8,245.2z M336.3,261.3
			c7.8-7.9,15.7-15.7,23.5-23.6c-0.8-0.8-1.6-1.6-2.3-2.4c-8.1,7.6-16.3,15.2-24.4,22.7C334.2,259.1,335.2,260.2,336.3,261.3z
			 M338.7,201.9c-0.3-1.2-0.7-2.4-1-3.7c-15,4.3-29.9,8.5-44.9,12.8c0.5,1.9,1,3.8,1.5,5.6C309.1,211.7,323.9,206.8,338.7,201.9z
			 M270.9,213.7c22.1-5.8,44.3-11.6,66.4-17.4c-0.3-1.3-0.5-2.6-0.8-3.9c-22.3,4.8-44.7,9.6-67,14.4
			C269.9,209.2,270.4,211.4,270.9,213.7z M358.8,306.4c8.5-17.4,17-34.8,25.5-52.3c-1-0.4-2-0.9-3-1.4
			c-9.1,17.1-18.3,34.2-27.4,51.4C355.5,304.9,357.2,305.7,358.8,306.4z M307,278.4c16.5-14.8,32.9-29.6,49.4-44.3
			c-0.8-0.8-1.5-1.7-2.2-2.5c-17,14.2-34,28.3-51,42.5C304.4,275.5,305.7,277,307,278.4z M343.4,278.1c1.3,0.9,2.6,1.9,3.9,2.8
			c8-11.3,16.1-22.6,24.1-33.8c-0.9-0.6-1.8-1.2-2.7-1.9C360.3,256.1,351.8,267.1,343.4,278.1z M316.7,259.4
			c12.1-9.7,24.2-19.4,36.4-29.2c-0.7-0.9-1.4-1.8-2.1-2.7l-37.4,27.8C314.6,256.7,315.7,258,316.7,259.4z M372.8,247.9
			c-12.6,18.4-25.2,36.9-37.9,55.3c1.6,1,3.2,2,4.9,3l35.8-56.6C374.6,249.1,373.7,248.5,372.8,247.9z M393.5,257.7
			c-1-0.3-2.1-0.7-3.1-1.1c-5.4,13.4-10.7,26.8-16.1,40.3c1.5,0.6,3.1,1.1,4.6,1.6C383.8,284.9,388.6,271.3,393.5,257.7z
			 M367.4,244.1c-0.9-0.7-1.7-1.3-2.6-2c-11.1,12.9-22.2,25.9-33.4,38.8c1.3,1.1,2.7,2.2,4.1,3.2
			C346.1,270.8,356.7,257.5,367.4,244.1z M335.4,184.4c-0.1-1.4-0.2-2.8-0.3-4.2c-17.9,1.3-35.7,2.6-53.6,3.9
			c0.1,2.3,0.3,4.5,0.5,6.7C299.8,188.7,317.6,186.6,335.4,184.4z M361.1,238.8c-20.7,21.6-41.4,43.2-62.2,64.8
			c1.6,1.5,3.3,3,4.9,4.4c19.9-22.3,39.8-44.7,59.7-67C362.7,240.3,361.9,239.6,361.1,238.8z M385.8,254.8l-33.4,71.8
			c1.9,0.8,3.8,1.6,5.7,2.3c10.2-24.3,20.5-48.6,30.7-72.9C387.8,255.7,386.8,255.2,385.8,254.8z M335.6,186.5
			c-29.6,4.3-59.1,8.6-88.7,12.8c0.3,2.7,0.7,5.4,1.1,8.1c29.4-5.6,58.8-11.3,88.1-16.9C336,189.2,335.8,187.8,335.6,186.5z
			 M339.2,203.7c-26.6,9.5-53.2,18.9-79.9,28.4c0.7,2.3,1.5,4.6,2.3,6.9l78.8-31.7C340,206.1,339.6,204.9,339.2,203.7z M341,208.9
			c-23.1,9.9-46.3,19.7-69.4,29.6c0.8,2.1,1.7,4.2,2.5,6.2c22.8-10.8,45.5-21.6,68.3-32.5C341.9,211.2,341.5,210.1,341,208.9z
			 M348.2,223.2c-22.6,14.8-45.2,29.7-67.8,44.5c1.2,1.9,2.4,3.7,3.6,5.5c22-15.7,44-31.4,66.1-47.1
			C349.4,225.2,348.8,224.2,348.2,223.2z"/>
	</g>
</g>
<path d="M458.8,131.5v24.8v12.4c0,6.8-2.4,12.7-7.3,17.5s-10.7,7.3-17.5,7.3s-12.7-2.4-17.5-7.3c-4.8-4.8-7.3-10.7-7.3-17.5v-12.4
	v-24.8h12.4v24.8v11.1v1.3c0,3.4,1.2,6.3,3.6,8.8c2.4,2.4,5.3,3.6,8.8,3.6c3.4,0,6.3-1.2,8.7-3.6c2.4-2.4,3.7-5.3,3.7-8.8v-1.3
	v-11.1v-24.8C446.4,131.5,458.8,131.5,458.8,131.5z"/>
<path d="M492.5,131.5H508v12.4h-15.5v49.6h-12.4v-49.6h-15.5v-12.4h15.5C480.1,131.5,492.5,131.5,492.5,131.5z"/>
<path class="st12" d="M361.1,127.8c1.6-0.3,3.2-0.1,4.8-0.1c1,0.2,2.1,0.1,3.2,0.4c1.9,0.2,3.8,0.7,5.7,1.2c2.7,0.9,5.4,1.9,7.8,3.5
	c1.9,1,3.6,2.4,5.3,3.7c0.4,0.4,0.7,0.8,1.2,1.1c0.8,0.5,1.3,1.3,2.1,1.8c0.2,0.8,1.1,1.2,1.6,1.9c0.5,0.8,1.2,1.4,1.7,2.2
	c1.2,1.7,2.2,3.5,3.2,5.3c0.4,1,0.9,2,1.2,3.1c0.3,0.9,0.7,1.7,0.9,2.7c0.4,1.7,0.9,3.5,1.1,5.2c0.2,0.9,0.1,1.8,0.3,2.6
	c0.1,1.3,0,2.6,0,3.9c0,0.8-0.3,1.5-0.2,2.2c-0.2,2.3-0.7,4.6-1.3,6.8c-1,2.9-2,5.8-3.7,8.4c-0.9,1.7-2.1,3.2-3.3,4.7
	c-1.2,1.2-2.1,2.6-3.5,3.6c-0.5,0.4-0.9,0.9-1.4,1.2c-1.1,0.8-2.2,1.7-3.3,2.4c-0.8,0.7-1.7,1-2.5,1.6c-4.6,2.4-9.7,4-14.9,4.3
	c-0.9,0.2-1.9,0.1-2.8,0.1c-1.1,0-2.1,0.1-3.2-0.2c-2.7-0.1-5.4-0.7-8-1.5c-1-0.4-2-0.7-3-1.1c-3.2-1.4-6.2-3.1-9-5.3
	c-0.9-0.5-1.4-1.4-2.3-2c-0.8-0.7-1.5-1.4-2.1-2.2c-2.2-2.2-3.9-5-5.5-7.7c-1-2.1-1.8-4.3-2.6-6.5c-0.6-2.5-1.3-5-1.3-7.6
	c-0.3-1.5-0.1-3.1-0.2-4.6c-0.1-0.7,0.2-1.4,0.2-2c0.2-2.7,0.9-5.3,1.5-7.9c0.5-0.7,0.6-1.5,0.9-2.3c0.4-1,0.9-2.1,1.4-3
	c0.3-0.7,0.8-1.3,1.1-2.1c0.9-1.1,1.5-2.4,2.4-3.5c0.5-0.6,0.9-1.2,1.4-1.7c0.7-0.6,1.1-1.4,1.9-2c0.6-0.7,1.4-1.1,2-1.8
	s1.5-1.2,2.2-1.8c2.8-2,5.7-3.7,8.9-4.8c0.9-0.2,1.6-0.7,2.5-0.9C355.9,128.5,358.5,127.9,361.1,127.8L361.1,127.8z"/>
<path class="st13" d="M361,125.7c1.4-0.3,2.8-0.1,4.3-0.2c0.9-0.1,1.7,0.3,2.6,0.2c1.9,0.4,3.8,0.5,5.6,1.1c0.4,0.1,0.8,0.6,1.1,0.1
	c0.3,0.4,0.7,0.8,1.2,0.5c1,0.5,2,0.7,3.1,1.2c0.9,0.3,1.8,0.8,2.7,1.2c0.5,0.1,0.8,0.5,1.2,0.7c0.6,0.3,1.2,0.5,1.6,1
	c0.9,0.2,1.6,1,2.4,1.4c0.9,0.7,1.9,1.3,2.6,2.2c1.4,0.8,2.3,2.3,3.6,3.2c1.8,1.9,3.2,4.1,4.6,6.1c0.5,0.5,0.6,1.3,1,1.8
	c0.5,0.8,1,1.5,1.2,2.4c0.5,0.9,0.7,1.9,1.1,2.9c0.7,1.4,0.8,3,1.5,4.4c-0.3,0.8,0.6,1.6,0.1,2.4c0.1,0.2,0.3,0.4,0.4,0.6
	c0,0.9,0.3,1.8,0.2,2.8c0.4,1.7,0.1,3.4,0.2,5c-0.2,1.1-0.2,2.3-0.4,3.4c0,1.1-0.4,2.1-0.5,3.1c-0.3,1.2-0.6,2.4-1,3.6
	c-0.5,1.2-0.7,2.6-1.4,3.8c-0.4,1.1-0.7,2.2-1.5,3.1c-0.7,1.3-1.5,2.6-2.4,3.8c-0.6,0.9-1.2,1.8-2,2.6c-1.1,1.5-2.6,2.6-3.8,4
	c-0.4,0.3-1,0.6-1.3,1c-0.6,0.7-1.4,1-2.1,1.5c-1.3,1-2.7,2-4.2,2.8c-0.5,0.2-0.9,0.7-1.5,0.6c-0.2,0.2-0.3,0.3-0.5,0.4
	c-1,0.4-2,1-3.1,1.2c-0.5,0.1-0.8,0.5-1.3,0.6c-1.4,0.4-2.8,0.8-4.2,1.1c-0.4,0.1-0.8,0-1.1,0.3c-1.8,0.2-3.5,0.4-5.3,0.6
	c-1.6-0.1-3.2,0.2-4.8-0.2c-1.3,0-2.6-0.3-3.9-0.4c-1-0.3-2-0.4-3-0.7c-1.2-0.3-2.4-0.9-3.6-1.2c-1.6-0.6-3.1-1.3-4.7-2
	c-0.5-0.4-1-0.7-1.7-0.9c-0.8-0.6-1.6-1.2-2.5-1.7c-0.6-0.6-1.4-0.8-1.9-1.5c-0.5-0.6-1.4-0.9-1.9-1.5c-1.3-1.4-2.7-2.6-3.9-4.1
	c-1.1-1-1.8-2.4-2.7-3.5c-0.6-1-1.2-2-1.8-3.1c-1.2-1.9-1.9-4-2.7-6.1c-0.3-0.7-0.3-1.4-0.6-2c-0.4-0.8-0.4-1.7-0.6-2.6
	c-0.1-1-0.5-1.9-0.5-2.9c-0.1-0.5-0.3-0.9-0.2-1.4c0.1-0.7-0.2-1.4-0.2-2.1c0.1-1.5-0.2-3.1,0.2-4.6c0.1-2.7,0.8-5.3,1.4-7.8
	c0.6-1.3,0.8-2.8,1.5-4.1c0.5-1,0.8-2.1,1.4-3c0.6-0.9,0.9-2,1.5-2.9s1.2-1.7,1.8-2.6c0.7-0.8,1.4-1.6,1.9-2.5
	c1.3-1.1,2.5-2.3,3.6-3.6c0.7-0.5,1.5-0.9,2-1.5c0.6-0.7,1.6-1,2.3-1.7c1.1-1,2.6-1.4,3.8-2.2c0.7-0.5,1.6-0.8,2.4-1
	c1.3-0.9,2.9-1.1,4.3-1.7c0.6-0.3,1.3-0.1,1.8-0.5c0.3-0.2,0.7-0.1,1.1-0.2C357.5,126,359.3,125.8,361,125.7L361,125.7z"/>
<path class="st12" d="M360.7,130.5c3-0.4,6.1-0.1,9,0.3c1.8,0.4,3.7,0.7,5.5,1.4c1.7,0.7,3.4,1.3,5.1,2.2c1.1,0.8,2.5,1.3,3.5,2.2
	c0.8,0.7,1.7,1.2,2.5,1.9c1,0.9,2,1.7,2.8,2.7c0.5,0.6,1.2,1.2,1.6,1.9c0.4,0.7,1,1.1,1.4,1.8c0.5,0.9,1.2,1.7,1.6,2.6
	c0.8,1.3,1.4,2.7,2,4.1c0.2,0.8,0.5,1.5,0.9,2.2c0.7,2.6,1.4,5.3,1.5,8c0.2,1.4,0.1,2.9,0.1,4.4c-0.2,1.5-0.2,3.1-0.6,4.6
	c-0.1,1.3-0.7,2.6-0.9,3.9c-0.6,1.8-1.4,3.5-2.1,5.3c-0.6,1.1-1.2,2.1-1.9,3.1c-0.3,0.6-0.9,1.1-1.1,1.7c-0.7,0.6-1.1,1.4-1.7,2.1
	c-0.9,0.8-1.5,1.8-2.5,2.5c-1.4,1.4-3,2.6-4.7,3.7c-1.5,0.9-2.9,1.9-4.6,2.5c-0.6,0.2-1.3,0.5-1.8,0.9c-0.2,0-0.5,0-0.7,0.1
	c-1.4,0.6-2.9,0.9-4.3,1.4c-1.3,0.1-2.5,0.5-3.8,0.5c-0.8,0-1.5,0.3-2.2,0.2c-1.3-0.1-2.7,0.1-4-0.2c-1.4,0.1-2.9-0.4-4.3-0.5
	c-1.1-0.3-2.2-0.6-3.3-0.8c-2.9-1.1-5.8-2.2-8.4-4.1c-3.7-2.3-6.8-5.4-9.3-8.9c-0.9-1.1-1.4-2.4-2.2-3.5c-1.3-2.6-2.4-5.2-3.1-8
	c-0.4-1.8-0.7-3.7-0.8-5.6c-0.3-1.5,0-3-0.2-4.5c-0.1-0.5,0.2-1,0.2-1.5c0.1-1.2,0.2-2.3,0.5-3.4c0.2-1.4,0.6-2.7,1-4.1
	c0.4-0.7,0.6-1.6,1-2.4c0.7-1.4,1.2-2.8,2-4.1c2.5-4.2,5.8-8,9.9-10.7c2.8-2.1,6.1-3.5,9.4-4.8c1.6-0.5,3.2-0.7,4.8-1.1
	C359.1,130.6,359.9,130.6,360.7,130.5L360.7,130.5z"/>
<path class="st13" d="M361.7,131.6c1-0.2,2-0.1,2.9-0.1c0.7,0,1.4,0,2.1,0.2c5.9,0.3,11.5,2.6,16.3,5.8c1,0.9,2.2,1.6,3.1,2.6
	c1.4,1,2.4,2.4,3.5,3.6c1.4,1.8,2.8,3.7,3.8,5.9c1.9,3.5,3,7.5,3.5,11.5c0,0.6,0.1,1.2,0.2,1.9c0.3,7.4-1.8,14.9-6.1,20.9
	c-0.7,0.9-1.3,1.9-2.2,2.7c-0.9,1.2-2,2.2-3.2,3.2c-0.8,0.9-1.9,1.5-2.9,2.3c-2.5,1.7-5.2,3-8,4.1c-4.1,1.3-8.4,2-12.7,1.8
	c-0.9-0.2-1.9-0.1-2.8-0.3c-5.1-0.7-10-2.7-14.2-5.5c-2.1-1.6-4.2-3.1-5.8-5.2c-0.6-0.6-1.2-1.3-1.7-2c-1.5-1.7-2.5-3.8-3.5-5.7
	c-0.5-1.3-1.2-2.5-1.6-3.8c-0.8-2.6-1.5-5.2-1.6-7.9c-0.3-1.2-0.1-2.5-0.2-3.7c-0.1-0.8,0.2-1.6,0.2-2.4c0.5-5.6,2.6-10.9,5.7-15.5
	c2-2.8,4.3-5.4,7.1-7.4c0.9-0.8,2-1.4,3-2C351.3,133.6,356.4,132,361.7,131.6L361.7,131.6z"/>
<path class="st12" d="M361.7,133.8c0.8-0.2,1.6-0.1,2.3-0.1c2.4-0.1,4.7,0.4,7.1,0.8c0.4,0.1,0.8,0.3,1.2,0.4
	c2.7,0.7,5.2,1.9,7.6,3.2c0.9,0.7,2,1.3,2.9,2.1c1.7,1.3,3.3,2.8,4.7,4.4c1,1,1.7,2.3,2.5,3.4c0.7,0.7,0.9,1.7,1.4,2.5
	c0.8,1.8,1.7,3.7,2.2,5.6c0.5,1.4,0.6,2.9,1,4.4c0.2,0.5,0,1,0.1,1.6c0.3,1.2,0.1,2.4,0.1,3.6c0.1,0.7-0.2,1.4-0.2,2
	c-0.6,6.6-3.4,12.9-7.9,17.8c-1.2,1.4-2.6,2.5-3.9,3.7c-1.3,0.9-2.6,2-4.1,2.6c-1.2,0.8-2.6,1.2-3.9,1.9c-0.7,0.3-1.5,0.5-2.2,0.7
	c-2.3,0.8-4.7,0.9-7.1,1.3c-1.4,0-2.9,0.1-4.3-0.1c-1.7-0.1-3.3-0.5-4.9-0.8c-0.9-0.4-1.8-0.5-2.7-0.8c-1.6-0.6-3.2-1.3-4.7-2.2
	c-1.4-0.6-2.6-1.6-3.8-2.5c-2.8-2.2-5.3-4.7-7.1-7.7c-0.6-0.8-1-1.7-1.5-2.5c-1.8-3.7-3.1-7.6-3.3-11.8c-0.3-1.2-0.1-2.4-0.2-3.6
	c-0.1-0.7,0.2-1.4,0.2-2c0-1.5,0.5-3,0.7-4.4c0.5-1.4,0.8-2.8,1.4-4.1c0.5-1.1,0.8-2.3,1.6-3.3c1-2.1,2.5-3.9,4-5.7
	c0.6-0.7,1.3-1.3,1.9-2c0.9-0.8,1.8-1.5,2.7-2.2c1.2-0.7,2.4-1.7,3.7-2.3c0.9-0.7,2-1,3-1.5c0.9-0.4,1.9-0.8,2.9-1.1
	c0.9-0.2,1.7-0.6,2.5-0.6C358.8,134.1,360.3,133.9,361.7,133.8L361.7,133.8z"/>
<path class="st13" d="M361.3,135c1.4-0.2,2.7-0.1,4.1-0.2c2.1,0.3,4.2,0.4,6.2,1c4.8,1.2,9.2,3.7,12.8,7.1c4.6,4.2,7.8,10,8.9,16.2
	c0.3,1.2,0.2,2.4,0.5,3.6c0.2,3.9-0.3,7.7-1.5,11.4c-0.7,2-1.6,3.9-2.7,5.7c-4.8,8.1-13.5,13.7-22.9,14.4c-1.4,0.3-2.9,0.1-4.3,0.2
	c-1-0.1-2-0.3-3-0.4c-4.9-0.7-9.6-2.8-13.5-5.8c-1.6-1.2-3-2.7-4.4-4.1c-0.5-0.7-1.2-1.2-1.5-2c-0.7-0.7-1.2-1.6-1.7-2.4
	c-1.4-2.3-2.4-4.7-3.1-7.3c-0.6-1.9-0.8-4-1.1-6c-0.3-7.4,2-15,6.8-20.7c2.4-2.9,5.3-5.4,8.6-7.2C353.2,136.6,357.2,135.4,361.3,135
	L361.3,135z"/>
<path class="st14" d="M361.7,137.2c7.1-0.6,14.4,1.7,19.9,6.3c2.2,1.7,4,4,5.6,6.3c0.7,1.3,1.3,2.6,2,3.9c1.7,3.8,2.4,7.9,2.3,12
	c-0.2,3.7-1.1,7.3-2.6,10.6c-0.6,0.8-0.8,1.8-1.4,2.6c-2.3,3.8-5.6,7.1-9.4,9.4c-1.5,0.8-3,1.6-4.6,2.1c-1.9,0.9-4,1.2-6,1.6
	c-1.2,0.1-2.3,0.3-3.5,0.2c-1.3,0.1-2.6-0.1-3.9-0.2c-2-0.4-3.9-0.7-5.7-1.5c-3.4-1.2-6.4-3.1-9.1-5.4c-0.9-0.7-1.6-1.7-2.4-2.4
	c-0.6-0.8-1.2-1.7-1.8-2.4c-1.8-2.6-3.1-5.6-3.9-8.7c-0.5-2.4-0.9-4.9-0.9-7.4c0.1-6,2.2-11.9,5.9-16.6c2.9-3.8,6.8-6.6,11.2-8.5
	c1.6-0.5,3.1-1.2,4.8-1.4C359.4,137.5,360.5,137.3,361.7,137.2L361.7,137.2z"/>
<path class="st13" d="M361.9,138.3c5-0.4,10.1,0.7,14.5,3c0.7,0.5,1.6,0.9,2.3,1.4c1.4,1,2.8,2.1,4,3.3c4.2,4.2,6.9,9.8,7.6,15.7
	c0,0.7,0.3,1.5,0.2,2.2c-0.1,1,0.1,2-0.1,3c-0.4,5.2-2.5,10.2-5.7,14.2c-0.7,1.1-1.8,2-2.7,3c-0.7,0.7-1.6,1.3-2.4,1.9
	c-1.1,0.9-2.3,1.5-3.5,2.2c-3,1.5-6.3,2.5-9.7,2.8c-1.1,0.3-2.3,0.1-3.4,0.1c-4.4-0.3-8.9-1.5-12.7-3.9c-1.4-0.8-2.6-1.8-3.9-2.8
	c-1.7-1.5-3-3.2-4.3-5c-0.8-1.7-2-3.1-2.6-4.9c-0.9-2.1-1.5-4.3-1.8-6.6c0-0.9-0.3-1.8-0.2-2.8c0.1-0.9-0.1-1.9,0.1-2.9
	c0.6-8.4,5.6-16.3,12.8-20.5C353.8,139.9,357.8,138.6,361.9,138.3L361.9,138.3z"/>
<path class="st14" d="M361.9,140.5c5.6-0.5,11.3,1.1,15.9,4.3c0.6,0.5,1.3,0.9,1.9,1.5c0.8,0.9,1.8,1.5,2.6,2.5
	c5.1,5.7,7.3,13.8,5.5,21.3c-0.4,1.7-0.9,3.5-1.7,5c-1.9,4.1-5,7.7-8.9,10.1c-0.7,0.3-1.2,0.7-1.8,1.1c-3.1,1.7-6.6,2.5-10,2.8
	c-4.7,0.1-9.6-1-13.6-3.5c-1.4-0.8-2.8-1.8-4-2.9c-0.8-0.8-1.4-1.8-2.3-2.5c-0.8-0.9-1.4-2-2.1-2.9c-2.1-3.5-3.3-7.5-3.5-11.6
	c0.1-1.1-0.1-2.2,0.2-3.2c0.1-1.6,0.5-3.1,0.9-4.7c0.3-0.8,0.4-1.6,0.8-2.3c0.5-1.2,1.1-2.5,1.8-3.6c1.3-1.7,2.5-3.5,4.2-4.9
	c1.4-1.4,3.1-2.5,4.8-3.5C355.4,141.7,358.6,140.8,361.9,140.5L361.9,140.5z"/>
<path class="st12" d="M360.9,141.6c0.5,0,1-0.1,1.5-0.2c2.3-0.1,4.7,0.1,7,0.6c1.1,0.4,2.3,0.5,3.3,1.2c-0.1,0-0.3,0-0.4,0
	c-2.4-1-4.9-1.4-7.5-1.6c-3.5-0.1-7.1,0.6-10.4,2.1c-0.9,0.3-1.6,0.9-2.4,1.2c0.1-0.3,0.4-0.4,0.6-0.6
	C355.2,142.9,358,142.1,360.9,141.6L360.9,141.6z"/>
<path class="st13" d="M354.4,143.8c3.2-1.5,6.8-2.2,10.4-2.1c2.5,0.2,5.1,0.6,7.5,1.6c0.1,0,0.3,0,0.4,0s0.2,0.1,0.3,0.2
	c1.1,0.7,2.3,1.3,3.5,1.9c2,1.2,3.6,2.8,5.2,4.5c1.2,1.5,2.2,3.2,3.1,4.9c0.4,1.1,1,2.1,1.2,3.2c0.1,1,0.5,2,0.6,3
	c0.1,1.2,0.4,2.5,0.4,3.8c0.1,2.9-0.7,5.8-1.6,8.6c-0.1,0.3-0.2,0.6-0.4,0.9c-0.5,1-1.1,2-1.7,3c-0.3,0.5-0.7,0.9-0.9,1.5
	c-0.4,0.9-1.2,1.6-1.8,2.3c-0.8,0.9-1.8,1.6-2.7,2.4c-0.3,0.3-0.7,0.6-1.1,0.7c-0.8,0.2-1.5,0.8-2.2,1.2c-0.4,0.2-0.8,0.4-1.2,0.7
	c-2.7,1.3-5.6,1.9-8.5,2.1c-3.7,0.1-7.5-0.6-10.9-2.3c-0.7-0.5-1.5-0.9-2.3-1.3c-1.1-0.7-2.3-1.4-3.2-2.4c-0.4-0.5-0.8-0.9-1.2-1.2
	c-0.8-0.7-1.4-1.6-2-2.4c-1.1-1.3-1.7-3-2.6-4.4c-0.1-0.1-0.1-0.2-0.2-0.3c0.1-0.7-0.5-1.3-0.6-2c-0.2-1.2-0.7-2.2-0.8-3.4
	c-0.1-1.2-0.3-2.3-0.3-3.5c-0.1-1.4,0.3-2.8,0.4-4.3c0.5-2.1,1.1-4.2,2.1-6.1c0.5-0.9,1.1-1.7,1.4-2.7c0.6-1.1,1.5-2,2.3-2.9
	c1.5-1.4,3.1-2.7,4.8-3.7C352.9,144.6,353.6,144.1,354.4,143.8L354.4,143.8z"/>
<path class="st12" d="M373,143.4c0.9,0.1,1.7,0.5,2.4,1c0.4,0.3,1,0.4,1.2,0.9C375.3,144.8,374.1,144.1,373,143.4L373,143.4z"/>
<path class="st12" d="M362.1,143.7c4-0.4,8.2,0.5,11.7,2.4c0.7,0.3,1.3,0.7,1.9,1.2c1.7,1.1,3.3,2.4,4.5,4.1
	c2.7,3.2,4.3,7.3,4.7,11.4c0.3,3.4-0.3,6.9-1.6,10.1c-2.3,5.4-7,9.8-12.6,11.7c-1.9,0.7-3.9,1-5.9,1.2c-5.6,0.2-11.2-1.9-15.2-5.7
	c-1.5-1.4-2.7-3-3.8-4.8c-2.5-4.4-3.5-9.7-2.5-14.7c0.7-3.2,2.1-6.4,4.2-8.9c1.2-1.7,2.9-3.1,4.6-4.3c2.5-1.7,5.4-2.8,8.3-3.4
	C361,143.8,361.6,143.9,362.1,143.7L362.1,143.7z"/>
<path class="st15" d="M365.6,143.9c2.4,0.4,4.7,0.9,6.9,1.9c0.9,0.2,1.5,0.9,2.4,1.2c0.8,0.5,1.6,1.2,2.4,1.8c1,1,2.1,1.9,2.9,3
	c0.6,0.8,1.3,1.5,1.7,2.4c0.9,1.7,1.7,3.4,2.2,5.3c0.5,1.2,0.4,2.5,0.7,3.8c0,1.2,0.1,2.5-0.2,3.7c-0.2,2.1-0.8,4.2-1.7,6.1
	c-0.2,0.9-0.9,1.6-1.3,2.5c-1.4,2.2-3.3,4.2-5.4,5.8c-0.8,0.9-2,1.2-3,1.9c-0.7,0.3-1.4,0.5-2.1,0.9c-2.5,0.8-5.1,1.4-7.7,1.3
	c-1.1,0.1-2.2-0.3-3.3-0.4c-0.6,0-1.1-0.3-1.7-0.4c-1.5-0.3-2.8-0.9-4.1-1.6c-2.1-1-4-2.5-5.6-4.3c-0.6-0.5-0.9-1.1-1.3-1.7
	c-1.8-2.1-2.7-4.7-3.6-7.3c-0.2-1.3-0.4-2.6-0.6-3.9c0-0.9,0-1.7,0-2.6c0.2-1.4,0.3-2.9,0.8-4.2c0.4-1.7,1.2-3.2,2-4.7
	c0.2-0.5,0.5-1.1,0.9-1.5c0.6-0.7,1.1-1.6,1.8-2.2c0.9-0.8,1.6-1.8,2.6-2.4c0.6-0.4,1.2-1,1.9-1.3c0.9-0.4,1.8-1,2.8-1.4
	c2.1-1,4.5-1.4,6.8-1.6C363.7,143.9,364.6,143.9,365.6,143.9L365.6,143.9z"/>
<path class="st12" d="M356.5,146.2c3.7-1.5,7.9-2,11.8-1c1.8,0.4,3.4,1.1,5.1,1.8c0.3,0.1,0.4,0.3,0.6,0.5c-1-0.2-1.8-0.8-2.8-1.2
	c-1.6-0.6-3.3-1-5-1.2c-2.8-0.4-5.6,0.1-8.2,0.8c-1.7,0.6-3.3,1.5-5,2.3c0.1-0.5,0.7-0.6,1-0.9C354.7,146.9,355.7,146.7,356.5,146.2
	L356.5,146.2z"/>
<path class="st13" d="M357.9,146c2.7-0.8,5.5-1.2,8.2-0.8c1.7,0.2,3.4,0.6,5,1.2c0.9,0.4,1.8,1,2.8,1.2c0.2,0.1,0.4,0.2,0.5,0.4
	c0.6,0.7,1.6,1.2,2.3,1.8c1,0.8,1.8,1.8,2.7,2.7c0.1,0.1,0.2,0.2,0.2,0.3c0.5,0.9,1.1,1.7,1.5,2.5c0.6,1.2,1.2,2.5,1.6,3.8
	c0.6,2.1,0.9,4.3,0.8,6.5c-0.2,2.2-0.5,4.3-1.4,6.3c-0.5,1.2-1.1,2.4-1.7,3.6c0,0.1-0.1,0.2-0.2,0.3c-0.6,0.5-1,1.2-1.5,1.8
	c-0.3,0.3-0.5,0.6-0.7,0.9c-0.2,0.3-0.4,0.5-0.7,0.7c-1.7,1.2-3.3,2.5-5.3,3.3c-2.4,1.1-4.9,1.7-7.5,1.8c-3.2,0.1-6.4-0.6-9.2-2
	c-1.2-0.5-2.3-1.4-3.5-2c-1-0.7-1.7-1.6-2.6-2.4c-0.5-0.5-1-1.1-1.4-1.7c-0.8-1.4-1.6-2.8-2.3-4.2c-1.1-3.1-1.7-6.4-1.2-9.7
	c0.4-3.5,1.8-7,4-9.8c0.6-1,1.5-1.6,2.2-2.5c0.5-0.5,1.1-0.8,1.5-1.3c0.2-0.2,0.4-0.4,0.7-0.5C354.6,147.5,356.2,146.6,357.9,146
	L357.9,146z"/>
<path class="st14" d="M352,151.6c3.4-3.1,8-4.8,12.6-4.6c2.4,0.1,4.8,0.7,7,1.7c2.7,1.4,5.2,3.4,6.9,5.9c2.3,3.1,3.3,7.1,3.2,10.9
	c-0.1,2.5-0.8,4.9-1.9,7.2c-0.9,1.4-1.7,3-2.9,4.1c-3.7,4-9.3,6.1-14.7,5.5c-5.1-0.5-9.8-3.3-12.7-7.5c-2.2-3.1-3.3-6.9-3.2-10.7
	c0.1-3.5,1.3-6.9,3.4-9.8c0.5-0.7,1-1.5,1.8-1.9c-0.4,0.7-1.1,1.3-1.6,2c-2,2.7-3.1,5.9-3.4,9.3c-0.2,4.1,1.1,8.2,3.5,11.6
	c3.2,4.1,8.2,6.8,13.4,6.9c4.3,0.1,8.6-1.5,11.8-4.3c4.6-3.9,7-10.4,5.8-16.3c-0.3-1.8-1-3.5-1.8-5.1c-0.9-1.7-2.1-3.1-3.4-4.4
	c-2.8-2.5-6.3-4.2-10.1-4.6c-4.4-0.5-8.9,0.8-12.4,3.5c-0.6,0.4-1.1,1.1-1.8,1.4C351.8,152,351.9,151.8,352,151.6L352,151.6z"/>
<path class="st15" d="M353.5,150.8c3.5-2.6,8-4,12.4-3.5c3.8,0.4,7.3,2.1,10.1,4.6c1.3,1.4,2.5,2.7,3.4,4.4c0.8,1.6,1.5,3.3,1.8,5.1
	c1.2,6-1.2,12.4-5.8,16.3c-3.2,2.8-7.5,4.3-11.8,4.3c-5.2-0.1-10.3-2.8-13.4-6.9c-2.5-3.3-3.8-7.4-3.5-11.6c0.3-3.3,1.4-6.6,3.4-9.3
	c0.5-0.7,1.2-1.3,1.6-2c0,0,0.1-0.1,0.2-0.2C352.4,151.9,352.8,151.3,353.5,150.8L353.5,150.8z"/>
<path class="st12" d="M374.4,147.9c0.1,0,0.4,0.1,0.5,0.1c1.6,1.1,3,2.4,4.3,3.9c0.1,0.1,0.2,0.3,0.2,0.6c-0.9-0.9-1.7-1.9-2.7-2.7
	C376,149.1,375.1,148.6,374.4,147.9L374.4,147.9z"/>
<path class="st12" d="M354.2,151.4c3.6-2.6,8.2-3.8,12.6-3c4.2,0.7,8.1,3.1,10.5,6.5c0.9,1.2,1.5,2.6,2.2,3.9
	c0.7,2.1,1.2,4.3,1.1,6.5c-0.2,3.6-1.5,7.1-3.8,9.9c-0.1,0.2-0.2,0.4-0.3,0.6c-0.6,0.4-0.8,1.1-1.4,1.4c-0.5,0.2-0.8,0.6-1.2,0.9
	c-3.3,2.4-7.3,3.5-11.3,3.2c-1.8-0.3-3.7-0.7-5.3-1.5c-2.7-1.1-5-3.2-6.7-5.6c-0.1,0-0.2-0.1-0.3-0.1c0-0.2,0.1-0.4-0.1-0.5
	c-2-3.1-2.9-6.8-2.5-10.5c0.3-2.4,1-4.7,2.3-6.8c0.1,0,0.2-0.1,0.3-0.1c-0.4,0.9-0.9,1.8-1.3,2.8c-0.6,1.5-0.8,3-1,4.6
	c-0.4,4.8,1.6,9.7,5.1,13c0.7,0.7,1.4,1.3,2.3,1.8c1.1,0.9,2.5,1.4,3.9,1.9c2.1,0.7,4.3,1,6.4,0.8c2.8-0.4,5.6-1.2,7.9-2.9
	c1.7-1,3-2.5,4.1-4.1c1-1.3,1.6-2.8,2.2-4.4c0.7-2.5,1.1-5.1,0.5-7.6c-0.3-1.9-1-3.8-2-5.5c-0.7-1-1.3-2.2-2.2-3
	c-3.2-3.4-7.9-5.4-12.5-5.2c-2.9,0.2-5.8,1-8.2,2.6c-0.6,0.4-1.2,0.9-1.9,1.3l0.1-0.1C353.5,151.8,353.9,151.6,354.2,151.4
	L354.2,151.4z"/>
<path class="st13" d="M355.1,151c2.4-1.6,5.3-2.4,8.2-2.6c4.7-0.2,9.3,1.8,12.5,5.2c0.9,0.8,1.5,2,2.2,3c1,1.7,1.7,3.6,2,5.5
	c0.5,2.5,0.2,5.1-0.5,7.6c-0.5,1.5-1.1,3.1-2.2,4.4c-1.1,1.6-2.5,3.1-4.1,4.1c-2.3,1.7-5.1,2.6-7.9,2.9c-2.2,0.2-4.4-0.1-6.4-0.8
	c-1.4-0.5-2.7-1-3.9-1.9c-0.9-0.5-1.6-1.1-2.3-1.8c-3.5-3.3-5.4-8.2-5.1-13c0.2-1.5,0.5-3.1,1-4.6c0.4-1,0.9-1.9,1.3-2.8
	c0-0.1,0.1-0.2,0.1-0.2c0.4-0.4,0.8-0.9,1.1-1.4c0.5-0.8,1.4-1.4,2-2.1C353.9,151.9,354.5,151.4,355.1,151L355.1,151z"/>
<path class="st12" d="M350.8,149.7c0.4-0.4,0.8-0.9,1.4-0.9c-0.4,0.6-1,0.8-1.5,1.3c-0.7,0.8-1.6,1.5-2.2,2.5
	c-2.2,2.8-3.6,6.2-4,9.8c-0.5,3.3,0.1,6.6,1.2,9.7c0.7,1.5,1.4,2.9,2.3,4.2c-0.2-0.1-0.3-0.2-0.4-0.3c-2.1-3.1-3.4-6.8-3.5-10.6
	c-0.1-2.7,0.5-5.4,1.4-7.9c0.5-1,0.9-2.1,1.5-3c0.2-0.3,0.4-0.6,0.4-0.9c0.6-0.4,1-1.1,1.4-1.6C349.4,151.1,350.1,150.4,350.8,149.7
	L350.8,149.7z"/>
<path class="st14" d="M362.5,150.4c5.3-0.6,10.8,2.1,13.6,6.6c0.9,1.6,1.7,3.2,2,5c1,4.7-0.8,9.6-4.1,12.9c-2.3,2.2-5.3,3.6-8.5,4
	c-5,0.6-10.2-1.8-13.1-5.9c-2-2.8-3.1-6.4-2.7-9.9c0.5-4.1,2.8-8.1,6.3-10.4C357.9,151.5,360.1,150.6,362.5,150.4L362.5,150.4z"/>
<path class="st16" d="M362.4,150.7c3.8-0.4,7.9,0.9,10.8,3.4c0.6,0.7,1.5,1.3,2,2.1c1.4,1.7,2.2,3.8,2.6,6c0.7,3.3-0.1,6.7-1.7,9.6
	c-2.1,3.5-5.8,6.1-9.8,6.7c-2.3,0.5-4.7,0.1-7-0.6c-4.6-1.6-8.2-5.8-9.1-10.6c-0.1-0.8-0.4-1.5-0.3-2.3c-0.1-1.7,0.4-3.3,0.8-4.8
	c1.3-3.8,4.4-7.1,8.2-8.5C360,151.1,361.3,150.9,362.4,150.7L362.4,150.7z"/>
<path class="st14" d="M362.5,151.4c3-0.4,6.1,0.5,8.6,2c1.1,0.8,2,1.7,3,2.6c2.7,3.1,4,7.6,2.9,11.7c-0.4,1-0.6,2-1.1,3
	c-0.8,1.7-2.1,3-3.4,4.2c-2.6,2.1-6.1,3.3-9.4,3c-1.9-0.3-3.7-0.8-5.4-1.7c-2-1.1-3.5-2.7-4.8-4.5c-1.2-1.9-2-4.2-2.1-6.5
	c-0.1-1.7,0.3-3.5,0.8-5.1c0.7-1.8,1.6-3.5,3.1-4.8C356.6,153.2,359.5,151.9,362.5,151.4L362.5,151.4z"/>
<path class="st12" d="M343.3,154.2c0.5-0.9,0.9-1.9,1.7-2.6c-0.4,1-1,1.8-1.4,2.7c-1,1.9-1.6,4-2.1,6.1c-0.1,1.4-0.5,2.8-0.4,4.3
	c-0.1,1.2,0.2,2.4,0.3,3.5c0.1,1.2,0.6,2.3,0.8,3.4c0.1,0.7,0.6,1.2,0.6,2c-0.7-0.9-0.9-2.1-1.2-3.2c-0.3-1.2-0.5-2.3-0.6-3.5
	c-0.2-0.6-0.2-1.1-0.1-1.7c0.1-0.9-0.1-1.8,0.1-2.6c0.1-0.5-0.2-1,0.3-1.4C341.2,158.7,342.2,156.4,343.3,154.2L343.3,154.2z"/>
<path class="st13" d="M362.4,151.8c2.6-0.4,5.3,0.2,7.6,1.4c3.6,2,6.4,5.7,6.8,9.8c0.2,0.7,0.1,1.5,0.1,2.3c-0.2,2-0.6,4-1.7,5.8
	c-2,3.4-5.5,6-9.5,6.4c-1.4,0.3-2.9,0.1-4.3-0.1c-2.7-0.7-5.3-2-7.1-4.2c-1.1-1-1.8-2.3-2.3-3.7c-0.3-0.7-0.6-1.5-0.7-2.3
	c-0.9-3.4,0.1-7.2,2.1-10c1.4-1.9,3.3-3.5,5.5-4.5C360.1,152.3,361.2,152,362.4,151.8L362.4,151.8z"/>
<path class="st14" d="M353,152c0.1,0,0.3,0.1,0.4,0.1l-0.1,0.1c-0.6,0.7-1.4,1.3-2,2.1c-0.3,0.5-0.7,1-1.1,1.4h-0.2
	c0.3-0.8,1-1.5,1.5-2.2C351.9,153.1,352.5,152.6,353,152L353,152z"/>
<path class="st12" d="M379.7,152.7c0.2,0.1,0.4,0.2,0.5,0.4c1.8,2.5,3,5.5,3.5,8.5c0.2,1.7,0.4,3.4,0.1,5c-0.3,2.9-1.2,5.8-2.8,8.2
	c-0.1,0.2-0.3,0.3-0.5,0.5c0.6-1.2,1.2-2.4,1.7-3.6c0.8-2,1.2-4.1,1.4-6.3c0.1-2.2-0.3-4.4-0.8-6.5c-0.4-1.3-1-2.6-1.6-3.8
	C380.8,154.4,380.1,153.6,379.7,152.7L379.7,152.7z"/>
<path class="st15" d="M361.3,154c1.9-0.5,3.8-0.5,5.7,0.1c3.4,0.9,6.3,3.7,7.4,7c0.6,1.8,0.9,3.8,0.4,5.6c-0.3,1.7-1.1,3.4-2.2,4.8
	c-0.3,0.3-0.5,0.6-0.9,0.8c0.2-0.6,0.7-0.9,1-1.4c1.1-1.4,1.7-3.2,2-4.9c0.3-2.2-0.2-4.4-1.2-6.4c-0.5-1-1.3-1.7-1.9-2.6
	c-0.8-0.5-1.4-1.2-2.2-1.7c-1.5-0.9-3.2-1.3-4.9-1.5c-1.8-0.1-3.7,0.4-5.3,1.2c-2.8,1.5-5,4.2-5.6,7.3c-0.6,2.4-0.1,4.9,0.8,7.1
	c0.6,1,1.4,1.9,2,2.8c0.9,0.6,1.6,1.4,2.6,1.9c1.9,0.9,4,1.4,6,1.2c1.4-0.2,2.7-0.6,4-1.2c0.8-0.5,1.6-0.9,2.2-1.7
	c0.1,0,0.3,0.1,0.4,0.1c-0.2,0.3-0.5,0.5-0.7,0.8c-1.8,1.3-3.9,2.2-6.1,2.3c-2.4,0.1-4.8-0.6-6.8-1.9c-1.6-1-2.8-2.6-3.7-4.2
	c-0.8-1.8-1.3-3.9-1.1-5.9c0.2-1.6,0.7-3.3,1.6-4.7C356.1,156.6,358.5,154.7,361.3,154L361.3,154z"/>
<path class="st16" d="M359.1,155.1c1.7-0.8,3.5-1.3,5.3-1.2c1.7,0.1,3.4,0.6,4.9,1.5c0.8,0.4,1.5,1.2,2.2,1.7
	c0.6,0.9,1.4,1.6,1.9,2.6c0.9,2,1.5,4.2,1.2,6.4c-0.3,1.7-0.9,3.5-2,4.9c-0.3,0.5-0.8,0.9-1,1.4c0,0.1-0.1,0.2-0.1,0.2
	c-0.1,0-0.3-0.1-0.4-0.1c-0.5,0.8-1.4,1.2-2.2,1.7c-1.2,0.6-2.6,1-4,1.2c-2.1,0.2-4.2-0.3-6-1.2c-1-0.5-1.7-1.3-2.6-1.9
	c-0.7-0.9-1.5-1.8-2-2.8c-0.9-2.2-1.5-4.7-0.8-7.1C354.1,159.3,356.3,156.6,359.1,155.1L359.1,155.1z"/>
<path class="st12" d="M362.9,154.9c3.5-0.4,7.2,1.3,9.2,4.1c1.4,2.2,2.2,4.9,1.6,7.4c-0.6,3.5-3.2,6.5-6.6,7.6
	c-2.4,0.9-5.2,0.6-7.5-0.5c-2.4-1.2-4.3-3.4-5.1-6c-0.9-2.7-0.4-5.9,1.2-8.2C357.3,156.8,360,155.2,362.9,154.9L362.9,154.9z"/>
<path class="st13" d="M360,156.1c0.9-0.6,2-0.7,3-0.9c3.3-0.3,6.6,1.1,8.6,3.8c0.1,0.2,0.3,0.4,0.5,0.5c0.1,0.6,0.5,1.1,0.7,1.6
	c0.8,1.8,1,3.9,0.4,5.9c-0.3,1.4-1.1,2.7-1.9,3.9c-0.5,0.4-0.9,0.8-1.3,1.3c-1.2,0.8-2.4,1.5-3.8,1.9c-0.1,0-0.2,0.1-0.3,0.2
	c-1,0-2,0.3-3,0.1c-0.8-0.2-1.6-0.3-2.4-0.6c-0.7-0.2-1.2-0.7-1.9-0.8c-0.4-0.5-1-0.8-1.4-1.3c-2.1-1.9-3.1-4.9-2.9-7.7
	c0.2-0.8,0.3-1.6,0.5-2.3c0.7-1.2,1-2.6,2.2-3.4C357.9,157.3,358.8,156.5,360,156.1L360,156.1z"/>
<path class="st15" d="M363,157.1c1.6-0.3,3.3,0.2,4.7,0.9c1.3,0.8,2.4,1.9,3.1,3.2c0.7,1.6,1.2,3.4,0.7,5.1c-0.4,2.3-2,4.3-4.1,5.3
	c-1.5,0.7-3.3,1.1-4.9,0.6c-2.3-0.4-4.3-2-5.3-4.1c-0.7-1.5-1.1-3.3-0.6-4.9c0.4-1.9,1.4-3.5,3-4.6
	C360.5,157.6,361.8,157.3,363,157.1L363,157.1z"/>
<path class="st17" d="M360.1,158.4c1.2-0.7,2.4-1.1,3.8-1.1c2.1,0,4.2,0.9,5.6,2.5c1.2,1.3,1.9,3.1,2,4.8c0,1.7-0.6,3.4-1.7,4.7
	c-0.6,0.6-1.2,1.2-1.8,1.7c-0.8,0.3-1.5,0.8-2.3,0.9c-2.8,0.7-6-0.6-7.6-3c-0.8-1.3-1.4-2.7-1.4-4.3
	C356.7,162.1,358,159.7,360.1,158.4L360.1,158.4z"/>
<path class="st12" d="M386,157.9c0.1,0,0.2,0.1,0.3,0.1c0.1,0.9,0.5,1.8,0.6,2.7c0.2,0.8,0.1,1.6,0.3,2.4c0.2,3.1-0.3,6.3-1.3,9.2
	c-0.1,0.3-0.2,0.6-0.5,0.8c0.9-2.8,1.7-5.6,1.6-8.6c0.1-1.3-0.2-2.5-0.4-3.8C386.5,159.8,386.1,158.9,386,157.9L386,157.9z"/>
<path class="st15" d="M360.1,159.4c1.5-0.9,3.3-1.6,5.1-1.1c0.9,0.2,1.8,0.7,2.6,1.1c0.5,0.5,1,1,1.5,1.5c0.8,1.3,1.5,2.9,1.3,4.5
	c-0.2,1.2-0.7,2.3-1.3,3.3c-0.5,0.5-1,1-1.5,1.5c-1,0.6-2.1,1.1-3.3,1.2c-1.5,0.1-2.9-0.5-4.2-1.2c-0.2-0.1-0.3-0.3-0.4-0.5
	c0.1,0,0.2,0,0.3-0.1c0.5,0.6,1.3,0.9,2,1.1c3,1.1,6.7-0.8,7.7-3.8c1.3-3.1-0.7-7.1-3.9-8.1c-3-1.2-6.7,0.6-7.8,3.7
	c-0.6,1.4-0.6,3,0,4.4c0.3,1,1.1,1.8,1.6,2.7c-0.5-0.3-1-0.7-1.3-1.3c-0.7-1.2-1.2-2.7-1-4.1c0.2-1.2,0.7-2.2,1.3-3.2
	C359.1,160.3,359.6,159.8,360.1,159.4L360.1,159.4z"/>
<path class="st13" d="M358.1,162.4c1.1-3,4.8-4.8,7.8-3.7c3.2,1,5.2,4.9,3.9,8.1c-1,3-4.7,4.9-7.7,3.8c-0.7-0.2-1.5-0.5-2-1.1
	c-0.1,0-0.2,0-0.3,0.1l-0.1-0.1c-0.6-0.9-1.3-1.6-1.6-2.7C357.5,165.4,357.5,163.8,358.1,162.4L358.1,162.4z"/>
<path class="st17" d="M363.2,160.5c1.3-0.4,2.4,0.3,3.5,1c0.6,0.5,1.3,1.2,1.4,2c0.4,1.1,0.1,2.3-0.3,3.3c-0.7,1.1-1.9,1.7-3.1,2.1
	c-0.9,0.1-1.8,0-2.6-0.4c-1.1-0.6-1.7-1.8-2.2-2.9c-0.2-0.8-0.1-1.7,0.3-2.4C360.5,161.8,361.8,160.7,363.2,160.5L363.2,160.5z"/>
<path class="st13" d="M363.4,161.7c1.5-0.4,3.2,0.7,3.5,2.2c0.4,1.4-0.4,3-1.8,3.5c-1.5,0.7-3.5-0.2-4-1.8
	C360.4,164,361.7,162,363.4,161.7L363.4,161.7z"/>
<path class="st17" d="M363.8,163.8c0.7-0.2,1.5,0.7,1,1.4c-0.3,0.6-1.3,0.6-1.6,0C362.8,164.6,363.2,163.9,363.8,163.8L363.8,163.8z
	"/>
<path class="st12" d="M342.8,173.8c0.9,1.4,1.5,3.1,2.6,4.4c0.7,0.8,1.2,1.7,2,2.4c0.4,0.4,0.8,0.8,1.2,1.2
	c-0.7-0.3-1.1-0.9-1.7-1.3c-1-1.2-2.1-2.4-2.9-3.8C343.6,175.8,342.8,174.9,342.8,173.8L342.8,173.8z"/>
<path class="st12" d="M383.4,177c0.6-1,1.1-2,1.7-3c0.1,0.7-0.4,1.3-0.7,1.9c-0.6,0.9-1,1.9-1.9,2.6C382.7,178,383,177.5,383.4,177
	L383.4,177z"/>
<path class="st12" d="M378.9,177.5c0.6-0.6,0.9-1.3,1.5-1.8c-0.1,0.8-0.8,1.2-1.2,1.8c-0.3,0.4-0.6,0.9-1.1,1
	C378.3,178.1,378.6,177.8,378.9,177.5L378.9,177.5z"/>
<path class="st12" d="M372.1,182.5c1.9-0.8,3.5-2.2,5.3-3.3c-0.1,0.2-0.2,0.4-0.3,0.5c-1.1,0.9-2.2,1.8-3.5,2.5
	c-0.7,0.5-1.7,0.7-2.4,1.3c-0.1,0-0.2-0.1-0.3-0.1c-1.6,0.6-3.3,1-5,1.2c-1.8,0.4-3.7,0.1-5.5-0.2c-1.5-0.3-3-0.7-4.4-1.4
	c-0.8-0.3-1.6-0.6-2.2-1.1s-1.6-0.7-1.9-1.5c1.2,0.6,2.2,1.5,3.5,2c2.8,1.4,6,2,9.2,2C367.2,184.2,369.8,183.7,372.1,182.5
	L372.1,182.5z"/>
<path class="st12" d="M374.7,185.1c0.7-0.4,1.4-1,2.2-1.2c-0.4,0.5-1,0.7-1.6,1.1c-0.6,0.3-1.1,0.8-1.8,0.8
	C373.9,185.5,374.3,185.3,374.7,185.1L374.7,185.1z"/>
<path class="st12" d="M351.8,184.3c0.8,0.3,1.6,0.8,2.3,1.3C353.2,185.5,352.4,184.9,351.8,184.3L351.8,184.3z"/>
<path d="M395.2,126.4V99.8h2.5v24.5H412v2.1H395.2z"/>
<path d="M416.6,126.4V99.8h2.5v26.6H416.6z"/>
<path d="M423.6,99.8h2.6l8,23.6l8-23.6h2.6l-9.1,26.6h-2.8L423.6,99.8z"/>
<path d="M449.4,126.4V99.8h2.5v26.6H449.4z"/>
<path d="M461.3,103.2L461.3,103.2l-0.1,23.2h-2.5V99.8h2.8l15.4,23.2h0.1V99.8h2.5v26.6h-2.9L461.3,103.2z"/>
<path d="M496.8,114.8v-2.1h11.4v13.7h-2.1v-4.5c-0.5,0.8-1,1.5-1.6,2.2s-1.3,1.2-2.1,1.7c-0.8,0.5-1.7,0.8-2.7,1.1
	c-1,0.2-2.2,0.4-3.5,0.4c-1.7,0-3.2-0.3-4.7-0.9c-1.4-0.6-2.7-1.5-3.7-2.6c-1-1.2-1.8-2.6-2.4-4.4s-0.9-3.8-0.9-6.2
	c0-1.9,0.2-3.8,0.7-5.5s1.3-3.2,2.3-4.4c1-1.2,2.3-2.2,3.8-2.9c1.5-0.7,3.4-1.1,5.4-1.1c1.4,0,2.7,0.2,3.9,0.5
	c1.2,0.3,2.3,0.9,3.3,1.6s1.8,1.6,2.5,2.6s1.1,2.3,1.4,3.7h-2.6c-0.2-1-0.6-1.9-1.1-2.7c-0.5-0.8-1.2-1.4-1.9-2
	c-0.7-0.5-1.6-0.9-2.5-1.2c-0.9-0.3-1.9-0.4-2.8-0.4c-1.8,0-3.3,0.3-4.5,0.9c-1.3,0.6-2.3,1.5-3.1,2.6c-0.8,1.1-1.4,2.5-1.8,4
	c-0.4,1.6-0.6,3.3-0.6,5.2c0,1.5,0.2,2.9,0.6,4.2c0.4,1.3,1.1,2.5,1.9,3.5s1.8,1.8,3,2.4s2.6,0.9,4.1,0.9c0.7,0,1.5-0.1,2.2-0.2
	c0.8-0.2,1.5-0.4,2.2-0.8s1.4-0.8,2-1.4s1.1-1.3,1.6-2.2c0.4-0.8,0.7-1.7,0.9-2.6c0.2-0.9,0.3-1.9,0.3-2.9h-8.9V114.8z"/>
<circle class="st18" cx="379.8" cy="103.6" r="4.2"/>
<g>
	<path d="M394,133.9c8.5,8.5,12.7,18.6,12.7,30.5c0,11.9-4.2,22.1-12.7,30.5s-18.6,12.7-30.5,12.7s-22.1-4.2-30.5-12.7
		c-8.4-8.4-12.7-18.6-12.7-30.5c0-11.9,4.2-22,12.7-30.5c8.4-8.5,18.6-12.7,30.5-12.7C375.4,121.3,385.5,125.5,394,133.9z
		 M345.2,146.1c-5.1,5.1-7.6,11.2-7.6,18.3s2.5,13.2,7.6,18.3s11.1,7.6,18.3,7.6c7.1,0,13.2-2.5,18.3-7.6c5.1-5.1,7.6-11.1,7.6-18.3
		c0-7.1-2.5-13.2-7.6-18.3s-11.2-7.6-18.3-7.6S350.3,141,345.2,146.1z"/>
</g>
<path d="M434.9,198.7h1.4c0.8,0.4,1.9,1.6,3.4,3.5c1,0.9,2.4,2.5,4.2,4.8l1.6,1.5c0.1-0.2,0.1-0.4,0.1-0.5l-6.3-7.1l-0.1-0.4
	c-0.2-1.1,0-1.6,0.7-1.6c0-0.1,0.4-0.1,0.9-0.1h5.5c0.1,0,0.1,0,0.2,0.1c0.1,0,0.1,0,0.1-0.1l1.6,0.1h0.5c0.2,0,0.3,0,0.4-0.1
	c0.2,0.1,0.4,0.1,0.6,0.1h0.3c0.2,0,0.3,0,0.4-0.1l0.3,0.1c0.1,0,0.1,0,0.1-0.1l0.7,0.1h5.1c0.1,0,0.1,0,0.2,0.1l0.2-0.1h1.9
	c0.9,0,1.5,0.3,1.8,0.8l7.8,8.6l0.4,1.3h-0.3c-2.1-2.6-3.9-4.5-5.3-5.8l0.1,0.1l5.7,6.5l0.2,0.6H469c-0.1-0.2-0.9-1.1-2.5-2.9
	c-3.7-4.3-5.8-6.7-6.2-7H460c3.9,4.3,7.1,8,9.6,11l0.1,0.3c0.1,0.2,0,0.3-0.2,0.3h-6.1c-0.1,0-0.1,0-0.2-0.1l-0.2,0.1h-2.9
	c-0.1,1.2-0.4,3.2-0.8,6c-0.8,5.5-1.5,10.5-2.3,14.9c-0.8,7-3,12-6.8,14.9c-0.2,0-0.8,0.4-1.9,1.1c-2.5,1.2-5.4,1.8-8.8,1.8
	c-4.3,0-8.1-1.1-11.3-3.3c-2.3-1.7-3.8-3-4.4-4c-5.1-5-8.1-9.1-9.1-12.3l-0.2-0.5c-0.5-1.7-0.3-6.3,0.6-13.8
	c0.3-2.1,0.5-3.6,0.7-4.4l-0.1-0.5c-6.9-7.8-10.4-11.8-10.5-12l-0.1-0.3l0.5-1.4c1.5-0.1,2.6-0.1,3.3-0.1h0.4c0.3,0,0.7,0,1.2,0.1
	c0.1-0.1,0.3-0.1,0.5-0.1c0.2,0.1,0.3,0.1,0.4,0.1c0.1-0.1,0.3-0.1,0.3-0.1l0.3,0.1l0.7-0.1h0.5c0.1,0,0.1,0,0.2,0.1
	c0.1,0,0.1,0,0.1-0.1c0.9,0.1,1.5,0.1,1.9,0.1h6.4c0.7,0,1.4,0,2.3-0.1l0.3,0.1c0.1-0.1,0.3-0.1,0.3-0.1c0.3,0,0.5,0,0.7,0.1
	C427.3,198.8,430.5,198.7,434.9,198.7z"/>
<path class="st19" d="M406.2,200.7l0.1,0.5c3.5,3.9,5.3,5.9,5.3,6h0.1v-0.1l-5.3-6.1l-0.1-0.3L406.2,200.7L406.2,200.7z"/>
<path class="st19" d="M406.7,200.6c0.1,0.2,2.7,3.4,7.9,9.4c0.7,0.8,1.1,1.3,1.3,1.3c0.2,0,0.2-0.1,0.2-0.3v-0.1
	c-3-3.2-6-6.6-9.1-10.3L406.7,200.6L406.7,200.6z"/>
<path class="st19" d="M407.6,200.6c1.1,1.4,1.6,2.1,1.7,2.1c4.4,5.1,6.7,7.6,6.9,7.6c0-0.2,0-0.3,0-0.4l-8.2-9.4L407.6,200.6
	L407.6,200.6z"/>
<path class="st19" d="M408.5,200.6l0.1,0.1c4.6,5.3,7.2,8.1,7.7,8.5c0-0.1,0-0.1,0.1-0.1c-4.9-5.7-7.5-8.5-7.6-8.5H408.5z"/>
<path class="st19" d="M409.5,200.6l0.1,0.1l6.5,7.5c0,0.1,0.1,0.1,0.2,0.1h0.3l-0.1-0.3l-6.8-7.5L409.5,200.6L409.5,200.6z"/>
<path class="st19" d="M410.4,200.6l0.1,0.1l5.7,6.6v0.1h0.1c0.2,0,0.2-0.1,0.2-0.3l-5.8-6.6L410.4,200.6L410.4,200.6z"/>
<path class="st19" d="M411.4,200.6l0.1,0.3c2.1,2.3,3.7,4.2,4.8,5.6h0.4c-0.1-0.3-1.8-2.2-5-5.9L411.4,200.6L411.4,200.6z"/>
<path class="st19" d="M412.2,207.7v0.1c0.1,0.2,0.2,0.3,0.3,0.3V208C412.4,207.8,412.3,207.7,412.2,207.7z"/>
<path class="st19" d="M412.3,200.6l0.1,0.1l4.2,4.9h0.3l-0.1-0.3c-2.4-2.9-3.9-4.5-4.3-4.8h-0.2V200.6z"/>
<path class="st19" d="M413.3,200.6c0.1,0.1,1.2,1.5,3.4,4.1h0.3c0-0.1,0-0.2,0-0.4c-0.2-0.1-1.3-1.4-3.4-3.8L413.3,200.6
	L413.3,200.6z"/>
<polygon class="st19" points="413.4,209.1 413.5,209.3 413.6,209.3 413.6,209.1 "/>
<path class="st19" d="M413.8,209.6l0.1,0.3c0.4,0.2,0.7,0.6,1.1,1.3h0.1v-0.1c-0.8-0.8-1.1-1.3-1.2-1.4h-0.1V209.6z"/>
<path class="st19" d="M414.1,200.6l0.1,0.1l2.7,3.1l0.2-0.1c-0.5-0.8-1.4-1.9-2.8-3.1H414.1z"/>
<path class="st19" d="M415.1,200.6c0.2,0.5,0.9,1.3,2.1,2.4v-0.1c-0.6-1.1-1.3-1.8-1.9-2.3L415.1,200.6L415.1,200.6z"/>
<path class="st19" d="M415.4,211.3c0.1,0.2,0.2,0.3,0.2,0.4h0.1l-0.1-0.4H415.4z"/>
<path class="st19" d="M416.2,200.7l0.1,0.3c0.5,0.6,0.9,1,1.1,1l-0.2-0.5C417.1,201.3,416.8,201.1,416.2,200.7z"/>
<polygon class="st19" points="417.2,200.7 417.3,201 417.5,201 417.4,200.7 "/>
<path class="st19" d="M418.6,237.1v0.1c2,2.4,4.6,5.4,7.9,9h0.3l-7.5-8.8C419.2,237.5,418.9,237.4,418.6,237.1z"/>
<path class="st19" d="M420.6,238.2v0.1c4.9,5.7,7.7,8.9,8.5,9.6h0.3v-0.1l-5.1-5.8C422.2,239.5,420.9,238.2,420.6,238.2z"/>
<path class="st19" d="M422.2,239v0.1c5.1,5.9,7.9,9.1,8.5,9.6c0.1,0,0.2,0,0.4,0.1l-0.1-0.1C425.4,242.4,422.5,239.1,422.2,239
	L422.2,239L422.2,239z"/>
<path class="st19" d="M423.4,239.4l0.1,0.1l8.7,9.9l0.3,0.1l-0.1-0.3c-2.1-2.5-4.5-5.2-7.2-8.1c-0.1-0.4-0.7-0.9-1.7-1.8h-0.1V239.4
	z"/>
<path class="st19" d="M423.6,228.7l0.3,1c4.8,5.4,7.3,8.3,7.7,8.5h0.6l-0.1-0.1l-8.3-9.4H423.6z"/>
<path class="st19" d="M423.7,230.2v0.5l6.8,7.5c0.2,0.1,0.3,0.1,0.5,0.1h0.1L431,238L423.7,230.2L423.7,230.2L423.7,230.2z"/>
<path class="st19" d="M424,227.1v0.1c0.7,0.7,1.1,1.2,1.2,1.5l-1.4-1.3l-0.1,0.5l0.1,0.4l8.9,10h0.5c-0.4-0.7-3.1-3.7-7.9-9.1
	l-0.1-0.4c0.5,0.4,2.7,2.8,6.4,7.1c1.3,1.5,2.1,2.3,2.3,2.4c0.2-0.1,0.3-0.2,0.3-0.3l-9.8-11.1h-0.3C424,226.9,423.9,227,424,227.1z
	"/>
<path class="st19" d="M423.7,231.2l0.1,0.6l0.2,0.5c3.3,3.7,5.1,5.6,5.3,5.8l0.7,0.1l-0.1-0.3c-0.8-0.8-2.8-3.1-6-6.8L423.7,231.2
	L423.7,231.2z"/>
<path class="st19" d="M424,225.5v0.5c3.3,3.6,6.8,7.6,10.4,11.9l0.3,0.1h0.1c0.2,0,0.2-0.1,0.2-0.3c-5.9-6.8-9.5-10.9-10.8-12.3H424
	V225.5z"/>
<path class="st19" d="M424.1,233v0.5c0.9,1.9,1.9,3.2,2.9,3.9c0.6,0.3,1,0.5,1.3,0.5h0.1C425.8,234.7,424.4,233.1,424.1,233z"/>
<path class="st19" d="M424.2,224.5v0.5l9.1,10.1c0.6,0.9,1.2,1.5,1.7,1.9l-0.1-0.6l-10.3-11.8v-0.1L424.2,224.5L424.2,224.5z"/>
<path class="st19" d="M424.3,223.2l0.1,0.6c6.7,7.6,10.1,11.5,10.1,11.6c0.1,0,0.2-0.3,0.2-0.8c-5.4-6.4-8.8-10.2-10.2-11.5
	L424.3,223.2L424.3,223.2z"/>
<path class="st19" d="M424.5,222.1l0.1,0.6v0.1c3.1,3.3,6.4,7.1,9.9,11.3c0.2-0.1,0.3-0.3,0.2-0.8l-9.9-11.3L424.5,222.1
	L424.5,222.1z"/>
<path class="st19" d="M424.5,239.7c2.3,2.5,5,5.6,8.2,9.4c0.3,0.4,0.5,0.6,0.7,0.6h0.3v-0.1l-8.8-10.1h-0.2
	C424.5,239.5,424.5,239.6,424.5,239.7z"/>
<path class="st19" d="M424.6,221.4v0.1c1.1,1.4,2.5,3.1,4.4,5.1c3.1,3.6,5,5.7,5.6,6.3l-0.1-0.6c-0.1-0.2-3.1-3.6-9.1-10.4
	c-0.4-0.4-0.6-0.6-0.6-0.8h-0.1C424.6,221.1,424.6,221.2,424.6,221.4z"/>
<path class="st19" d="M424.8,219.8l0.1,0.6l0.1,0.3l9.8,11c0-0.1,0-0.3,0.1-0.5v-0.1c-1.8-2.2-4.6-5.4-8.4-9.6
	c-0.6-0.8-1.1-1.4-1.5-1.6L424.8,219.8L424.8,219.8z"/>
<path class="st19" d="M424.8,218.7c0.1,0.3,0.1,0.5,0,0.5c0,0.1,3.1,3.5,9,10.1c0.5,0.8,0.8,1.1,1,1.1l0.1-0.5
	c-2.2-2.4-5.4-6.2-9.8-11.3L424.8,218.7L424.8,218.7z"/>
<path class="st19" d="M424.9,217.5l0.1,0.6c3.7,4.3,7,8.1,9.9,11.3h0.1l-0.1-0.6v-0.1l-9.7-11.1L424.9,217.5L424.9,217.5z"/>
<path class="st19" d="M425,216.3l0.3,0.9l7.9,8.9c0.1,0.2,0.7,0.9,1.7,2l0.1,0.1c0.2,0,0.2-0.3,0.1-0.8c-4-4.5-7.1-8.2-9.6-11.1
	L425,216.3L425,216.3z"/>
<path class="st19" d="M425.4,215.2l-0.2,0.4c0.7,1,3.5,4.3,8.5,10c0.9,0.9,1.4,1.4,1.4,1.4h0.1l-0.1-0.6
	C428.9,219,425.6,215.3,425.4,215.2z"/>
<path class="st19" d="M425.5,214.7c4.9,5.7,8.2,9.4,9.8,11.1h0.1l-0.2-0.9c-2.8-2.9-5.8-6.3-8.9-10.1c-0.2,0-0.4-0.3-0.6-0.8h0.1
	c0.8,0.7,1.5,1.5,2.3,2.5l7,8v0.1h0.1c0.2,0,0.3-0.2,0.2-0.6c-6.4-7.3-9.7-11-9.8-11.1C425.6,213,425.5,213.6,425.5,214.7z"/>
<path class="st19" d="M425.6,239.7v0.1c4.7,5.5,7.7,8.9,8.9,10.1h0.3v-0.1l-8.8-10l-0.3-0.1H425.6z"/>
<path class="st19" d="M425.8,212.3c0.1,0.3,2.5,3.1,7.3,8.5c1.5,1.7,2.3,2.6,2.6,2.8c0.1-0.3,0.1-0.5,0-0.8c-0.6-0.5-3.3-3.5-7.9-9
	c-0.1,0-0.6-0.6-1.6-1.9h-0.3C425.8,212,425.7,212.1,425.8,212.3z"/>
<path class="st19" d="M425.9,210.7l-0.1,0.5c0.1,0.2,2.4,2.8,6.9,8c1,0.9,1.9,2,2.8,3.3h0.3l-0.1-0.6
	C429.8,214.9,426.6,211.2,425.9,210.7z"/>
<path class="st19" d="M426,209.7c0.1,0.2,0.1,0.4,0,0.5c6,7,9.3,10.7,9.8,11.1h0.1l-0.1-0.6l-0.1-0.1c-3.1-3.5-6.1-7-9.1-10.5
	L426,209.7L426,209.7z"/>
<path class="st19" d="M426.2,208.6l0.1,0.6v0.1c2.5,2.6,5.5,5.9,9.1,10.1l0.8,0.8l-0.1-0.6c-6.2-7.1-9.5-10.8-9.8-11L426.2,208.6
	L426.2,208.6z"/>
<path class="st19" d="M426.4,207.5c0.1,0.1,0,0.4-0.1,0.6l9.7,11h0.1c0.1-0.3,0.1-0.6,0-0.8l-9.5-10.8l-0.1-0.1h-0.1V207.5z"/>
<path class="st19" d="M426.5,206.5v0.5c6.3,7.2,9.6,10.9,9.8,11c0.1-0.3,0.1-0.5,0-0.8c-4.8-5.5-8-9-9.6-10.8h-0.2V206.5z"/>
<path class="st19" d="M426.7,239.9v0.1l2.7,3.1l5.9,6.8c0.3,0.3,0.4,0.4,0.5,0.4h0.3v-0.1c-5.8-6.5-8.8-10-9.2-10.3H426.7z"/>
<path class="st19" d="M426.7,205.7c5.4,6.2,8.7,9.8,9.9,11l-0.1-0.6V216c-4.8-5.2-7.9-8.8-9.5-10.8h-0.1
	C426.8,205.2,426.8,205.4,426.7,205.7z"/>
<path class="st19" d="M426.9,204.7c1.4,1.7,2.4,2.8,3,3.3l6.7,7.8h0.1c0-0.1,0-0.4,0.1-0.6c-2.1-2.5-5.2-6-9.4-10.6l-0.1-0.1h-0.1
	C427,204.3,426.9,204.5,426.9,204.7z"/>
<path class="st19" d="M427.1,203.2l0.1,0.3c0.1,0.4,3.2,4,9.4,10.9l0.3,0.1c0.1-0.3,0.1-0.5,0.1-0.6c-0.1,0-2.2-2.4-6.3-7
	c-2.1-2.2-3.1-3.4-3.2-3.6L427.1,203.2L427.1,203.2z"/>
<path class="st19" d="M427.3,202l0.1,0.6l0.1,0.4c1.5,1.6,4.7,5.1,9.4,10.5c0.2-0.1,0.3-0.4,0.1-1c-0.8-0.7-3.9-4.2-9.4-10.5H427.3z
	"/>
<path class="st19" d="M427.4,201.5c5.2,5.7,8.4,9.3,9.5,10.8h0.3v-0.1c-0.7-1-3.3-4-7.9-9.1c-0.9-1.1-1.4-1.7-1.7-1.8
	C427.4,201.2,427.4,201.3,427.4,201.5z"/>
<path class="st19" d="M427.8,240.1v0.1l9.1,10.3h0.4c-4.6-5.3-7.6-8.7-9.1-10.3l-0.3-0.1H427.8z"/>
<path class="st19" d="M428,200.6c0.1,0.3,0.1,0.4,0,0.4c3.5,3.8,6.6,7.3,9.3,10.5c0.1-0.1,0.3-0.1,0.3-0.1l-0.1-0.1L428,200.6z"/>
<path class="st19" d="M428.6,240l0.1,0.1c5.7,6.6,8.8,10.1,9.2,10.4h0.1v-0.1c-0.3-0.6-3.4-4-9.1-10.4H428.6z"/>
<path class="st19" d="M428.6,200.6l0.1,0.1c2.1,2.3,5.3,5.9,9.4,10.6h0.5c-5.4-6.1-8.6-9.6-9.6-10.6
	C428.9,200.6,428.7,200.6,428.6,200.6z"/>
<path class="st19" d="M429.6,200.6l0.1,0.1c6.3,7.1,9.4,10.6,9.6,10.6h0.3l-9.5-10.8L429.6,200.6L429.6,200.6z"/>
<path class="st19" d="M429.7,240.2c4.3,4.9,7.3,8.3,8.9,10.3h0.4l-6.1-7.1c-1.7-1.8-2.6-2.9-2.8-3.4h-0.3
	C429.7,240,429.6,240.1,429.7,240.2z"/>
<path class="st19" d="M430.6,240.1v0.1c5.7,6.6,8.7,10.1,9.1,10.3h0.3v-0.1c-5.9-6.7-9-10.1-9.2-10.3H430.6z"/>
<path class="st19" d="M430.7,200.5v0.3v0.1c3.4,3.8,6.5,7.3,9.3,10.5h0.4c-0.1-0.2-2.7-3.2-8-9C431.5,201.2,431,200.5,430.7,200.5z"
	/>
<polygon class="st19" points="431.5,200.6 440.8,211.2 441.1,211.3 441.5,211.3 431.7,200.5 "/>
<path class="st19" d="M431.5,240.1c0.1,0.2,1.5,1.8,4.2,4.9c3.2,3.6,4.8,5.4,4.8,5.5h0.3c-0.1-0.3-2.8-3.5-8.1-9.4
	c-0.4-0.7-0.7-1-0.9-1H431.5z"/>
<path class="st19" d="M432.4,240.1c0.6,0.8,3.4,4,8.5,9.8c0.1,0.3,0.3,0.5,0.5,0.5h0.1c-0.1-0.2-3-3.6-8.8-10.3H432.4z"/>
<path class="st19" d="M432.5,200.6c5.3,6.1,8.5,9.7,9.8,10.9h0.1l-0.1-0.3c-5.2-5.8-8.4-9.4-9.6-10.6L432.5,200.6L432.5,200.6z"/>
<path class="st19" d="M433.4,240.2l7.5,8.6c0.8,1,1.4,1.5,1.6,1.5c0-0.1,0-0.1,0.1-0.1c-5.4-6.2-8.3-9.5-8.9-10H433.4z"/>
<path class="st19" d="M433.5,200.6l0.1,0.1c4.1,4.6,7.2,8.1,9.5,10.8h0.4c-5.5-6.3-8.7-9.9-9.8-10.9L433.5,200.6L433.5,200.6z"/>
<path class="st19" d="M434.3,239.9v0.3c0,0.2,3,3.5,8.8,10c0,0.1,0.2,0.2,0.4,0.3l-0.1-0.3c-0.1-0.2-1.4-1.7-3.9-4.5
	c-2.6-2.8-4.2-4.7-4.9-5.6L434.3,239.9z"/>
<path class="st19" d="M434.5,200.6l0.1,0.3c1.1,1.4,2.8,3.3,5.1,5.8l4.2,4.9h0.4C438.1,204.3,434.8,200.7,434.5,200.6z"/>
<path class="st19" d="M435,240.1c0.2,0.1,3.2,3.4,9,10h0.3l-0.1-0.1l-8.8-10.3h-0.1C435.1,239.7,435,239.9,435,240.1z"/>
<path class="st19" d="M438,212.1c-0.3,0.9-1.1,7.1-2.3,18.5c-0.4,3-0.4,5.2,0,6.8v0.1c2.3-0.5,4.2-1.7,5.6-3.6
	c0.9-1.7,1.8-6.2,2.7-13.5c0.1,0,0.3-1.1,0.4-3.3c0.5-2.9,0.7-4.4,0.6-4.6v-0.1C443.1,212.2,440.8,212.1,438,212.1z"/>
<path class="st19" d="M435.4,200.6l0.1,0.3c2.4,2.6,5.4,6.1,9.1,10.4l0.5,0.3h0.1v-0.1c-0.1-0.2-2-2.3-5.7-6.5
	c-1.3-1.6-2.6-3-3.9-4.3L435.4,200.6L435.4,200.6z"/>
<path class="st19" d="M435.7,239.6l0.1,0.3c5.4,6.2,8.5,9.6,9.2,10.1l0.1-0.3c-5.5-6.2-8.3-9.4-8.3-9.5c-0.4-0.4-0.6-0.6-0.7-0.6
	H435.7z"/>
<path class="st19" d="M436.6,239.5c0.1,0.2,3,3.6,8.8,10.1v0.1h0.5l-7.6-8.6l-1.2-1.4v-0.1h0.1c0.7,0.5,1.6,1.4,2.6,2.8
	c2.6,2.7,4.7,5,6.4,7.1h0.3c-0.1-0.3-1-1.4-2.8-3.3l-6.2-7h-0.3C436.7,239.3,436.5,239.4,436.6,239.5z"/>
<path class="st19" d="M436.6,200.8l0.1,0.3l8.3,9.5h0.3v-0.1c-0.1-0.3-2.2-2.7-6.3-7.3c0-0.1-0.7-0.9-2.1-2.4H436.6z"/>
<path class="st19" d="M436.9,200.3l8.2,9.3h0.3c-0.1-0.2-1.4-1.8-3.9-4.8l-4.3-4.8C437,200.1,436.9,200.2,436.9,200.3z"/>
<path class="st19" d="M437.9,239l0.1,0.3c4.4,4.9,7.3,8.2,8.9,10h0.3l-0.1-0.4c-2.9-3.2-5.6-6.3-8.2-9.4l-0.1-0.3h0.1
	c0.3,0.1,1.6,1.6,4.1,4.5s4.1,4.6,4.7,5.1h0.3l-0.1-0.3c-0.3-0.2-1.6-1.7-4-4.5l-4.7-5.3c-0.2-0.1-0.4-0.1-0.6-0.1
	C438.2,238.9,438,239,437.9,239z"/>
<path class="st19" d="M439.3,238.4v0.1c0,0.1,2.2,2.6,6.5,7.5l2.4,2.5h0.1l-0.1-0.4l-6.8-7.6c-0.6-0.9-1.3-1.6-2-2.1H439.3z"/>
<path class="st19" d="M439.8,238l7.8,8.9c0.5,0.8,1,1.2,1.3,1.3h0.1v-0.1c0-0.1-3-3.5-8.8-10.1h-0.1L439.8,238z"/>
<path class="st19" d="M439.9,200.7c3.6,4.2,5.5,6.3,5.8,6.4v-0.3c-0.1-0.4-1.9-2.4-5.3-6.1L439.9,200.7L439.9,200.7z"/>
<path class="st19" d="M440.5,237.7l8.9,10h0.3l-0.1-0.3c-5.2-5.9-8.1-9.2-8.8-10C440.6,237.6,440.5,237.6,440.5,237.7z"/>
<path class="st19" d="M441,237.4l8.8,9.9l0.3,0.1l-0.1-0.4l-8.6-9.8l0.2-0.1c5.8,6.4,8.7,9.7,8.7,9.9h0.1c0.2,0,0.2-0.1,0.1-0.4
	l-8.8-10l0,0C441.2,237,441,237.2,441,237.4z"/>
<path class="st19" d="M441.2,200.8l4.4,5.3h0.3l-0.1-0.3c-0.1-0.3-1.5-1.9-4.4-5H441.2z"/>
<path class="st19" d="M441.9,236.2c2.6,3,3.9,4.5,4.1,4.5c0.5,0.8,2.2,2.6,4.9,5.6h0.1c0.2,0,0.2-0.1,0.2-0.3l-8.9-10.1H442
	C442,236,441.9,236.1,441.9,236.2z"/>
<path class="st19" d="M442.1,200.8c0.5,0.7,1.8,2.1,3.8,4.4h0.1v-0.1c-0.1-0.3-1-1.4-2.8-3.3c-0.4-0.6-0.7-0.9-1-1L442.1,200.8
	L442.1,200.8z"/>
<path class="st19" d="M442.4,235.6l0.1,0.1c1.3,1.3,3.8,4.1,7.4,8.4c1.1,1.3,1.7,1.9,1.8,1.9c0.2,0,0.2-0.1,0.1-0.4l-6.1-6.9
	l-2.9-3.4h-0.3C442.4,235.4,442.3,235.5,442.4,235.6z"/>
<path class="st19" d="M443.4,234c-0.3,0.7-0.5,1-0.6,1l9.2,10.5c0.1-0.1,0.3-0.1,0.3-0.1v-0.1c-0.7-1-2.9-3.6-6.6-7.8
	c-0.6-0.5-1.3-1.4-2.3-2.6l0.2-0.1c0.5,0.7,3.1,3.6,7.8,8.8c0.5,0.8,0.9,1.2,1.3,1.4c0-0.2,0-0.3,0.2-0.3c-0.1-0.3-3-3.6-8.8-10
	C443.8,234.2,443.5,234,443.4,234z"/>
<path class="st19" d="M442.9,200.7l2.9,3.5h0.1c0.2,0,0.2-0.1,0.2-0.3c-1.7-2-2.7-3.1-3.1-3.3h-0.1V200.7z"/>
<path class="st19" d="M443.6,233.5l0.1,0.3c3.7,4,6.8,7.5,9.3,10.4l0.3-0.3c-1.5-1.9-4.6-5.4-9.4-10.6
	C443.6,233.2,443.6,233.3,443.6,233.5z"/>
<path class="st19" d="M443.9,200.7c1.3,1.7,2,2.5,2.3,2.5h0.1l-0.1-0.1C445.8,202.3,445.1,201.5,443.9,200.7L443.9,200.7z"/>
<path class="st19" d="M444,232.6c0.1,0.2,1.3,1.7,3.8,4.5c0.1,0.3,2,2.4,5.6,6.3l0.1-0.4l-9.4-10.6C444,232.4,444,232.5,444,232.6z"
	/>
<path class="st19" d="M444.3,231.9l9.4,10.8h0.1l0.3-0.3c-2.5-2.9-5.7-6.6-9.6-10.9C444.2,231.5,444.2,231.6,444.3,231.9z"/>
<path class="st19" d="M444.4,230.2c0,0.1,0,0.4-0.1,0.6c0.4,0.3,3.1,3.4,8.2,9.3c0.9,1,1.4,1.6,1.6,1.8c0.1,0,0.2-0.2,0.3-0.5
	C448.3,234.3,445,230.6,444.4,230.2z"/>
<path class="st19" d="M444.6,229.1l0.1,0.6l9.9,11.3h0.1c0-0.1,0-0.3,0.1-0.5v-0.1c-5.2-5.9-8.5-9.7-10-11.3H444.6z"/>
<path class="st19" d="M444.7,227.9l0.1,0.6v0.1c5,5.6,8.2,9.4,9.8,11.4h0.3c0.2,0,0.2-0.2,0.2-0.6c-2.3-2.5-4.8-5.3-7.4-8.5
	c-1.6-1.7-2.4-2.7-2.5-3H444.7z"/>
<path class="st19" d="M444.9,200.7v0.1c0.7,0.9,1.1,1.4,1.3,1.4h0.1l-0.1-0.3C445.6,201.1,445.1,200.7,444.9,200.7z"/>
<path class="st19" d="M444.9,227v0.5c1,1,4.4,4.8,10.1,11.5h0.3c0-0.1,0-0.2,0-0.4c-0.1-0.3-1.2-1.6-3.4-4c-4-4.7-6.1-7.2-6.5-7.5
	c0-0.1-0.1-0.1-0.2-0.1H444.9z"/>
<path class="st19" d="M445,226.1c0.5,0.8,3.9,4.7,10.3,11.9c0.1,0,0.2-0.2,0.2-0.5l-10-11.6v-0.1h-0.1
	C445.2,225.7,445.1,225.9,445,226.1z"/>
<path class="st19" d="M445.3,224.5l-0.1,0.3l0.1,0.4c1.3,1.5,3.9,4.5,7.7,9l2.6,2.9c0-0.3,0-0.5,0.1-0.5c-1.7-2-5.1-6-10.3-12
	L445.3,224.5L445.3,224.5z"/>
<path class="st19" d="M445.5,223.5c0,0.3,0,0.4-0.1,0.4c2.3,2.5,5.4,6.1,9.4,10.9c0.7,0.8,1,1.1,1.1,1.1h0.1c-0.1-0.2-0.1-0.4,0-0.5
	c-6.6-7.6-9.9-11.5-10-11.6L445.5,223.5z"/>
<path class="st19" d="M445.6,222.2c-0.1,0.3-0.1,0.5,0,0.8c6.7,7.7,10.2,11.6,10.4,11.8l0.1-0.4l-0.1-0.3
	C452.4,229.8,449,225.8,445.6,222.2z"/>
<path class="st19" d="M445.8,221.1c-0.1,0.3-0.1,0.5,0,0.8c3.8,4.2,6.8,7.7,9,10.4c0.9,0.9,1.3,1.4,1.4,1.4h0.1c0-0.1,0-0.2,0-0.4
	C455.3,231.8,451.8,227.8,445.8,221.1z"/>
<path class="st19" d="M445.9,220.1c0,0.1,0,0.2,0,0.4c6.7,7.9,10.2,12,10.5,12.1h0.1c0-0.1,0-0.4,0.1-0.6
	c-6.2-6.9-9.7-10.9-10.4-11.9H445.9z"/>
<path class="st19" d="M446,200.8l0.1,0.3c0.1,0.2,0.2,0.3,0.3,0.3c0-0.1,0-0.1,0.1-0.1c-0.1-0.2-0.2-0.3-0.2-0.4H446V200.8z"/>
<path class="st19" d="M446,218.8l0.1,0.9c6.8,7.8,10.2,11.7,10.4,11.8h0.1l-0.1-0.6c0-0.1-1.8-2.1-5.2-5.9L446,218.8L446,218.8
	L446,218.8z"/>
<path class="st19" d="M446.1,218l0.2,0.6c2,2.2,5.4,6.1,10.2,11.8h0.3c0.2,0,0.2-0.1,0.2-0.3l-0.1-0.1c-0.1-0.2-3-3.6-8.8-10.3
	c-0.1-0.3-0.6-0.9-1.7-1.8h-0.3V218z"/>
<path class="st19" d="M446.2,216.7l0.2,0.8l9.5,10.9c0.4,0.7,0.8,1,1,1c-0.1-0.3,0-0.5,0.1-0.5C450.1,221,446.5,217,446.2,216.7
	L446.2,216.7L446.2,216.7z"/>
<path class="st19" d="M446.6,215.7l-0.2,0.4l10.5,12.1h0.3v-0.8c-2.8-2.9-6.3-6.8-10.5-11.8h-0.1V215.7z"/>
<path class="st19" d="M446.6,215l0.1,0.1c3.3,3.9,6.8,7.9,10.4,11.9l0.1,0.3h0.3l-0.1-0.6c-5.6-6.2-8.5-9.6-8.8-10l-1.8-1.9
	C446.6,214.7,446.5,214.8,446.6,215z"/>
<path class="st19" d="M446.8,213.5c0,0.4,0.1,0.7,0.1,0.8c5.6,6.4,9.1,10.4,10.6,11.9c0.1-0.3,0.1-0.5,0-0.8
	c-1.3-1.2-4.7-5.1-10.4-11.9H446.8z"/>
<path class="st19" d="M447,212.2v0.8l10.3,12h0.1c0.2-0.1,0.3-0.3,0.2-0.8c-0.9-0.8-4.3-4.8-10.5-12H447z"/>
<path class="st19" d="M447.1,211.2c0.1,0.2,0.1,0.4,0,0.5l10.5,12.1c0.1,0,0.2-0.2,0.2-0.5l-3.3-3.8
	C450.9,215.2,448.4,212.5,447.1,211.2L447.1,211.2L447.1,211.2z"/>
<path class="st19" d="M447.3,210.2l-0.1,0.3l0.1,0.4c2.3,2.5,5.8,6.5,10.3,11.9h0.1c0.1,0,0.2-0.2,0.2-0.6
	C454.4,218.2,450.9,214.2,447.3,210.2L447.3,210.2L447.3,210.2z"/>
<path class="st19" d="M447.4,209.1l0.1,0.6v0.1c3.4,3.8,6.9,7.8,10.4,11.9h0.1l0.2-0.4c-0.5-0.8-4.1-4.9-10.6-12.3L447.4,209.1
	L447.4,209.1z"/>
<path class="st19" d="M447.5,208.6c2.7,2.8,6.2,6.7,10.4,11.9l0.3,0.1l0.1-0.5c-2.1-2.5-5.6-6.5-10.5-12h-0.1
	C447.6,208.1,447.6,208.3,447.5,208.6z"/>
<path class="st19" d="M447.7,207.1c0,0.1,0,0.2,0,0.4c1.4,1.3,4.8,5.2,10.4,11.8l0.3,0.1h0.1v-0.1c-1.5-2-4.5-5.4-9-10.4
	C448.5,207.7,447.9,207.1,447.7,207.1L447.7,207.1z"/>
<path class="st19" d="M447.8,206.2l0.1,0.4c4,4.5,7.6,8.4,10.6,11.9h0.1l-0.1-0.6v-0.1l-10.3-11.8h-0.3
	C447.8,206,447.8,206.1,447.8,206.2z"/>
<path class="st19" d="M448,204.8c0.1,0.2,0.1,0.3,0,0.3c6.9,8,10.4,12,10.6,12.1c0.2,0,0.2-0.1,0.2-0.3c-0.1-0.3-1.8-2.3-5.1-6.1
	c-2.5-2.7-4.4-4.7-5.4-6H448z"/>
<path class="st19" d="M448.2,203.7l0.1,0.6c2.9,3,6.4,7,10.4,11.9h0.1l0.2-0.6c-4-4.5-6.1-6.9-6.1-7c-1.6-1.9-2.9-3.1-3.6-3.8
	c-0.2-0.6-0.4-0.9-0.8-1.1L448.2,203.7L448.2,203.7z"/>
<path class="st19" d="M448.3,202.8v0.1c3.8,4.1,7.4,8.1,10.8,12.1c-0.1-0.2,0-0.4,0.1-0.6c-2.4-2.6-4.9-5.5-7.6-8.6
	c-1.8-2-2.7-3-2.9-3H448.3z"/>
<path class="st19" d="M448.6,201.3c-0.1,0.3-0.1,0.6,0,0.8c3.9,4.3,7.4,8.3,10.4,11.9h0.3l-0.1-0.6L448.6,201.3z"/>
<path class="st19" d="M449.4,201.3l0.1,0.4c5.5,6.4,8.8,10.1,9.8,11.1l-0.3-1l-8.6-9.6C449.8,201.6,449.5,201.3,449.4,201.3z"/>
<path class="st19" d="M449.7,200.8l0.1,0.4c0.8,0.8,3.9,4.2,9.3,10.4l0.4,0.3h0.1c0-0.2-1.6-2-4.8-5.5c-2.8-3.3-4.5-5.1-5-5.5
	L449.7,200.8L449.7,200.8z"/>
<polygon class="st19" points="450.4,248.7 450.7,248.7 450.8,248.9 450.5,248.9 "/>
<path class="st19" d="M450.6,200.8c5.2,6.1,8.5,9.8,9.8,11h0.3v-0.1c-4.7-5.2-7.9-8.8-9.6-10.9H450.6z"/>
<path class="st19" d="M451.5,200.8c5.4,6.2,8.7,9.9,9.9,11h0.1c-0.1-0.3-2.4-3-7-8c-1.8-2-2.7-3-2.8-3H451.5z"/>
<path class="st19" d="M452.5,200.8v0.1l7.9,8.9c1.1,1.3,1.7,2,1.8,2c0.2,0,0.2-0.1,0.2-0.3c-3.6-3.9-6.9-7.5-9.7-10.8h-0.2V200.8z"
	/>
<polygon class="st19" points="453.3,200.8 453.4,201 463.1,211.8 463.4,211.8 463.3,211.7 453.8,201 453.5,200.8 "/>
<path class="st19" d="M454.2,200.8l9.8,11h0.3l-0.1-0.3c-6.4-7.1-9.6-10.7-9.6-10.8h-0.4V200.8z"/>
<path class="st19" d="M455.3,200.8l0.1,0.3l5.3,6c0.1,0.1,1.5,1.7,4.2,4.8h0.3c-0.1-0.3-3.2-3.8-9.3-10.8L455.3,200.8z"/>
<path class="st19" d="M456.1,200.8l9.8,11h0.3l-0.1-0.3c-3.8-4.2-6.5-7.2-8.1-9c-1-1.2-1.6-1.8-1.7-1.8h-0.2V200.8z"/>
<path class="st19" d="M457,200.8c4.2,4.6,6.5,7.3,7,7.9l2.9,3.1h0.1v-0.1c0-0.1-3.1-3.5-9-10.1l-0.6-0.8L457,200.8L457,200.8z"/>
<path class="st19" d="M458,200.8l0.1,0.3c1,0.9,2.3,2.4,3.9,4.4c2.1,2.2,3.9,4.3,5.7,6.4h0.1l-0.1-0.3c0-0.2-2.4-2.9-7.1-8.1
	c-0.3-0.2-1.1-1.1-2.4-2.6L458,200.8L458,200.8z"/>
<path class="st19" d="M459,200.8l0.1,0.3c3.8,4.2,7,7.8,9.5,10.8h0.5l-9.8-10.9L459,200.8z"/>
<polygon class="st19" points="460.5,200.5 460.6,200.7 460.7,200.7 460.6,200.5 "/>
<path class="st19" d="M461.2,201.2l0.2,0.5c0.2,0,0.3,0.1,0.4,0.4h0.1V202c-0.3-0.3-0.4-0.5-0.5-0.8L461.2,201.2L461.2,201.2z"/>
<path class="st19" d="M462,202.3c0.1,0.2,0.2,0.3,0.3,0.3l-0.1-0.3H462z"/>
<path class="st19" d="M462.4,202.7v0.1c0.5,0.5,0.7,0.8,0.8,0.8v-0.1C462.8,203,462.5,202.7,462.4,202.7z"/>
<circle class="st18" cx="354.8" cy="247" r="43.1"/>
<circle class="st18" cx="503.4" cy="101.5" r="11.2"/>
<path class="st20" d="M293.4,106.8c0,0.7-0.1,1.3-0.4,1.9s-0.7,1.1-1.2,1.6c-0.2,0.2-0.5,0.4-0.8,0.5c-0.3,0.2-0.6,0.3-1,0.4
	s-0.7,0.2-1.2,0.3c-0.4,0.1-0.9,0.1-1.4,0.1s-1,0-1.5-0.1s-0.9-0.1-1.4-0.2c-0.4-0.1-0.8-0.2-1.2-0.3c-0.4-0.1-0.7-0.3-1-0.4V107
	h1.4c0.3,0.2,0.6,0.3,0.8,0.5c0.3,0.1,0.5,0.2,0.8,0.3c0.3,0.1,0.6,0.2,0.8,0.2c0.2,0,0.4,0.1,0.6,0.1c0.1,0,0.2,0,0.4,0
	c0.1,0,0.2,0,0.4-0.1c0.1,0,0.2-0.1,0.4-0.1c0.1,0,0.2-0.1,0.3-0.2l0,0c0.1-0.1,0.2-0.2,0.3-0.4c0.1-0.1,0.1-0.4,0.1-0.7
	c0-0.3,0-0.5-0.1-0.6s-0.2-0.2-0.3-0.2c-0.2-0.1-0.5-0.1-0.7-0.1h-0.3c-0.1,0-0.2,0-0.3,0c-0.1,0-0.2,0-0.3,0h-1.3v-3.4h1.3
	c0.3,0,0.6,0,0.8-0.1c0.3,0,0.5-0.1,0.7-0.2c0.1-0.1,0.2-0.1,0.2-0.3c0.1-0.1,0.1-0.3,0.1-0.5s0-0.3-0.1-0.4c0-0.1-0.1-0.2-0.2-0.2
	l0,0c-0.2-0.1-0.3-0.1-0.5-0.2c-0.2,0-0.4,0-0.5,0c-0.2,0-0.5,0-0.8,0.1s-0.5,0.2-0.8,0.3c0,0-0.1,0-0.1,0.1c-0.1,0-0.1,0.1-0.2,0.1
	s-0.2,0.1-0.3,0.1h-0.1c-0.1,0.1-0.1,0.1-0.1,0.1l0,0c0,0,0,0,0-0.1l0,0c0,0,0,0-0.1,0c0,0,0,0-0.1,0s-0.1,0.1-0.2,0.1
	c-0.1,0.1-0.1,0.1-0.2,0.1h-1.4v-3.6c0.4-0.1,0.7-0.3,1.1-0.4s0.8-0.3,1.2-0.4c0.4-0.1,0.8-0.2,1.2-0.2c0.4-0.1,0.8-0.1,1.3-0.1
	c0.9,0,1.6,0.1,2.2,0.2s1.2,0.4,1.6,0.6c0.5,0.4,1,0.8,1.2,1.3c0.3,0.5,0.4,1,0.4,1.6c0,0.4-0.1,0.8-0.2,1.2
	c-0.1,0.4-0.3,0.7-0.6,1.1c-0.1,0.1-0.2,0.3-0.4,0.4c-0.1,0.1-0.3,0.2-0.4,0.3c0.3,0.1,0.6,0.3,0.8,0.5c0.1,0.1,0.3,0.3,0.4,0.5
	s0.3,0.4,0.4,0.6s0.2,0.5,0.3,0.7C293.3,106.2,293.4,106.5,293.4,106.8z"/>
<path class="st20" d="M305.8,104.1c0,1.2-0.1,2.2-0.3,3.1c-0.2,0.9-0.5,1.7-0.9,2.3c-0.4,0.7-1,1.2-1.7,1.5s-1.6,0.5-2.7,0.5
	s-2-0.1-2.7-0.5c-0.7-0.3-1.3-0.8-1.8-1.5c-0.4-0.6-0.7-1.4-0.9-2.3c-0.2-0.9-0.3-1.9-0.3-3.1c0-0.6,0-1.1,0.1-1.7
	c0-0.5,0.1-1,0.2-1.4s0.2-0.8,0.4-1.2c0.2-0.4,0.3-0.7,0.6-1.1l0,0c0.4-0.7,1-1.2,1.8-1.5c0.7-0.3,1.6-0.5,2.6-0.5
	c0.5,0,1,0,1.5,0.1c0.4,0.1,0.9,0.2,1.2,0.4c0.4,0.2,0.7,0.4,1,0.6s0.5,0.5,0.8,0.9c0.4,0.6,0.8,1.4,1,2.3
	C305.6,101.9,305.7,102.9,305.8,104.1z M301,104.1c0-0.8,0-1.4-0.1-2c-0.1-0.5-0.2-0.9-0.3-1.2c-0.1-0.4-0.3-0.6-0.5-0.6
	s-0.4,0.2-0.5,0.6c-0.1,0.3-0.2,0.7-0.2,1.3c-0.1,0.5-0.1,1.2-0.1,2c0,0.7,0,1.4,0.1,1.9s0.2,1,0.3,1.3c0.1,0.2,0.2,0.3,0.3,0.4
	c0.1,0.1,0.2,0.2,0.3,0.2c0.1,0,0.2-0.1,0.3-0.2c0.1-0.1,0.2-0.3,0.3-0.5l0,0c0.1-0.3,0.2-0.7,0.3-1.3
	C301,105.5,301,104.9,301,104.1z"/>
<path class="st20" d="M324.5,102.7c0,1.2-0.2,2.4-0.7,3.4c-0.5,1.1-1.1,2-1.9,2.8s-1.7,1.4-2.8,1.9c-1.1,0.5-2.2,0.7-3.4,0.7
	c-0.3,0-0.6,0-0.9,0s-0.6-0.1-1-0.1l0.8-4c0.2,0,0.4,0.1,0.5,0.1c0.2,0,0.3,0,0.5,0c0.7,0,1.3-0.1,1.9-0.4s1.1-0.6,1.6-1.1
	c0.4-0.4,0.8-1,1-1.6c0.3-0.6,0.4-1.2,0.4-1.9l-0.1-7h4.1V102.7z"/>
<path class="st20" d="M339.6,105.2c0,0.7-0.1,1.4-0.3,2c-0.2,0.6-0.5,1.2-1,1.7c-0.4,0.5-0.9,0.9-1.5,1.3s-1.2,0.7-1.8,0.9
	c-0.3,0.1-0.6,0.2-0.9,0.2c-0.3,0.1-0.6,0.1-0.9,0.1s-0.6,0-0.9-0.1s-0.6-0.1-0.9-0.2c-0.7-0.2-1.3-0.5-1.9-0.8
	c-0.6-0.4-1.1-0.8-1.5-1.3s-0.8-1.1-1-1.7s-0.4-1.3-0.4-2l-0.1-9.8h4.3l0.1,9.5c0,0.3,0.1,0.6,0.2,0.8c0.1,0.2,0.3,0.5,0.5,0.6
	c0.2,0.2,0.4,0.3,0.7,0.4c0.3,0.1,0.5,0.1,0.8,0.1s0.6-0.1,0.8-0.2c0.3-0.1,0.5-0.2,0.7-0.4c0.2-0.2,0.4-0.4,0.5-0.6
	s0.2-0.5,0.2-0.8l-0.1-9.5h4.3L339.6,105.2z"/>
<path class="st20" d="M341.4,110.8l-0.1-15.4h4.3l0.1,11.6l8.1-0.1v3.8L341.4,110.8z"/>
<path class="st20" d="M361.6,105.3v5.3h-4.4v-5.3l-5.5-10h4.8l2.8,5.3l2.7-5.4h4.8L361.6,105.3z"/>
<path class="st18" d="M293.4,106.8c0,0.7-0.1,1.3-0.4,1.9s-0.7,1.1-1.2,1.6c-0.2,0.2-0.5,0.4-0.8,0.5c-0.3,0.2-0.6,0.3-1,0.4
	s-0.7,0.2-1.2,0.3c-0.4,0.1-0.9,0.1-1.4,0.1s-1,0-1.5-0.1s-0.9-0.1-1.4-0.2c-0.4-0.1-0.8-0.2-1.2-0.3c-0.4-0.1-0.7-0.3-1-0.4V107
	h1.4c0.3,0.2,0.6,0.3,0.8,0.5c0.3,0.1,0.5,0.2,0.8,0.3c0.3,0.1,0.6,0.2,0.8,0.2c0.2,0,0.4,0.1,0.6,0.1c0.1,0,0.2,0,0.4,0
	c0.1,0,0.2,0,0.4-0.1c0.1,0,0.2-0.1,0.4-0.1c0.1,0,0.2-0.1,0.3-0.2l0,0c0.1-0.1,0.2-0.2,0.3-0.4c0.1-0.1,0.1-0.4,0.1-0.7
	c0-0.3,0-0.5-0.1-0.6s-0.2-0.2-0.3-0.2c-0.2-0.1-0.5-0.1-0.7-0.1h-0.3c-0.1,0-0.2,0-0.3,0c-0.1,0-0.2,0-0.3,0h-1.3v-3.4h1.3
	c0.3,0,0.6,0,0.8-0.1c0.3,0,0.5-0.1,0.7-0.2c0.1-0.1,0.2-0.1,0.2-0.3c0.1-0.1,0.1-0.3,0.1-0.5s0-0.3-0.1-0.4c0-0.1-0.1-0.2-0.2-0.2
	l0,0c-0.2-0.1-0.3-0.1-0.5-0.2c-0.2,0-0.4,0-0.5,0c-0.2,0-0.5,0-0.8,0.1s-0.5,0.2-0.8,0.3c0,0-0.1,0-0.1,0.1c-0.1,0-0.1,0.1-0.2,0.1
	s-0.2,0.1-0.3,0.1h-0.1c-0.1,0.1-0.1,0.1-0.1,0.1l0,0c0,0,0,0,0-0.1l0,0c0,0,0,0-0.1,0c0,0,0,0-0.1,0s-0.1,0.1-0.2,0.1
	c-0.1,0.1-0.1,0.1-0.2,0.1h-1.4v-3.6c0.4-0.1,0.7-0.3,1.1-0.4s0.8-0.3,1.2-0.4c0.4-0.1,0.8-0.2,1.2-0.2c0.4-0.1,0.8-0.1,1.3-0.1
	c0.9,0,1.6,0.1,2.2,0.2s1.2,0.4,1.6,0.6c0.5,0.4,1,0.8,1.2,1.3c0.3,0.5,0.4,1,0.4,1.6c0,0.4-0.1,0.8-0.2,1.2
	c-0.1,0.4-0.3,0.7-0.6,1.1c-0.1,0.1-0.2,0.3-0.4,0.4c-0.1,0.1-0.3,0.2-0.4,0.3c0.3,0.1,0.6,0.3,0.8,0.5c0.1,0.1,0.3,0.3,0.4,0.5
	s0.3,0.4,0.4,0.6s0.2,0.5,0.3,0.7C293.3,106.2,293.4,106.5,293.4,106.8z"/>
<path class="st18" d="M305.8,104.1c0,1.2-0.1,2.2-0.3,3.1c-0.2,0.9-0.5,1.7-0.9,2.3c-0.4,0.7-1,1.2-1.7,1.5s-1.6,0.5-2.7,0.5
	s-2-0.1-2.7-0.5c-0.7-0.3-1.3-0.8-1.8-1.5c-0.4-0.6-0.7-1.4-0.9-2.3c-0.2-0.9-0.3-1.9-0.3-3.1c0-0.6,0-1.1,0.1-1.7
	c0-0.5,0.1-1,0.2-1.4s0.2-0.8,0.4-1.2c0.2-0.4,0.3-0.7,0.6-1.1l0,0c0.4-0.7,1-1.2,1.8-1.5c0.7-0.3,1.6-0.5,2.6-0.5
	c0.5,0,1,0,1.5,0.1c0.4,0.1,0.9,0.2,1.2,0.4c0.4,0.2,0.7,0.4,1,0.6s0.5,0.5,0.8,0.9c0.4,0.6,0.8,1.4,1,2.3
	C305.6,101.9,305.7,102.9,305.8,104.1z M301,104.1c0-0.8,0-1.4-0.1-2c-0.1-0.5-0.2-0.9-0.3-1.2c-0.1-0.4-0.3-0.6-0.5-0.6
	s-0.4,0.2-0.5,0.6c-0.1,0.3-0.2,0.7-0.2,1.3c-0.1,0.5-0.1,1.2-0.1,2c0,0.7,0,1.4,0.1,1.9s0.2,1,0.3,1.3c0.1,0.2,0.2,0.3,0.3,0.4
	c0.1,0.1,0.2,0.2,0.3,0.2c0.1,0,0.2-0.1,0.3-0.2c0.1-0.1,0.2-0.3,0.3-0.5l0,0c0.1-0.3,0.2-0.7,0.3-1.3
	C301,105.5,301,104.9,301,104.1z"/>
<path class="st18" d="M324.5,102.7c0,1.2-0.2,2.4-0.7,3.4c-0.5,1.1-1.1,2-1.9,2.8s-1.7,1.4-2.8,1.9c-1.1,0.5-2.2,0.7-3.4,0.7
	c-0.3,0-0.6,0-0.9,0s-0.6-0.1-1-0.1l0.8-4c0.2,0,0.4,0.1,0.5,0.1c0.2,0,0.3,0,0.5,0c0.7,0,1.3-0.1,1.9-0.4s1.1-0.6,1.6-1.1
	c0.4-0.4,0.8-1,1-1.6c0.3-0.6,0.4-1.2,0.4-1.9l-0.1-7h4.1V102.7z"/>
<path class="st18" d="M339.6,105.2c0,0.7-0.1,1.4-0.3,2c-0.2,0.6-0.5,1.2-1,1.7c-0.4,0.5-0.9,0.9-1.5,1.3s-1.2,0.7-1.8,0.9
	c-0.3,0.1-0.6,0.2-0.9,0.2c-0.3,0.1-0.6,0.1-0.9,0.1s-0.6,0-0.9-0.1s-0.6-0.1-0.9-0.2c-0.7-0.2-1.3-0.5-1.9-0.8
	c-0.6-0.4-1.1-0.8-1.5-1.3s-0.8-1.1-1-1.7s-0.4-1.3-0.4-2l-0.1-9.8h4.3l0.1,9.5c0,0.3,0.1,0.6,0.2,0.8c0.1,0.2,0.3,0.5,0.5,0.6
	c0.2,0.2,0.4,0.3,0.7,0.4c0.3,0.1,0.5,0.1,0.8,0.1s0.6-0.1,0.8-0.2c0.3-0.1,0.5-0.2,0.7-0.4c0.2-0.2,0.4-0.4,0.5-0.6
	s0.2-0.5,0.2-0.8l-0.1-9.5h4.3L339.6,105.2z"/>
<path class="st18" d="M341.4,110.8l-0.1-15.4h4.3l0.1,11.6l8.1-0.1v3.8L341.4,110.8z"/>
<path class="st18" d="M361.6,105.3v5.3h-4.4v-5.3l-5.5-10h4.8l2.8,5.3l2.7-5.4h4.8L361.6,105.3z"/>
<path class="st21" d="M339,89.7h-8.1v-2.1c0.6-0.5,1.1-1,1.6-1.4c0.5-0.5,0.9-0.9,1.3-1.3l0,0c0.2-0.2,0.4-0.4,0.5-0.6
	c0.2-0.2,0.3-0.4,0.4-0.6c0.1-0.1,0.1-0.3,0.2-0.5c0-0.2,0.1-0.3,0.1-0.5c0-0.3-0.1-0.6-0.2-0.7c-0.2-0.2-0.4-0.3-0.7-0.3
	c-0.2,0-0.3,0-0.5,0.1s-0.4,0.1-0.6,0.2l0,0c-0.1,0.1-0.2,0.1-0.4,0.2c-0.1,0.1-0.2,0.2-0.3,0.2c0,0-0.1,0-0.1,0.1l-0.1,0.1h-1.1
	v-2.7c0.2-0.1,0.5-0.2,0.8-0.3c0.3-0.1,0.6-0.2,0.9-0.3c0.6-0.1,1.2-0.2,1.8-0.2c0.7,0,1.2,0.1,1.7,0.2s0.9,0.4,1.2,0.7
	c0.3,0.3,0.6,0.6,0.8,1c0.2,0.4,0.3,0.9,0.3,1.4c0,0.3,0,0.6-0.1,0.9c-0.1,0.3-0.2,0.6-0.3,0.9c-0.1,0.3-0.3,0.6-0.6,0.9
	c-0.2,0.3-0.5,0.7-0.8,1c-0.2,0.2-0.3,0.3-0.5,0.5c-0.2,0.2-0.4,0.3-0.5,0.5h3.3L339,89.7L339,89.7z"/>
<path class="st21" d="M348,84.4c0,0.9-0.1,1.6-0.2,2.3c-0.1,0.7-0.4,1.2-0.7,1.7c-0.3,0.5-0.8,0.9-1.3,1.1c-0.5,0.2-1.2,0.4-2,0.4
	s-1.5-0.1-2-0.4c-0.5-0.2-1-0.6-1.3-1.1s-0.5-1-0.7-1.7c-0.1-0.7-0.2-1.4-0.2-2.3c0-0.4,0-0.9,0.1-1.2c0-0.4,0.1-0.7,0.2-1.1
	c0.1-0.3,0.2-0.6,0.3-0.9c0.1-0.3,0.3-0.5,0.4-0.8l0,0c0.3-0.5,0.8-0.9,1.3-1.1c0.5-0.2,1.2-0.4,2-0.4c0.4,0,0.8,0,1.1,0.1
	c0.3,0.1,0.6,0.2,0.9,0.3c0.3,0.1,0.5,0.3,0.7,0.5c0.2,0.2,0.4,0.4,0.6,0.7c0.3,0.5,0.6,1.1,0.7,1.7C348,82.8,348,83.6,348,84.4z
	 M344.5,84.4c0-0.6,0-1.1-0.1-1.5c0-0.4-0.1-0.7-0.2-0.9c-0.1-0.3-0.2-0.5-0.4-0.5c-0.1,0-0.3,0.2-0.4,0.5c-0.1,0.2-0.1,0.5-0.2,0.9
	c0,0.4-0.1,0.9-0.1,1.5c0,0.5,0,1,0.1,1.4c0,0.4,0.1,0.7,0.2,1c0.1,0.1,0.1,0.2,0.2,0.3c0.1,0.1,0.1,0.1,0.2,0.1s0.1,0,0.2-0.1
	c0.1-0.1,0.1-0.2,0.2-0.4l0,0c0.1-0.2,0.1-0.5,0.2-0.9C344.4,85.5,344.5,85,344.5,84.4z"/>
<path class="st21" d="M356.8,89.7h-7.4v-2.5h2v-4.3h-2v-2.4c0.2,0,0.4,0,0.6,0s0.4,0,0.5,0c0.2,0,0.3,0,0.4-0.1
	c0.1,0,0.2-0.1,0.3-0.1c0.1-0.1,0.2-0.2,0.3-0.4c0.1-0.2,0.1-0.4,0.1-0.8h3.2v8h1.9v2.6H356.8z"/>
<path class="st21" d="M366.3,86c0,1.1-0.4,2-1.1,2.8l0,0c-0.7,0.8-1.7,1.1-3,1.1c-0.7,0-1.2-0.1-1.7-0.3s-0.9-0.5-1.3-0.8
	c-0.4-0.4-0.7-1-0.9-1.6c-0.2-0.6-0.3-1.4-0.3-2.2c0-0.9,0.1-1.7,0.3-2.4c0.2-0.7,0.5-1.3,0.9-1.9c0.4-0.5,1-1,1.7-1.3
	c0.7-0.3,1.5-0.4,2.5-0.4c0.2,0,0.4,0,0.5,0c0.2,0,0.3,0,0.5,0.1c0.2,0,0.3,0,0.5,0.1c0.2,0,0.4,0.1,0.6,0.1v2.6h-1
	c-0.1,0-0.1-0.1-0.2-0.1s-0.2-0.1-0.3-0.1c-0.1,0-0.2-0.1-0.3-0.1c-0.1,0-0.2,0-0.4,0c-0.4,0-0.7,0.1-1,0.3
	c-0.3,0.2-0.5,0.4-0.6,0.8c0.4-0.1,0.7-0.2,1.2-0.2c0.4,0,0.8,0.1,1.2,0.2c0.4,0.1,0.7,0.3,1,0.5c0.4,0.3,0.7,0.7,0.9,1.2
	C366.2,84.7,366.3,85.3,366.3,86z M361.5,84.9L361.5,84.9C361.5,84.9,361.5,85,361.5,84.9c0,0.1-0.1,0.1-0.1,0.1h-0.1l-0.1-0.5h0.4
	L361.5,84.9L361.5,84.9z M362.2,87.4h0.1c0.1,0,0.1-0.1,0.2-0.2l0,0c0.1-0.1,0.1-0.2,0.2-0.4l0,0c0-0.1,0-0.2,0.1-0.3
	c0-0.1,0-0.3,0-0.4c0-0.3,0-0.5-0.1-0.6c0-0.2-0.1-0.3-0.2-0.3c-0.1-0.1-0.2-0.1-0.3-0.2c-0.1,0-0.2,0-0.3,0c-0.1,0-0.1,0-0.2,0
	s-0.1,0-0.2,0.1c0,0,0,0.1,0,0.2c0,0.1,0,0.1,0,0.2c0,0.5,0,0.9,0.1,1.2c0.1,0.3,0.2,0.5,0.3,0.7C362,87.4,362.1,87.4,362.2,87.4z
	 M362.5,87.2L362.5,87.2l0.2,0.4L362.5,87.2z"/>
<path class="st18" d="M339,89.7h-8.1v-2.1c0.6-0.5,1.1-1,1.6-1.4c0.5-0.5,0.9-0.9,1.3-1.3l0,0c0.2-0.2,0.4-0.4,0.5-0.6
	c0.2-0.2,0.3-0.4,0.4-0.6c0.1-0.1,0.1-0.3,0.2-0.5c0-0.2,0.1-0.3,0.1-0.5c0-0.3-0.1-0.6-0.2-0.7c-0.2-0.2-0.4-0.3-0.7-0.3
	c-0.2,0-0.3,0-0.5,0.1s-0.4,0.1-0.6,0.2l0,0c-0.1,0.1-0.2,0.1-0.4,0.2c-0.1,0.1-0.2,0.2-0.3,0.2c0,0-0.1,0-0.1,0.1l-0.1,0.1h-1.1
	v-2.7c0.2-0.1,0.5-0.2,0.8-0.3c0.3-0.1,0.6-0.2,0.9-0.3c0.6-0.1,1.2-0.2,1.8-0.2c0.7,0,1.2,0.1,1.7,0.2s0.9,0.4,1.2,0.7
	c0.3,0.3,0.6,0.6,0.8,1c0.2,0.4,0.3,0.9,0.3,1.4c0,0.3,0,0.6-0.1,0.9c-0.1,0.3-0.2,0.6-0.3,0.9c-0.1,0.3-0.3,0.6-0.6,0.9
	c-0.2,0.3-0.5,0.7-0.8,1c-0.2,0.2-0.3,0.3-0.5,0.5c-0.2,0.2-0.4,0.3-0.5,0.5h3.3L339,89.7L339,89.7z"/>
<path class="st18" d="M348,84.4c0,0.9-0.1,1.6-0.2,2.3c-0.1,0.7-0.4,1.2-0.7,1.7c-0.3,0.5-0.8,0.9-1.3,1.1c-0.5,0.2-1.2,0.4-2,0.4
	s-1.5-0.1-2-0.4c-0.5-0.2-1-0.6-1.3-1.1s-0.5-1-0.7-1.7c-0.1-0.7-0.2-1.4-0.2-2.3c0-0.4,0-0.9,0.1-1.2c0-0.4,0.1-0.7,0.2-1.1
	c0.1-0.3,0.2-0.6,0.3-0.9c0.1-0.3,0.3-0.5,0.4-0.8l0,0c0.3-0.5,0.8-0.9,1.3-1.1c0.5-0.2,1.2-0.4,2-0.4c0.4,0,0.8,0,1.1,0.1
	c0.3,0.1,0.6,0.2,0.9,0.3c0.3,0.1,0.5,0.3,0.7,0.5c0.2,0.2,0.4,0.4,0.6,0.7c0.3,0.5,0.6,1.1,0.7,1.7C348,82.8,348,83.6,348,84.4z
	 M344.5,84.4c0-0.6,0-1.1-0.1-1.5c0-0.4-0.1-0.7-0.2-0.9c-0.1-0.3-0.2-0.5-0.4-0.5c-0.1,0-0.3,0.2-0.4,0.5c-0.1,0.2-0.1,0.5-0.2,0.9
	c0,0.4-0.1,0.9-0.1,1.5c0,0.5,0,1,0.1,1.4c0,0.4,0.1,0.7,0.2,1c0.1,0.1,0.1,0.2,0.2,0.3c0.1,0.1,0.1,0.1,0.2,0.1s0.1,0,0.2-0.1
	c0.1-0.1,0.1-0.2,0.2-0.4l0,0c0.1-0.2,0.1-0.5,0.2-0.9C344.4,85.5,344.5,85,344.5,84.4z"/>
<path class="st18" d="M356.8,89.7h-7.4v-2.5h2v-4.3h-2v-2.4c0.2,0,0.4,0,0.6,0s0.4,0,0.5,0c0.2,0,0.3,0,0.4-0.1
	c0.1,0,0.2-0.1,0.3-0.1c0.1-0.1,0.2-0.2,0.3-0.4c0.1-0.2,0.1-0.4,0.1-0.8h3.2v8h1.9v2.6H356.8z"/>
<path class="st18" d="M366.3,86c0,1.1-0.4,2-1.1,2.8l0,0c-0.7,0.8-1.7,1.1-3,1.1c-0.7,0-1.2-0.1-1.7-0.3s-0.9-0.5-1.3-0.8
	c-0.4-0.4-0.7-1-0.9-1.6c-0.2-0.6-0.3-1.4-0.3-2.2c0-0.9,0.1-1.7,0.3-2.4c0.2-0.7,0.5-1.3,0.9-1.9c0.4-0.5,1-1,1.7-1.3
	c0.7-0.3,1.5-0.4,2.5-0.4c0.2,0,0.4,0,0.5,0c0.2,0,0.3,0,0.5,0.1c0.2,0,0.3,0,0.5,0.1c0.2,0,0.4,0.1,0.6,0.1v2.6h-1
	c-0.1,0-0.1-0.1-0.2-0.1s-0.2-0.1-0.3-0.1c-0.1,0-0.2-0.1-0.3-0.1c-0.1,0-0.2,0-0.4,0c-0.4,0-0.7,0.1-1,0.3
	c-0.3,0.2-0.5,0.4-0.6,0.8c0.4-0.1,0.7-0.2,1.2-0.2c0.4,0,0.8,0.1,1.2,0.2c0.4,0.1,0.7,0.3,1,0.5c0.4,0.3,0.7,0.7,0.9,1.2
	C366.2,84.7,366.3,85.3,366.3,86z M361.5,84.9L361.5,84.9C361.5,84.9,361.5,85,361.5,84.9c0,0.1-0.1,0.1-0.1,0.1h-0.1l-0.1-0.5h0.4
	L361.5,84.9L361.5,84.9z M362.2,87.4h0.1c0.1,0,0.1-0.1,0.2-0.2l0,0c0.1-0.1,0.1-0.2,0.2-0.4l0,0c0-0.1,0-0.2,0.1-0.3
	c0-0.1,0-0.3,0-0.4c0-0.3,0-0.5-0.1-0.6c0-0.2-0.1-0.3-0.2-0.3c-0.1-0.1-0.2-0.1-0.3-0.2c-0.1,0-0.2,0-0.3,0c-0.1,0-0.1,0-0.2,0
	s-0.1,0-0.2,0.1c0,0,0,0.1,0,0.2c0,0.1,0,0.1,0,0.2c0,0.5,0,0.9,0.1,1.2c0.1,0.3,0.2,0.5,0.3,0.7C362,87.4,362.1,87.4,362.2,87.4z
	 M362.5,87.2L362.5,87.2l0.2,0.4L362.5,87.2z"/>
<path d="M368.3,243.4h-29.7v-47.3h14.7v32.6h15.1v14.7H368.3z"/>
<path d="M405.7,238.9c-4.1,4-8.9,6.1-14.6,6.1s-10.6-2.1-14.6-6.1c-4-4.1-6.1-9-6.1-14.6c0-5.7,2.1-10.6,6.1-14.6
	c4.1-4.1,8.9-6.1,14.6-6.1s10.6,2.1,14.6,6.1c4.1,4,6.1,8.9,6.1,14.6C411.8,229.9,409.8,234.8,405.7,238.9z M397.2,218.1
	c-1.7-1.7-3.7-2.6-6.1-2.6c-2.5,0-4.5,0.8-6.2,2.6c-1.7,1.7-2.5,3.7-2.5,6.1c0,2.4,0.8,4.5,2.5,6.2s3.7,2.5,6.2,2.5
	c2.4,0,4.4-0.8,6.1-2.5c1.8-1.7,2.6-3.8,2.6-6.2C399.8,221.8,399,219.8,397.2,218.1z"/>
</svg>
