<?xml version="1.0" encoding="utf-8"?>
<!-- Generator: Adobe Illustrator 19.2.1, SVG Export Plug-In . SVG Version: 6.00 Build 0)  -->
<svg version="1.1" id="Layer_1" xmlns="http://www.w3.org/2000/svg" xmlns:xlink="http://www.w3.org/1999/xlink" x="0px" y="0px"
	 viewBox="0 0 851 315" style="enable-background:new 0 0 851 315;" xml:space="preserve">
<style type="text/css">
	.st0{opacity:0.5;}
	.st1{fill:none;stroke:#606060;stroke-width:2;stroke-miterlimit:10;}
	.st2{fill:none;stroke:#606060;stroke-miterlimit:10;}
	.st3{opacity:0.2;}
	.st4{fill:none;stroke:#D01E4A;stroke-width:2;stroke-miterlimit:10;}
	.st5{fill:none;stroke:#D01E4A;stroke-miterlimit:10;}
	.st6{opacity:0.4;}
	.st7{opacity:0.5;fill:none;stroke:#5DC4C1;stroke-width:2;stroke-miterlimit:10;enable-background:new    ;}
	.st8{opacity:0.3;fill:none;stroke:#5DC4C1;stroke-width:2;stroke-miterlimit:10;enable-background:new    ;}
	.st9{opacity:0.5;fill:none;stroke:#5DC4C1;stroke-miterlimit:10;enable-background:new    ;}
	.st10{fill:#A0D9DA;}
	.st11{clip-path:url(#SVGID_2_);fill:#777A7A;}
	.st12{fill:#C0BFBF;stroke:#C0BFBF;stroke-width:9.375000e-002;stroke-miterlimit:10;}
	.st13{fill:#FFFFFF;stroke:#FFFFFF;stroke-width:9.375000e-002;stroke-miterlimit:10;}
	.st14{fill:#A2A2A1;stroke:#A2A2A1;stroke-width:9.375000e-002;stroke-miterlimit:10;}
	.st15{fill:#7A7A7A;stroke:#7A7A7A;stroke-width:9.375000e-002;stroke-miterlimit:10;}
	.st16{fill:#404040;stroke:#404040;stroke-width:9.375000e-002;stroke-miterlimit:10;}
	.st17{fill:#050505;stroke:#050505;stroke-width:9.375000e-002;stroke-miterlimit:10;}
	.st18{fill:#ED1C24;}
	.st19{fill:#FFFFFF;}
	.st20{fill:#B82025;stroke:#F9FAFD;stroke-width:2;stroke-miterlimit:10;}
	.st21{fill:#ED1C24;stroke:#FDFDFE;stroke-width:2;stroke-miterlimit:10;}
</style>
<path class="st18" d="M434.9,198.7h1.4c0.8,0.4,1.9,1.6,3.4,3.5c1,0.9,2.4,2.5,4.2,4.8l1.6,1.5c0.1-0.2,0.1-0.4,0.1-0.5l-6.3-7.1
	l-0.1-0.4c-0.2-1.1,0-1.6,0.7-1.6c0-0.1,0.4-0.1,0.9-0.1h5.5c0.1,0,0.1,0,0.2,0.1c0.1,0,0.1,0,0.1-0.1l1.6,0.1h0.5
	c0.2,0,0.3,0,0.4-0.1c0.2,0.1,0.4,0.1,0.6,0.1h0.3c0.2,0,0.3,0,0.4-0.1l0.3,0.1c0.1,0,0.1,0,0.1-0.1l0.7,0.1h5.1
	c0.1,0,0.1,0,0.2,0.1l0.2-0.1h1.9c0.9,0,1.5,0.3,1.8,0.8l7.8,8.6l0.4,1.3h-0.3c-2.1-2.6-3.9-4.5-5.3-5.8l0.1,0.1l5.7,6.5l0.2,0.6
	H469c-0.1-0.2-0.9-1.1-2.5-2.9c-3.7-4.3-5.8-6.7-6.2-7H460c3.9,4.3,7.1,8,9.6,11l0.1,0.3c0.1,0.2,0,0.3-0.2,0.3h-6.1
	c-0.1,0-0.1,0-0.2-0.1l-0.2,0.1h-2.9c-0.1,1.2-0.4,3.2-0.8,6c-0.8,5.5-1.5,10.5-2.3,14.9c-0.8,7-3,12-6.8,14.9
	c-0.2,0-0.8,0.4-1.9,1.1c-2.5,1.2-5.4,1.8-8.8,1.8c-4.3,0-8.1-1.1-11.3-3.3c-2.3-1.7-3.8-3-4.4-4c-5.1-5-8.1-9.1-9.1-12.3l-0.2-0.5
	c-0.5-1.7-0.3-6.3,0.6-13.8c0.3-2.1,0.5-3.6,0.7-4.4l-0.1-0.5c-6.9-7.8-10.4-11.8-10.5-12l-0.1-0.3l0.5-1.4c1.5-0.1,2.6-0.1,3.3-0.1
	h0.4c0.3,0,0.7,0,1.2,0.1c0.1-0.1,0.3-0.1,0.5-0.1c0.2,0.1,0.3,0.1,0.4,0.1c0.1-0.1,0.3-0.1,0.3-0.1l0.3,0.1l0.7-0.1h0.5
	c0.1,0,0.1,0,0.2,0.1c0.1,0,0.1,0,0.1-0.1c0.9,0.1,1.5,0.1,1.9,0.1h6.4c0.7,0,1.4,0,2.3-0.1l0.3,0.1c0.1-0.1,0.3-0.1,0.3-0.1
	c0.3,0,0.5,0,0.7,0.1C427.3,198.8,430.5,198.7,434.9,198.7z"/>
<path class="st19" d="M406.2,200.7l0.1,0.5c3.5,3.9,5.3,5.9,5.3,6h0.1v-0.1l-5.3-6.1l-0.1-0.3L406.2,200.7L406.2,200.7z"/>
<path class="st19" d="M406.7,200.6c0.1,0.2,2.7,3.4,7.9,9.4c0.7,0.8,1.1,1.3,1.3,1.3c0.2,0,0.2-0.1,0.2-0.3v-0.1
	c-3-3.2-6-6.6-9.1-10.3L406.7,200.6L406.7,200.6z"/>
<path class="st19" d="M407.6,200.6c1.1,1.4,1.6,2.1,1.7,2.1c4.4,5.1,6.7,7.6,6.9,7.6c0-0.2,0-0.3,0-0.4l-8.2-9.4L407.6,200.6
	L407.6,200.6z"/>
<path class="st19" d="M408.5,200.6l0.1,0.1c4.6,5.3,7.2,8.1,7.7,8.5c0-0.1,0-0.1,0.1-0.1c-4.9-5.7-7.5-8.5-7.6-8.5H408.5z"/>
<path class="st19" d="M409.5,200.6l0.1,0.1l6.5,7.5c0,0.1,0.1,0.1,0.2,0.1h0.3l-0.1-0.3l-6.8-7.5L409.5,200.6L409.5,200.6z"/>
<path class="st19" d="M410.4,200.6l0.1,0.1l5.7,6.6v0.1h0.1c0.2,0,0.2-0.1,0.2-0.3l-5.8-6.6L410.4,200.6L410.4,200.6z"/>
<path class="st19" d="M411.4,200.6l0.1,0.3c2.1,2.3,3.7,4.2,4.8,5.6h0.4c-0.1-0.3-1.8-2.2-5-5.9L411.4,200.6L411.4,200.6z"/>
<path class="st19" d="M412.2,207.7v0.1c0.1,0.2,0.2,0.3,0.3,0.3V208C412.4,207.8,412.3,207.7,412.2,207.7z"/>
<path class="st19" d="M412.3,200.6l0.1,0.1l4.2,4.9h0.3l-0.1-0.3c-2.4-2.9-3.9-4.5-4.3-4.8h-0.2V200.6z"/>
<path class="st19" d="M413.3,200.6c0.1,0.1,1.2,1.5,3.4,4.1h0.3c0-0.1,0-0.2,0-0.4c-0.2-0.1-1.3-1.4-3.4-3.8L413.3,200.6
	L413.3,200.6z"/>
<polygon class="st19" points="413.4,209.1 413.5,209.3 413.6,209.3 413.6,209.1 "/>
<path class="st19" d="M413.8,209.6l0.1,0.3c0.4,0.2,0.7,0.6,1.1,1.3h0.1v-0.1c-0.8-0.8-1.1-1.3-1.2-1.4h-0.1V209.6z"/>
<path class="st19" d="M414.1,200.6l0.1,0.1l2.7,3.1l0.2-0.1c-0.5-0.8-1.4-1.9-2.8-3.1H414.1z"/>
<path class="st19" d="M415.1,200.6c0.2,0.5,0.9,1.3,2.1,2.4v-0.1c-0.6-1.1-1.3-1.8-1.9-2.3L415.1,200.6L415.1,200.6z"/>
<path class="st19" d="M415.4,211.3c0.1,0.2,0.2,0.3,0.2,0.4h0.1l-0.1-0.4H415.4z"/>
<path class="st19" d="M416.2,200.7l0.1,0.3c0.5,0.6,0.9,1,1.1,1l-0.2-0.5C417.1,201.3,416.8,201.1,416.2,200.7z"/>
<polygon class="st19" points="417.2,200.7 417.3,201 417.5,201 417.4,200.7 "/>
<path class="st19" d="M418.6,237.1v0.1c2,2.4,4.6,5.4,7.9,9h0.3l-7.5-8.8C419.2,237.5,418.9,237.4,418.6,237.1z"/>
<path class="st19" d="M420.6,238.2v0.1c4.9,5.7,7.7,8.9,8.5,9.6h0.3v-0.1l-5.1-5.8C422.2,239.5,420.9,238.2,420.6,238.2z"/>
<path class="st19" d="M422.2,239v0.1c5.1,5.9,7.9,9.1,8.5,9.6c0.1,0,0.2,0,0.4,0.1l-0.1-0.1C425.4,242.4,422.5,239.1,422.2,239
	L422.2,239L422.2,239z"/>
<path class="st19" d="M423.4,239.4l0.1,0.1l8.7,9.9l0.3,0.1l-0.1-0.3c-2.1-2.5-4.5-5.2-7.2-8.1c-0.1-0.4-0.7-0.9-1.7-1.8h-0.1
	L423.4,239.4L423.4,239.4z"/>
<path class="st19" d="M423.6,228.7l0.3,1c4.8,5.4,7.3,8.3,7.7,8.5h0.6l-0.1-0.1l-8.3-9.4H423.6z"/>
<path class="st19" d="M423.7,230.2v0.5l6.8,7.5c0.2,0.1,0.3,0.1,0.5,0.1h0.1L431,238L423.7,230.2L423.7,230.2L423.7,230.2z"/>
<path class="st19" d="M424,227.1v0.1c0.7,0.7,1.1,1.2,1.2,1.5l-1.4-1.3l-0.1,0.5l0.1,0.4l8.9,10h0.5c-0.4-0.7-3.1-3.7-7.9-9.1
	l-0.1-0.4c0.5,0.4,2.7,2.8,6.4,7.1c1.3,1.5,2.1,2.3,2.3,2.4c0.2-0.1,0.3-0.2,0.3-0.3l-9.8-11.1h-0.3C424,226.9,423.9,227,424,227.1z
	"/>
<path class="st19" d="M423.7,231.2l0.1,0.6l0.2,0.5c3.3,3.7,5.1,5.6,5.3,5.8l0.7,0.1l-0.1-0.3c-0.8-0.8-2.8-3.1-6-6.8L423.7,231.2
	L423.7,231.2z"/>
<path class="st19" d="M424,225.5v0.5c3.3,3.6,6.8,7.6,10.4,11.9l0.3,0.1h0.1c0.2,0,0.2-0.1,0.2-0.3c-5.9-6.8-9.5-10.9-10.8-12.3H424
	V225.5z"/>
<path class="st19" d="M424.1,233v0.5c0.9,1.9,1.9,3.2,2.9,3.9c0.6,0.3,1,0.5,1.3,0.5h0.1C425.8,234.7,424.4,233.1,424.1,233z"/>
<path class="st19" d="M424.2,224.5v0.5l9.1,10.1c0.6,0.9,1.2,1.5,1.7,1.9l-0.1-0.6l-10.3-11.8v-0.1L424.2,224.5L424.2,224.5z"/>
<path class="st19" d="M424.3,223.2l0.1,0.6c6.7,7.6,10.1,11.5,10.1,11.6c0.1,0,0.2-0.3,0.2-0.8c-5.4-6.4-8.8-10.2-10.2-11.5
	L424.3,223.2L424.3,223.2z"/>
<path class="st19" d="M424.5,222.1l0.1,0.6v0.1c3.1,3.3,6.4,7.1,9.9,11.3c0.2-0.1,0.3-0.3,0.2-0.8l-9.9-11.3L424.5,222.1
	L424.5,222.1z"/>
<path class="st19" d="M424.5,239.7c2.3,2.5,5,5.6,8.2,9.4c0.3,0.4,0.5,0.6,0.7,0.6h0.3v-0.1l-8.8-10.1h-0.2
	C424.5,239.5,424.5,239.6,424.5,239.7z"/>
<path class="st19" d="M424.6,221.4v0.1c1.1,1.4,2.5,3.1,4.4,5.1c3.1,3.6,5,5.7,5.6,6.3l-0.1-0.6c-0.1-0.2-3.1-3.6-9.1-10.4
	c-0.4-0.4-0.6-0.6-0.6-0.8h-0.1C424.6,221.1,424.6,221.2,424.6,221.4z"/>
<path class="st19" d="M424.8,219.8l0.1,0.6l0.1,0.3l9.8,11c0-0.1,0-0.3,0.1-0.5v-0.1c-1.8-2.2-4.6-5.4-8.4-9.6
	c-0.6-0.8-1.1-1.4-1.5-1.6L424.8,219.8L424.8,219.8z"/>
<path class="st19" d="M424.8,218.7c0.1,0.3,0.1,0.5,0,0.5c0,0.1,3.1,3.5,9,10.1c0.5,0.8,0.8,1.1,1,1.1l0.1-0.5
	c-2.2-2.4-5.4-6.2-9.8-11.3L424.8,218.7L424.8,218.7z"/>
<path class="st19" d="M424.9,217.5l0.1,0.6c3.7,4.3,7,8.1,9.9,11.3h0.1l-0.1-0.6v-0.1l-9.7-11.1L424.9,217.5L424.9,217.5z"/>
<path class="st19" d="M425,216.3l0.3,0.9l7.9,8.9c0.1,0.2,0.7,0.9,1.7,2l0.1,0.1c0.2,0,0.2-0.3,0.1-0.8c-4-4.5-7.1-8.2-9.6-11.1
	L425,216.3L425,216.3z"/>
<path class="st19" d="M425.4,215.2l-0.2,0.4c0.7,1,3.5,4.3,8.5,10c0.9,0.9,1.4,1.4,1.4,1.4h0.1l-0.1-0.6
	C428.9,219,425.6,215.3,425.4,215.2z"/>
<path class="st19" d="M425.5,214.7c4.9,5.7,8.2,9.4,9.8,11.1h0.1l-0.2-0.9c-2.8-2.9-5.8-6.3-8.9-10.1c-0.2,0-0.4-0.3-0.6-0.8h0.1
	c0.8,0.7,1.5,1.5,2.3,2.5l7,8v0.1h0.1c0.2,0,0.3-0.2,0.2-0.6c-6.4-7.3-9.7-11-9.8-11.1C425.6,213,425.5,213.6,425.5,214.7z"/>
<path class="st19" d="M425.6,239.7v0.1c4.7,5.5,7.7,8.9,8.9,10.1h0.3v-0.1l-8.8-10l-0.3-0.1H425.6z"/>
<path class="st19" d="M425.8,212.3c0.1,0.3,2.5,3.1,7.3,8.5c1.5,1.7,2.3,2.6,2.6,2.8c0.1-0.3,0.1-0.5,0-0.8c-0.6-0.5-3.3-3.5-7.9-9
	c-0.1,0-0.6-0.6-1.6-1.9h-0.3C425.8,212,425.7,212.1,425.8,212.3z"/>
<path class="st19" d="M425.9,210.7l-0.1,0.5c0.1,0.2,2.4,2.8,6.9,8c1,0.9,1.9,2,2.8,3.3h0.3l-0.1-0.6
	C429.8,214.9,426.6,211.2,425.9,210.7z"/>
<path class="st19" d="M426,209.7c0.1,0.2,0.1,0.4,0,0.5c6,7,9.3,10.7,9.8,11.1h0.1l-0.1-0.6l-0.1-0.1c-3.1-3.5-6.1-7-9.1-10.5
	L426,209.7L426,209.7z"/>
<path class="st19" d="M426.2,208.6l0.1,0.6v0.1c2.5,2.6,5.5,5.9,9.1,10.1l0.8,0.8l-0.1-0.6c-6.2-7.1-9.5-10.8-9.8-11L426.2,208.6
	L426.2,208.6z"/>
<path class="st19" d="M426.4,207.5c0.1,0.1,0,0.4-0.1,0.6l9.7,11h0.1c0.1-0.3,0.1-0.6,0-0.8l-9.5-10.8l-0.1-0.1h-0.1V207.5z"/>
<path class="st19" d="M426.5,206.5v0.5c6.3,7.2,9.6,10.9,9.8,11c0.1-0.3,0.1-0.5,0-0.8c-4.8-5.5-8-9-9.6-10.8h-0.2L426.5,206.5
	L426.5,206.5z"/>
<path class="st19" d="M426.7,239.9v0.1l2.7,3.1l5.9,6.8c0.3,0.3,0.4,0.4,0.5,0.4h0.3v-0.1c-5.8-6.5-8.8-10-9.2-10.3H426.7z"/>
<path class="st19" d="M426.7,205.7c5.4,6.2,8.7,9.8,9.9,11l-0.1-0.6V216c-4.8-5.2-7.9-8.8-9.5-10.8h-0.1
	C426.8,205.2,426.8,205.4,426.7,205.7z"/>
<path class="st19" d="M426.9,204.7c1.4,1.7,2.4,2.8,3,3.3l6.7,7.8h0.1c0-0.1,0-0.4,0.1-0.6c-2.1-2.5-5.2-6-9.4-10.6l-0.1-0.1h-0.1
	C427,204.3,426.9,204.5,426.9,204.7z"/>
<path class="st19" d="M427.1,203.2l0.1,0.3c0.1,0.4,3.2,4,9.4,10.9l0.3,0.1c0.1-0.3,0.1-0.5,0.1-0.6c-0.1,0-2.2-2.4-6.3-7
	c-2.1-2.2-3.1-3.4-3.2-3.6L427.1,203.2L427.1,203.2z"/>
<path class="st19" d="M427.3,202l0.1,0.6l0.1,0.4c1.5,1.6,4.7,5.1,9.4,10.5c0.2-0.1,0.3-0.4,0.1-1c-0.8-0.7-3.9-4.2-9.4-10.5H427.3z
	"/>
<path class="st19" d="M427.4,201.5c5.2,5.7,8.4,9.3,9.5,10.8h0.3v-0.1c-0.7-1-3.3-4-7.9-9.1c-0.9-1.1-1.4-1.7-1.7-1.8
	C427.4,201.2,427.4,201.3,427.4,201.5z"/>
<path class="st19" d="M427.8,240.1v0.1l9.1,10.3h0.4c-4.6-5.3-7.6-8.7-9.1-10.3l-0.3-0.1H427.8z"/>
<path class="st19" d="M428,200.6c0.1,0.3,0.1,0.4,0,0.4c3.5,3.8,6.6,7.3,9.3,10.5c0.1-0.1,0.3-0.1,0.3-0.1l-0.1-0.1L428,200.6z"/>
<path class="st19" d="M428.6,240l0.1,0.1c5.7,6.6,8.8,10.1,9.2,10.4h0.1v-0.1c-0.3-0.6-3.4-4-9.1-10.4H428.6z"/>
<path class="st19" d="M428.6,200.6l0.1,0.1c2.1,2.3,5.3,5.9,9.4,10.6h0.5c-5.4-6.1-8.6-9.6-9.6-10.6
	C428.9,200.6,428.7,200.6,428.6,200.6z"/>
<path class="st19" d="M429.6,200.6l0.1,0.1c6.3,7.1,9.4,10.6,9.6,10.6h0.3l-9.5-10.8L429.6,200.6L429.6,200.6z"/>
<path class="st19" d="M429.7,240.2c4.3,4.9,7.3,8.3,8.9,10.3h0.4l-6.1-7.1c-1.7-1.8-2.6-2.9-2.8-3.4h-0.3
	C429.7,240,429.6,240.1,429.7,240.2z"/>
<path class="st19" d="M430.6,240.1v0.1c5.7,6.6,8.7,10.1,9.1,10.3h0.3v-0.1c-5.9-6.7-9-10.1-9.2-10.3H430.6z"/>
<path class="st19" d="M430.7,200.5v0.3v0.1c3.4,3.8,6.5,7.3,9.3,10.5h0.4c-0.1-0.2-2.7-3.2-8-9C431.5,201.2,431,200.5,430.7,200.5z"
	/>
<polygon class="st19" points="431.5,200.6 440.8,211.2 441.1,211.3 441.5,211.3 431.7,200.5 "/>
<path class="st19" d="M431.5,240.1c0.1,0.2,1.5,1.8,4.2,4.9c3.2,3.6,4.8,5.4,4.8,5.5h0.3c-0.1-0.3-2.8-3.5-8.1-9.4
	c-0.4-0.7-0.7-1-0.9-1H431.5z"/>
<path class="st19" d="M432.4,240.1c0.6,0.8,3.4,4,8.5,9.8c0.1,0.3,0.3,0.5,0.5,0.5h0.1c-0.1-0.2-3-3.6-8.8-10.3H432.4z"/>
<path class="st19" d="M432.5,200.6c5.3,6.1,8.5,9.7,9.8,10.9h0.1l-0.1-0.3c-5.2-5.8-8.4-9.4-9.6-10.6L432.5,200.6L432.5,200.6z"/>
<path class="st19" d="M433.4,240.2l7.5,8.6c0.8,1,1.4,1.5,1.6,1.5c0-0.1,0-0.1,0.1-0.1c-5.4-6.2-8.3-9.5-8.9-10H433.4z"/>
<path class="st19" d="M433.5,200.6l0.1,0.1c4.1,4.6,7.2,8.1,9.5,10.8h0.4c-5.5-6.3-8.7-9.9-9.8-10.9L433.5,200.6L433.5,200.6z"/>
<path class="st19" d="M434.3,239.9v0.3c0,0.2,3,3.5,8.8,10c0,0.1,0.2,0.2,0.4,0.3l-0.1-0.3c-0.1-0.2-1.4-1.7-3.9-4.5
	c-2.6-2.8-4.2-4.7-4.9-5.6L434.3,239.9z"/>
<path class="st19" d="M434.5,200.6l0.1,0.3c1.1,1.4,2.8,3.3,5.1,5.8l4.2,4.9h0.4C438.1,204.3,434.8,200.7,434.5,200.6z"/>
<path class="st19" d="M435,240.1c0.2,0.1,3.2,3.4,9,10h0.3l-0.1-0.1l-8.8-10.3h-0.1C435.1,239.7,435,239.9,435,240.1z"/>
<path class="st19" d="M438,212.1c-0.3,0.9-1.1,7.1-2.3,18.5c-0.4,3-0.4,5.2,0,6.8v0.1c2.3-0.5,4.2-1.7,5.6-3.6
	c0.9-1.7,1.8-6.2,2.7-13.5c0.1,0,0.3-1.1,0.4-3.3c0.5-2.9,0.7-4.4,0.6-4.6v-0.1C443.1,212.2,440.8,212.1,438,212.1z"/>
<path class="st19" d="M435.4,200.6l0.1,0.3c2.4,2.6,5.4,6.1,9.1,10.4l0.5,0.3h0.1v-0.1c-0.1-0.2-2-2.3-5.7-6.5
	c-1.3-1.6-2.6-3-3.9-4.3L435.4,200.6L435.4,200.6z"/>
<path class="st19" d="M435.7,239.6l0.1,0.3c5.4,6.2,8.5,9.6,9.2,10.1l0.1-0.3c-5.5-6.2-8.3-9.4-8.3-9.5c-0.4-0.4-0.6-0.6-0.7-0.6
	H435.7z"/>
<path class="st19" d="M436.6,239.5c0.1,0.2,3,3.6,8.8,10.1v0.1h0.5l-7.6-8.6l-1.2-1.4v-0.1h0.1c0.7,0.5,1.6,1.4,2.6,2.8
	c2.6,2.7,4.7,5,6.4,7.1h0.3c-0.1-0.3-1-1.4-2.8-3.3l-6.2-7h-0.3C436.7,239.3,436.5,239.4,436.6,239.5z"/>
<path class="st19" d="M436.6,200.8l0.1,0.3l8.3,9.5h0.3v-0.1c-0.1-0.3-2.2-2.7-6.3-7.3c0-0.1-0.7-0.9-2.1-2.4H436.6z"/>
<path class="st19" d="M436.9,200.3l8.2,9.3h0.3c-0.1-0.2-1.4-1.8-3.9-4.8l-4.3-4.8C437,200.1,436.9,200.2,436.9,200.3z"/>
<path class="st19" d="M437.9,239l0.1,0.3c4.4,4.9,7.3,8.2,8.9,10h0.3l-0.1-0.4c-2.9-3.2-5.6-6.3-8.2-9.4l-0.1-0.3h0.1
	c0.3,0.1,1.6,1.6,4.1,4.5s4.1,4.6,4.7,5.1h0.3l-0.1-0.3c-0.3-0.2-1.6-1.7-4-4.5l-4.7-5.3c-0.2-0.1-0.4-0.1-0.6-0.1
	C438.2,238.9,438,239,437.9,239z"/>
<path class="st19" d="M439.3,238.4v0.1c0,0.1,2.2,2.6,6.5,7.5l2.4,2.5h0.1l-0.1-0.4l-6.8-7.6c-0.6-0.9-1.3-1.6-2-2.1H439.3z"/>
<path class="st19" d="M439.8,238l7.8,8.9c0.5,0.8,1,1.2,1.3,1.3h0.1v-0.1c0-0.1-3-3.5-8.8-10.1h-0.1L439.8,238z"/>
<path class="st19" d="M439.9,200.7c3.6,4.2,5.5,6.3,5.8,6.4v-0.3c-0.1-0.4-1.9-2.4-5.3-6.1L439.9,200.7L439.9,200.7z"/>
<path class="st19" d="M440.5,237.7l8.9,10h0.3l-0.1-0.3c-5.2-5.9-8.1-9.2-8.8-10C440.6,237.6,440.5,237.6,440.5,237.7z"/>
<path class="st19" d="M441,237.4l8.8,9.9l0.3,0.1L450,247l-8.6-9.8l0.2-0.1c5.8,6.4,8.7,9.7,8.7,9.9h0.1c0.2,0,0.2-0.1,0.1-0.4
	l-8.8-10l0,0C441.2,237,441,237.2,441,237.4z"/>
<path class="st19" d="M441.2,200.8l4.4,5.3h0.3l-0.1-0.3c-0.1-0.3-1.5-1.9-4.4-5H441.2z"/>
<path class="st19" d="M441.9,236.2c2.6,3,3.9,4.5,4.1,4.5c0.5,0.8,2.2,2.6,4.9,5.6h0.1c0.2,0,0.2-0.1,0.2-0.3l-8.9-10.1H442
	C442,236,441.9,236.1,441.9,236.2z"/>
<path class="st19" d="M442.1,200.8c0.5,0.7,1.8,2.1,3.8,4.4h0.1v-0.1c-0.1-0.3-1-1.4-2.8-3.3c-0.4-0.6-0.7-0.9-1-1L442.1,200.8
	L442.1,200.8z"/>
<path class="st19" d="M442.4,235.6l0.1,0.1c1.3,1.3,3.8,4.1,7.4,8.4c1.1,1.3,1.7,1.9,1.8,1.9c0.2,0,0.2-0.1,0.1-0.4l-6.1-6.9
	l-2.9-3.4h-0.3C442.4,235.4,442.3,235.5,442.4,235.6z"/>
<path class="st19" d="M443.4,234c-0.3,0.7-0.5,1-0.6,1l9.2,10.5c0.1-0.1,0.3-0.1,0.3-0.1v-0.1c-0.7-1-2.9-3.6-6.6-7.8
	c-0.6-0.5-1.3-1.4-2.3-2.6l0.2-0.1c0.5,0.7,3.1,3.6,7.8,8.8c0.5,0.8,0.9,1.2,1.3,1.4c0-0.2,0-0.3,0.2-0.3c-0.1-0.3-3-3.6-8.8-10
	C443.8,234.2,443.5,234,443.4,234z"/>
<path class="st19" d="M442.9,200.7l2.9,3.5h0.1c0.2,0,0.2-0.1,0.2-0.3c-1.7-2-2.7-3.1-3.1-3.3h-0.1V200.7z"/>
<path class="st19" d="M443.6,233.5l0.1,0.3c3.7,4,6.8,7.5,9.3,10.4l0.3-0.3c-1.5-1.9-4.6-5.4-9.4-10.6
	C443.6,233.2,443.6,233.3,443.6,233.5z"/>
<path class="st19" d="M443.9,200.7c1.3,1.7,2,2.5,2.3,2.5h0.1l-0.1-0.1C445.8,202.3,445.1,201.5,443.9,200.7L443.9,200.7z"/>
<path class="st19" d="M444,232.6c0.1,0.2,1.3,1.7,3.8,4.5c0.1,0.3,2,2.4,5.6,6.3l0.1-0.4l-9.4-10.6C444,232.4,444,232.5,444,232.6z"
	/>
<path class="st19" d="M444.3,231.9l9.4,10.8h0.1l0.3-0.3c-2.5-2.9-5.7-6.6-9.6-10.9C444.2,231.5,444.2,231.6,444.3,231.9z"/>
<path class="st19" d="M444.4,230.2c0,0.1,0,0.4-0.1,0.6c0.4,0.3,3.1,3.4,8.2,9.3c0.9,1,1.4,1.6,1.6,1.8c0.1,0,0.2-0.2,0.3-0.5
	C448.3,234.3,445,230.6,444.4,230.2z"/>
<path class="st19" d="M444.6,229.1l0.1,0.6l9.9,11.3h0.1c0-0.1,0-0.3,0.1-0.5v-0.1c-5.2-5.9-8.5-9.7-10-11.3H444.6z"/>
<path class="st19" d="M444.7,227.9l0.1,0.6v0.1c5,5.6,8.2,9.4,9.8,11.4h0.3c0.2,0,0.2-0.2,0.2-0.6c-2.3-2.5-4.8-5.3-7.4-8.5
	c-1.6-1.7-2.4-2.7-2.5-3H444.7z"/>
<path class="st19" d="M444.9,200.7v0.1c0.7,0.9,1.1,1.4,1.3,1.4h0.1l-0.1-0.3C445.6,201.1,445.1,200.7,444.9,200.7z"/>
<path class="st19" d="M444.9,227v0.5c1,1,4.4,4.8,10.1,11.5h0.3c0-0.1,0-0.2,0-0.4c-0.1-0.3-1.2-1.6-3.4-4c-4-4.7-6.1-7.2-6.5-7.5
	c0-0.1-0.1-0.1-0.2-0.1H444.9z"/>
<path class="st19" d="M445,226.1c0.5,0.8,3.9,4.7,10.3,11.9c0.1,0,0.2-0.2,0.2-0.5l-10-11.6v-0.1h-0.1
	C445.2,225.7,445.1,225.9,445,226.1z"/>
<path class="st19" d="M445.3,224.5l-0.1,0.3l0.1,0.4c1.3,1.5,3.9,4.5,7.7,9l2.6,2.9c0-0.3,0-0.5,0.1-0.5c-1.7-2-5.1-6-10.3-12
	L445.3,224.5L445.3,224.5z"/>
<path class="st19" d="M445.5,223.5c0,0.3,0,0.4-0.1,0.4c2.3,2.5,5.4,6.1,9.4,10.9c0.7,0.8,1,1.1,1.1,1.1h0.1c-0.1-0.2-0.1-0.4,0-0.5
	c-6.6-7.6-9.9-11.5-10-11.6L445.5,223.5z"/>
<path class="st19" d="M445.6,222.2c-0.1,0.3-0.1,0.5,0,0.8c6.7,7.7,10.2,11.6,10.4,11.8l0.1-0.4l-0.1-0.3
	C452.4,229.8,449,225.8,445.6,222.2z"/>
<path class="st19" d="M445.8,221.1c-0.1,0.3-0.1,0.5,0,0.8c3.8,4.2,6.8,7.7,9,10.4c0.9,0.9,1.3,1.4,1.4,1.4h0.1c0-0.1,0-0.2,0-0.4
	C455.3,231.8,451.8,227.8,445.8,221.1z"/>
<path class="st19" d="M445.9,220.1c0,0.1,0,0.2,0,0.4c6.7,7.9,10.2,12,10.5,12.1h0.1c0-0.1,0-0.4,0.1-0.6
	c-6.2-6.9-9.7-10.9-10.4-11.9H445.9z"/>
<path class="st19" d="M446,200.8l0.1,0.3c0.1,0.2,0.2,0.3,0.3,0.3c0-0.1,0-0.1,0.1-0.1c-0.1-0.2-0.2-0.3-0.2-0.4H446V200.8z"/>
<path class="st19" d="M446,218.8l0.1,0.9c6.8,7.8,10.2,11.7,10.4,11.8h0.1l-0.1-0.6c0-0.1-1.8-2.1-5.2-5.9L446,218.8L446,218.8
	L446,218.8z"/>
<path class="st19" d="M446.1,218l0.2,0.6c2,2.2,5.4,6.1,10.2,11.8h0.3c0.2,0,0.2-0.1,0.2-0.3l-0.1-0.1c-0.1-0.2-3-3.6-8.8-10.3
	c-0.1-0.3-0.6-0.9-1.7-1.8h-0.3L446.1,218L446.1,218z"/>
<path class="st19" d="M446.2,216.7l0.2,0.8l9.5,10.9c0.4,0.7,0.8,1,1,1c-0.1-0.3,0-0.5,0.1-0.5C450.1,221,446.5,217,446.2,216.7
	L446.2,216.7L446.2,216.7z"/>
<path class="st19" d="M446.6,215.7l-0.2,0.4l10.5,12.1h0.3v-0.8c-2.8-2.9-6.3-6.8-10.5-11.8h-0.1L446.6,215.7L446.6,215.7z"/>
<path class="st19" d="M446.6,215l0.1,0.1c3.3,3.9,6.8,7.9,10.4,11.9l0.1,0.3h0.3l-0.1-0.6c-5.6-6.2-8.5-9.6-8.8-10l-1.8-1.9
	C446.6,214.7,446.5,214.8,446.6,215z"/>
<path class="st19" d="M446.8,213.5c0,0.4,0.1,0.7,0.1,0.8c5.6,6.4,9.1,10.4,10.6,11.9c0.1-0.3,0.1-0.5,0-0.8
	c-1.3-1.2-4.7-5.1-10.4-11.9H446.8z"/>
<path class="st19" d="M447,212.2v0.8l10.3,12h0.1c0.2-0.1,0.3-0.3,0.2-0.8c-0.9-0.8-4.3-4.8-10.5-12H447z"/>
<path class="st19" d="M447.1,211.2c0.1,0.2,0.1,0.4,0,0.5l10.5,12.1c0.1,0,0.2-0.2,0.2-0.5l-3.3-3.8
	C450.9,215.2,448.4,212.5,447.1,211.2L447.1,211.2L447.1,211.2z"/>
<path class="st19" d="M447.3,210.2l-0.1,0.3l0.1,0.4c2.3,2.5,5.8,6.5,10.3,11.9h0.1c0.1,0,0.2-0.2,0.2-0.6
	C454.4,218.2,450.9,214.2,447.3,210.2L447.3,210.2L447.3,210.2z"/>
<path class="st19" d="M447.4,209.1l0.1,0.6v0.1c3.4,3.8,6.9,7.8,10.4,11.9h0.1l0.2-0.4c-0.5-0.8-4.1-4.9-10.6-12.3L447.4,209.1
	L447.4,209.1z"/>
<path class="st19" d="M447.5,208.6c2.7,2.8,6.2,6.7,10.4,11.9l0.3,0.1l0.1-0.5c-2.1-2.5-5.6-6.5-10.5-12h-0.1
	C447.6,208.1,447.6,208.3,447.5,208.6z"/>
<path class="st19" d="M447.7,207.1c0,0.1,0,0.2,0,0.4c1.4,1.3,4.8,5.2,10.4,11.8l0.3,0.1h0.1v-0.1c-1.5-2-4.5-5.4-9-10.4
	C448.5,207.7,447.9,207.1,447.7,207.1L447.7,207.1z"/>
<path class="st19" d="M447.8,206.2l0.1,0.4c4,4.5,7.6,8.4,10.6,11.9h0.1l-0.1-0.6v-0.1L448.2,206h-0.3
	C447.8,206,447.8,206.1,447.8,206.2z"/>
<path class="st19" d="M448,204.8c0.1,0.2,0.1,0.3,0,0.3c6.9,8,10.4,12,10.6,12.1c0.2,0,0.2-0.1,0.2-0.3c-0.1-0.3-1.8-2.3-5.1-6.1
	c-2.5-2.7-4.4-4.7-5.4-6H448z"/>
<path class="st19" d="M448.2,203.7l0.1,0.6c2.9,3,6.4,7,10.4,11.9h0.1l0.2-0.6c-4-4.5-6.1-6.9-6.1-7c-1.6-1.9-2.9-3.1-3.6-3.8
	c-0.2-0.6-0.4-0.9-0.8-1.1L448.2,203.7L448.2,203.7z"/>
<path class="st19" d="M448.3,202.8v0.1c3.8,4.1,7.4,8.1,10.8,12.1c-0.1-0.2,0-0.4,0.1-0.6c-2.4-2.6-4.9-5.5-7.6-8.6
	c-1.8-2-2.7-3-2.9-3H448.3z"/>
<path class="st19" d="M448.6,201.3c-0.1,0.3-0.1,0.6,0,0.8c3.9,4.3,7.4,8.3,10.4,11.9h0.3l-0.1-0.6L448.6,201.3z"/>
<path class="st19" d="M449.4,201.3l0.1,0.4c5.5,6.4,8.8,10.1,9.8,11.1l-0.3-1l-8.6-9.6C449.8,201.6,449.5,201.3,449.4,201.3z"/>
<path class="st19" d="M449.7,200.8l0.1,0.4c0.8,0.8,3.9,4.2,9.3,10.4l0.4,0.3h0.1c0-0.2-1.6-2-4.8-5.5c-2.8-3.3-4.5-5.1-5-5.5
	L449.7,200.8L449.7,200.8z"/>
<polygon class="st19" points="450.4,248.7 450.7,248.7 450.8,248.9 450.5,248.9 "/>
<path class="st19" d="M450.6,200.8c5.2,6.1,8.5,9.8,9.8,11h0.3v-0.1c-4.7-5.2-7.9-8.8-9.6-10.9H450.6z"/>
<path class="st19" d="M451.5,200.8c5.4,6.2,8.7,9.9,9.9,11h0.1c-0.1-0.3-2.4-3-7-8c-1.8-2-2.7-3-2.8-3H451.5z"/>
<path class="st19" d="M452.5,200.8v0.1l7.9,8.9c1.1,1.3,1.7,2,1.8,2c0.2,0,0.2-0.1,0.2-0.3c-3.6-3.9-6.9-7.5-9.7-10.8h-0.2
	L452.5,200.8L452.5,200.8z"/>
<polygon class="st19" points="453.3,200.8 453.4,201 463.1,211.8 463.4,211.8 463.3,211.7 453.8,201 453.5,200.8 "/>
<path class="st19" d="M454.2,200.8l9.8,11h0.3l-0.1-0.3c-6.4-7.1-9.6-10.7-9.6-10.8h-0.4L454.2,200.8L454.2,200.8z"/>
<path class="st19" d="M455.3,200.8l0.1,0.3l5.3,6c0.1,0.1,1.5,1.7,4.2,4.8h0.3c-0.1-0.3-3.2-3.8-9.3-10.8L455.3,200.8z"/>
<path class="st19" d="M456.1,200.8l9.8,11h0.3l-0.1-0.3c-3.8-4.2-6.5-7.2-8.1-9c-1-1.2-1.6-1.8-1.7-1.8h-0.2L456.1,200.8
	L456.1,200.8z"/>
<path class="st19" d="M457,200.8c4.2,4.6,6.5,7.3,7,7.9l2.9,3.1h0.1v-0.1c0-0.1-3.1-3.5-9-10.1l-0.6-0.8L457,200.8L457,200.8z"/>
<path class="st19" d="M458,200.8l0.1,0.3c1,0.9,2.3,2.4,3.9,4.4c2.1,2.2,3.9,4.3,5.7,6.4h0.1l-0.1-0.3c0-0.2-2.4-2.9-7.1-8.1
	c-0.3-0.2-1.1-1.1-2.4-2.6L458,200.8L458,200.8z"/>
<path class="st19" d="M459,200.8l0.1,0.3c3.8,4.2,7,7.8,9.5,10.8h0.5l-9.8-10.9L459,200.8z"/>
<polygon class="st19" points="460.5,200.5 460.6,200.7 460.7,200.7 460.6,200.5 "/>
<path class="st19" d="M461.2,201.2l0.2,0.5c0.2,0,0.3,0.1,0.4,0.4h0.1V202c-0.3-0.3-0.4-0.5-0.5-0.8H461.2L461.2,201.2z"/>
<path class="st19" d="M462,202.3c0.1,0.2,0.2,0.3,0.3,0.3l-0.1-0.3H462z"/>
<path class="st19" d="M462.4,202.7v0.1c0.5,0.5,0.7,0.8,0.8,0.8v-0.1C462.8,203,462.5,202.7,462.4,202.7z"/>

</svg>
