<?xml version="1.0" encoding="utf-8"?>
<!-- Generator: Adobe Illustrator 19.2.1, SVG Export Plug-In . SVG Version: 6.00 Build 0)  -->
<svg version="1.1" id="Layer_1" xmlns="http://www.w3.org/2000/svg" xmlns:xlink="http://www.w3.org/1999/xlink" x="0px" y="0px"
	 viewBox="0 0 432 216" style="enable-background:new 0 0 432 216;" xml:space="preserve">
<style type="text/css">
	.st0{fill:#EE3624;}
</style>
<g>
	<polygon class="st0" points="80.3,131.4 77.6,127.5 80.1,127.5 81.6,129.6 83,127.5 85.5,127.5 82.8,131.3 85.8,135.7 83.3,135.7 
		81.5,133.1 79.8,135.7 77.3,135.7 	"/>
	<path d="M96.4,134.2h-8v-1.7h8V134.2z M96.4,130.8h-8v-1.7h8V130.8z"/>
	<path d="M100.3,127.5h2.2v8.2h-2.2V127.5z M102.6,126.2h-2.2v-1.8h2.2V126.2z"/>
	<path d="M104,127.5h2.1v1.1h0.1c0.6-0.9,1.5-1.4,2.5-1.4c2.4,0,3,1.3,3,3.4v5h-2.2v-4.6c0-1.3-0.4-2-1.4-2c-1.2,0-1.7,0.7-1.7,2.3
		v4.3H104V127.5z"/>
	<path d="M116.9,129c-1.5,0-2,1.3-2,2.6c0,1.3,0.6,2.6,2,2.6c1.5,0,1.9-1.3,1.9-2.6C118.9,130.2,118.4,129,116.9,129 M118.9,134.6
		L118.9,134.6c-0.6,0.9-1.5,1.3-2.5,1.3c-2.5,0-3.7-2.1-3.7-4.4c0-2.2,1.2-4.2,3.6-4.2c1,0,1.9,0.4,2.4,1.2h0h0v-4.1h2.2v11.3h-2.1
		V134.6z"/>
	<path d="M127.9,130.7c-0.2-1.1-0.7-1.7-1.8-1.7c-1.4,0-1.8,1.1-1.9,1.7H127.9z M124.3,132.1c0.1,1.4,0.8,2.1,2,2.1
		c0.9,0,1.6-0.6,1.8-1.1h2c-0.6,1.9-2,2.7-3.8,2.7c-2.6,0-4.2-1.8-4.2-4.3c0-2.5,1.7-4.3,4.2-4.3c2.8,0,4.1,2.3,4,4.9H124.3z"/>
	<path d="M137.2,131.6c0-1.3-0.5-2.6-2-2.6c-1.5,0-1.9,1.3-1.9,2.6c0,1.3,0.5,2.6,2,2.6C136.8,134.2,137.2,132.9,137.2,131.6
		 M131.2,127.5h2.1v1h0c0.5-0.9,1.4-1.3,2.4-1.3c2.6,0,3.7,2.1,3.7,4.4c0,2.2-1.2,4.2-3.6,4.2c-1,0-1.9-0.4-2.4-1.2h0v3.9h-2.2
		V127.5z"/>
	<path d="M146,130.7c-0.2-1.1-0.7-1.7-1.8-1.7c-1.4,0-1.8,1.1-1.9,1.7H146z M142.4,132.1c0.1,1.4,0.8,2.1,2,2.1
		c0.9,0,1.6-0.6,1.8-1.1h2c-0.6,1.9-2,2.7-3.8,2.7c-2.6,0-4.2-1.8-4.2-4.3c0-2.5,1.7-4.3,4.2-4.3c2.8,0,4.1,2.3,4,4.9H142.4z"/>
	<path d="M149.3,127.5h2.1v1.1h0c0.6-0.9,1.5-1.4,2.5-1.4c2.4,0,3,1.3,3,3.4v5h-2.2v-4.6c0-1.3-0.4-2-1.4-2c-1.2,0-1.7,0.7-1.7,2.3
		v4.3h-2.2V127.5z"/>
	<path d="M162.2,129c-1.5,0-2,1.3-2,2.6c0,1.3,0.6,2.6,2,2.6c1.5,0,1.9-1.3,1.9-2.6C164.1,130.2,163.6,129,162.2,129 M164.1,134.6
		L164.1,134.6c-0.6,0.9-1.5,1.3-2.5,1.3c-2.5,0-3.7-2.1-3.7-4.4c0-2.2,1.2-4.2,3.6-4.2c1,0,1.9,0.4,2.4,1.2h0h0v-4.1h2.2v11.3h-2.1
		V134.6z"/>
	<path d="M173.2,130.7c-0.2-1.1-0.7-1.7-1.8-1.7c-1.4,0-1.8,1.1-1.9,1.7H173.2z M169.5,132.1c0.1,1.4,0.8,2.1,2,2.1
		c0.9,0,1.6-0.6,1.8-1.1h2c-0.6,1.9-2,2.7-3.8,2.7c-2.6,0-4.2-1.8-4.2-4.3c0-2.5,1.7-4.3,4.2-4.3c2.8,0,4.1,2.3,4,4.9H169.5z"/>
	<path d="M176.4,127.5h2.1v1.1h0c0.6-0.9,1.5-1.4,2.5-1.4c2.4,0,3,1.3,3,3.4v5h-2.2v-4.6c0-1.3-0.4-2-1.4-2c-1.2,0-1.7,0.7-1.7,2.3
		v4.3h-2.2V127.5z"/>
	<path d="M188.3,127.5h1.6v1.5h-1.6v4c0,0.8,0.2,0.9,0.9,0.9c0.2,0,0.5,0,0.7-0.1v1.8c-0.4,0.1-0.9,0.1-1.3,0.1
		c-1.4,0-2.6-0.3-2.6-1.9V129h-1.4v-1.5h1.4v-2.4h2.2V127.5z"/>
	<rect x="190.8" y="124.4" width="2.2" height="11.3"/>
	<path d="M198.5,136.7c-0.5,1.3-1.3,1.9-2.8,1.9c-0.5,0-0.9,0-1.4-0.1v-1.9c0.4,0,0.9,0.1,1.3,0.1c0.8-0.1,1-0.9,0.8-1.5l-2.9-7.7
		h2.4l1.9,5.6h0l1.8-5.6h2.3L198.5,136.7z"/>
	<path d="M210.4,134.2c1.5,0,2-1.3,2-2.6c0-1.3-0.5-2.6-2-2.6c-1.5,0-2,1.3-2,2.6C208.4,132.9,208.9,134.2,210.4,134.2 M210.4,127.3
		c2.6,0,4.2,1.7,4.2,4.3c0,2.6-1.7,4.3-4.2,4.3c-2.6,0-4.2-1.7-4.2-4.3C206.2,129,207.8,127.3,210.4,127.3z"/>
	<path d="M215.5,127.5h2.1v1.5h0c0.4-1,1.5-1.7,2.6-1.7c0.2,0,0.3,0,0.5,0.1v2.1c-0.2,0-0.5-0.1-0.8-0.1c-1.6,0-2.2,1.2-2.2,2.6v3.7
		h-2.2V127.5z"/>
	<path d="M227,131.5c0-1.3-0.5-2.5-1.9-2.5c-1.3,0-1.8,1.1-1.8,2.3c0,1.2,0.4,2.4,1.8,2.4C226.4,133.7,227,132.7,227,131.5
		 M229.1,135.2c0,1.3-0.5,3.6-4.2,3.6c-1.6,0-3.5-0.8-3.6-2.6h2.2c0.2,0.8,0.9,1.1,1.7,1.1c1.2,0,1.8-0.9,1.8-2v-1.1h0
		c-0.5,0.9-1.5,1.3-2.4,1.3c-2.4,0-3.5-1.9-3.5-4.1c0-2.1,1.2-4,3.5-4c1.1,0,1.9,0.4,2.4,1.3h0v-1.1h2.1V135.2z"/>
	<path d="M235.4,131.7c-0.4,0.3-1.2,0.3-1.9,0.5c-0.7,0.1-1.3,0.4-1.3,1.2c0,0.8,0.6,1,1.4,1c1.8,0,1.8-1.4,1.8-1.9V131.7z
		 M230.2,130c0.1-2.1,2-2.7,3.8-2.7c1.6,0,3.6,0.4,3.6,2.3v4.3c0,0.7,0.1,1.5,0.3,1.8h-2.3c-0.1-0.3-0.1-0.5-0.2-0.8
		c-0.7,0.7-1.8,1-2.8,1c-1.5,0-2.8-0.8-2.8-2.4c0-1.9,1.4-2.3,2.8-2.5c1.4-0.2,2.7-0.2,2.7-1.1c0-1-0.7-1.1-1.5-1.1
		c-0.9,0-1.4,0.3-1.5,1.2H230.2z"/>
	<path d="M239.1,127.5h2.1v1.1h0c0.6-0.9,1.5-1.4,2.5-1.4c2.4,0,3,1.3,3,3.4v5h-2.2v-4.6c0-1.3-0.4-2-1.4-2c-1.2,0-1.7,0.7-1.7,2.3
		v4.3h-2.2V127.5z"/>
	<path d="M247.9,127.5h2.2v8.2h-2.2V127.5z M250.1,126.2h-2.2v-1.8h2.2V126.2z"/>
	<polygon points="251.1,134 255.3,129.2 251.4,129.2 251.4,127.5 258.3,127.5 258.3,129.2 254,134 258.6,134 258.6,135.7 
		251.1,135.7 	"/>
	<path d="M265,130.7c-0.2-1.1-0.7-1.7-1.8-1.7c-1.4,0-1.8,1.1-1.9,1.7H265z M261.3,132.1c0.1,1.4,0.8,2.1,2,2.1
		c0.9,0,1.6-0.6,1.8-1.1h2c-0.6,1.9-2,2.7-3.8,2.7c-2.6,0-4.2-1.8-4.2-4.3c0-2.5,1.7-4.3,4.2-4.3c2.8,0,4.1,2.3,4,4.9H261.3z"/>
	<path d="M272.1,129c-1.5,0-2,1.3-2,2.6c0,1.3,0.6,2.6,2,2.6c1.5,0,1.9-1.3,1.9-2.6C274,130.2,273.5,129,272.1,129 M274,134.6
		L274,134.6c-0.6,0.9-1.5,1.3-2.5,1.3c-2.5,0-3.7-2.1-3.7-4.4c0-2.2,1.2-4.2,3.6-4.2c1,0,1.9,0.4,2.4,1.2h0h0v-4.1h2.2v11.3H274
		V134.6z"/>
	<polygon points="284.4,126.5 281,126.5 281,124.4 290.2,124.4 290.2,126.5 286.8,126.5 286.8,135.7 284.4,135.7 	"/>
	<polygon points="291.2,124.4 299.6,124.4 299.6,126.5 293.7,126.5 293.7,128.9 299.2,128.9 299.2,130.8 293.7,130.8 293.7,133.6 
		299.8,133.6 299.8,135.7 291.2,135.7 	"/>
	<path d="M303.3,133.6h2.2c1.4,0,2.8-0.9,2.8-3.4c0-2.3-0.8-3.7-3.3-3.7h-1.8V133.6z M300.8,124.4h4.9c2.9,0,5.1,1.8,5.1,5.6
		c0,3.3-1.7,5.7-5.1,5.7h-4.9V124.4z"/>
	<path d="M321.6,130.7c-0.2-1.1-0.7-1.7-1.8-1.7c-1.4,0-1.8,1.1-1.9,1.7H321.6z M317.9,132.1c0.1,1.4,0.8,2.1,2,2.1
		c0.9,0,1.6-0.6,1.8-1.1h2c-0.6,1.9-2,2.7-3.8,2.7c-2.6,0-4.2-1.8-4.2-4.3c0-2.5,1.7-4.3,4.2-4.3c2.8,0,4.1,2.3,4,4.9H317.9z"/>
	<polygon points="329,135.7 326.5,135.7 323.7,127.5 326.1,127.5 327.8,133.1 327.8,133.1 329.6,127.5 331.8,127.5 	"/>
	<path d="M337.6,130.7c-0.2-1.1-0.7-1.7-1.8-1.7c-1.4,0-1.8,1.1-1.9,1.7H337.6z M333.9,132.1c0.1,1.4,0.8,2.1,2,2.1
		c0.9,0,1.6-0.6,1.8-1.1h2c-0.6,1.9-2,2.7-3.8,2.7c-2.6,0-4.2-1.8-4.2-4.3c0-2.5,1.7-4.3,4.2-4.3c2.8,0,4.1,2.3,4,4.9H333.9z"/>
	<path d="M340.8,127.5h2.1v1.1h0c0.6-0.9,1.5-1.4,2.5-1.4c2.4,0,3,1.3,3,3.4v5h-2.2v-4.6c0-1.3-0.4-2-1.4-2c-1.2,0-1.7,0.7-1.7,2.3
		v4.3h-2.2V127.5z"/>
	<path d="M352.7,127.5h1.6v1.5h-1.6v4c0,0.8,0.2,0.9,0.9,0.9c0.2,0,0.5,0,0.7-0.1v1.8c-0.4,0.1-0.9,0.1-1.3,0.1
		c-1.4,0-2.6-0.3-2.6-1.9V129h-1.4v-1.5h1.4v-2.4h2.2V127.5z"/>
	<polygon class="st0" points="87,87.1 76.5,87.1 76.5,77.4 109.1,77.4 109.1,87.1 98.6,87.1 98.6,115 87,115 	"/>
	<polygon class="st0" points="110.9,77.4 142.6,77.4 142.6,87.1 122.5,87.1 122.5,91.7 142.6,91.7 142.6,100.7 122.5,100.7 
		122.5,105.4 142.6,105.4 142.6,115 110.9,115 	"/>
	<path class="st0" d="M156.1,105.4h4.5c7.2,0,8.3-5.8,8.3-9.4c0-2.4-0.7-8.9-9.1-8.9h-3.7V105.4z M144.5,77.4h19
		c12.5,0,16.9,9.3,16.9,18.7c0,11.5-6.1,18.8-19.2,18.8h-16.7V77.4z"/>
	<polygon class="st0" points="197.1,100.5 193.6,94.7 190.1,100.5 181.7,100.5 189.7,88.7 182,77.4 190.4,77.4 193.6,83 196.8,77.4 
		205.3,77.4 197.6,88.7 205.6,100.5 	"/>
	<g>
		<path d="M208.5,77h14.9c5.1,0,9,1.8,11.8,5.5c2.5,3.3,3.7,7.5,3.7,12.6c0,4-0.7,7.6-2.2,10.8c-2.6,5.7-7.1,8.5-13.4,8.5h-14.9V77z
			 M222.4,110.1c1.7,0,3.1-0.2,4.1-0.5c1.9-0.7,3.5-1.9,4.7-3.8c1-1.5,1.7-3.4,2.1-5.8c0.3-1.4,0.4-2.7,0.4-3.9
			c0-4.6-0.9-8.2-2.7-10.8c-1.8-2.6-4.7-3.8-8.7-3.8h-8.8v28.7H222.4z"/>
		<path d="M245.2,76.9h4.6v13.9c1.1-1.4,2.1-2.3,2.9-2.9c1.5-1,3.3-1.5,5.5-1.5c4,0,6.6,1.4,8,4.1c0.8,1.5,1.1,3.6,1.1,6.3v17.5
			h-4.7V97.2c0-2-0.3-3.5-0.8-4.4c-0.8-1.5-2.4-2.2-4.7-2.2c-1.9,0-3.6,0.7-5.2,2c-1.5,1.3-2.3,3.8-2.3,7.4v14.4h-4.6V76.9z"/>
		<path d="M288.8,97.9c1.1-0.1,1.8-0.6,2.1-1.3c0.2-0.4,0.3-1,0.3-1.8c0-1.6-0.6-2.7-1.7-3.4c-1.1-0.7-2.7-1.1-4.8-1.1
			c-2.4,0-4.1,0.6-5.1,1.9c-0.6,0.7-0.9,1.8-1.1,3.2h-4.3c0.1-3.4,1.2-5.7,3.3-7c2.1-1.3,4.5-2,7.3-2c3.2,0,5.8,0.6,7.8,1.8
			c2,1.2,3,3.1,3,5.7v15.7c0,0.5,0.1,0.9,0.3,1.1c0.2,0.3,0.6,0.4,1.2,0.4c0.2,0,0.4,0,0.7,0c0.3,0,0.5-0.1,0.8-0.1v3.4
			c-0.7,0.2-1.3,0.3-1.6,0.4c-0.4,0-0.9,0.1-1.5,0.1c-1.6,0-2.7-0.6-3.4-1.7c-0.4-0.6-0.6-1.4-0.8-2.5c-0.9,1.2-2.3,2.3-4,3.2
			c-1.7,0.9-3.7,1.3-5.8,1.3c-2.5,0-4.6-0.8-6.2-2.3c-1.6-1.5-2.4-3.5-2.4-5.8c0-2.5,0.8-4.5,2.4-5.9c1.6-1.4,3.6-2.2,6.2-2.6
			L288.8,97.9z M279.2,110.3c1,0.8,2.1,1.1,3.4,1.1c1.6,0,3.2-0.4,4.7-1.1c2.5-1.2,3.8-3.3,3.8-6.1v-3.7c-0.6,0.4-1.3,0.7-2.2,0.9
			c-0.9,0.2-1.7,0.4-2.6,0.5l-2.8,0.4c-1.7,0.2-2.9,0.6-3.7,1c-1.4,0.8-2.1,2.1-2.1,3.8C277.7,108.5,278.2,109.5,279.2,110.3z"/>
		<path d="M303.1,77h4.4v21.7l11.7-11.6h5.8l-10.5,10.1l11.1,17.1h-5.8l-8.6-13.9l-3.8,3.6v10.2h-4.4V77z"/>
		<path d="M343.8,97.9c1.1-0.1,1.8-0.6,2.1-1.3c0.2-0.4,0.3-1,0.3-1.8c0-1.6-0.6-2.7-1.7-3.4c-1.1-0.7-2.7-1.1-4.8-1.1
			c-2.4,0-4.1,0.6-5.1,1.9c-0.6,0.7-0.9,1.8-1.1,3.2h-4.3c0.1-3.4,1.2-5.7,3.3-7c2.1-1.3,4.5-2,7.3-2c3.2,0,5.8,0.6,7.8,1.8
			c2,1.2,3,3.1,3,5.7v15.7c0,0.5,0.1,0.9,0.3,1.1c0.2,0.3,0.6,0.4,1.2,0.4c0.2,0,0.4,0,0.7,0c0.3,0,0.5-0.1,0.8-0.1v3.4
			c-0.7,0.2-1.3,0.3-1.6,0.4c-0.4,0-0.9,0.1-1.5,0.1c-1.6,0-2.7-0.6-3.4-1.7c-0.4-0.6-0.6-1.4-0.8-2.5c-0.9,1.2-2.3,2.3-4,3.2
			c-1.7,0.9-3.7,1.3-5.8,1.3c-2.5,0-4.6-0.8-6.2-2.3c-1.6-1.5-2.4-3.5-2.4-5.8c0-2.5,0.8-4.5,2.4-5.9c1.6-1.4,3.6-2.2,6.2-2.6
			L343.8,97.9z M334.2,110.3c1,0.8,2.1,1.1,3.4,1.1c1.6,0,3.2-0.4,4.7-1.1c2.5-1.2,3.8-3.3,3.8-6.1v-3.7c-0.6,0.4-1.3,0.7-2.2,0.9
			c-0.9,0.2-1.7,0.4-2.6,0.5l-2.8,0.4c-1.7,0.2-2.9,0.6-3.7,1c-1.4,0.8-2.1,2.1-2.1,3.8C332.7,108.5,333.2,109.5,334.2,110.3z"/>
	</g>
</g>
</svg>
